<svg xmlns="http://www.w3.org/2000/svg" viewBox="0 0 1200 800">
  <!-- Dark background -->
  <rect width="1200" height="800" fill="#1a1a1a"/>
  
  <!-- Header Bar -->
  <rect x="0" y="0" width="1200" height="40" fill="#2d2d2d"/>
  <text x="20" y="25" font-family="Arial" font-size="16" fill="#e0e0e0" font-weight="bold">ContextNexus Flow</text>
  
  <rect x="200" y="5" width="700" height="30" rx="5" fill="#3d3d3d"/>
  <text x="215" y="25" font-family="Arial" font-size="14" fill="#e0e0e0">Project: Natural Language Understanding Pipeline</text>
  
  <!-- View Controls -->
  <rect x="730" y="5" width="90" height="30" rx="15" fill="#3d3d3d"/>
  <text x="775" y="25" font-family="Arial" font-size="14" fill="#aaa" text-anchor="middle">Timeline</text>
  
  <rect x="830" y="5" width="90" height="30" rx="15" fill="#3d3d3d"/>
  <text x="875" y="25" font-family="Arial" font-size="14" fill="#aaa" text-anchor="middle">Graph</text>
  
  <rect x="930" y="5" width="90" height="30" rx="15" fill="#3d3d3d"/>
  <text x="975" y="25" font-family="Arial" font-size="14" fill="#aaa" text-anchor="middle">Mixer</text>
  
  <rect x="1030" y="5" width="90" height="30" rx="15" fill="#0084ff"/>
  <text x="1075" y="25" font-family="Arial" font-size="14" fill="white" text-anchor="middle">Flow</text>
  
  <rect x="1130" y="5" width="60" height="30" rx="15" fill="#3d3d3d"/>
  <text x="1160" y="25" font-family="Arial" font-size="14" fill="#aaa" text-anchor="middle">❑</text>
  
  <!-- Navigation Controls -->
  <rect x="0" y="40" width="1200" height="40" fill="#2d2d2d"/>
  
  <!-- Flow Controls -->
  <rect x="20" y="45" width="100" height="30" rx="15" fill="#0084ff"/>
  <text x="70" y="65" font-family="Arial" font-size="12" fill="white" text-anchor="middle">Auto Layout</text>
  
  <rect x="130" y="45" width="100" height="30" rx="15" fill="#3d3d3d"/>
  <text x="180" y="65" font-family="Arial" font-size="12" fill="#aaa" text-anchor="middle">Snap to Grid</text>
  
  <rect x="240" y="45" width="100" height="30" rx="15" fill="#3d3d3d"/>
  <text x="290" y="65" font-family="Arial" font-size="12" fill="#aaa" text-anchor="middle">Align</text>
  
  <rect x="350" y="45" width="100" height="30" rx="15" fill="#3d3d3d"/>
  <text x="400" y="65" font-family="Arial" font-size="12" fill="#aaa" text-anchor="middle">Group</text>
  
  <!-- Zoom Controls -->
  <rect x="500" y="45" width="40" height="30" rx="5" fill="#3d3d3d"/>
  <text x="520" y="65" font-family="Arial" font-size="14" fill="#e0e0e0" text-anchor="middle">-</text>
  
  <rect x="550" y="45" width="60" height="30" rx="5" fill="#3d3d3d"/>
  <text x="580" y="65" font-family="Arial" font-size="12" fill="#e0e0e0" text-anchor="middle">100%</text>
  
  <rect x="620" y="45" width="40" height="30" rx="5" fill="#3d3d3d"/>
  <text x="640" y="65" font-family="Arial" font-size="14" fill="#e0e0e0" text-anchor="middle">+</text>
  
  <!-- Token Display -->
  <rect x="950" y="45" width="240" height="30" rx="15" fill="#333"/>
  <rect x="955" y="50" width="160" height="20" rx="10" fill="#444"/>
  <rect x="955" y="50" width="108" height="20" rx="10" fill="#0066cc"/>
  <text x="1025" y="65" font-family="Arial" font-size="12" fill="white">6,845 / 10,000 tokens</text>
  <text x="1140" y="65" font-family="Arial" font-size="12" fill="#0084ff">68.5%</text>
  
  <!-- Left Panel - Node Library -->
  <rect x="0" y="80" width="200" height="720" fill="#2a2a2a"/>
  
  <!-- Node Library Header -->
  <rect x="0" y="80" width="200" height="40" fill="#333"/>
  <text x="20" y="105" font-family="Arial" font-size="14" fill="#e0e0e0" font-weight="bold">Node Library</text>
  
  <!-- Search Box -->
  <rect x="20" y="130" width="160" height="30" rx="5" fill="#444"/>
  <text x="40" y="150" font-family="Arial" font-size="12" fill="#aaa">Search nodes...</text>
  
  <!-- Node Categories -->
  <rect x="0" y="170" width="200" height="30" fill="#333"/>
  <text x="20" y="190" font-family="Arial" font-size="12" fill="#e0e0e0" font-weight="bold">Source Nodes</text>
  
  <!-- Node List -->
  <rect x="10" y="210" width="180" height="40" rx="5" fill="#3d3d3d"/>
  <rect x="15" y="215" width="30" height="30" rx="5" fill="#0066cc"/>
  <text x="30" y="235" font-family="Arial" font-size="16" fill="white" font-weight="bold" text-anchor="middle">D</text>
  <text x="55" y="230" font-family="Arial" font-size="12" fill="#e0e0e0">Document</text>
  
  <rect x="10" y="260" width="180" height="40" rx="5" fill="#3d3d3d"/>
  <rect x="15" y="265" width="30" height="30" rx="5" fill="#29a3ff"/>
  <text x="30" y="285" font-family="Arial" font-size="16" fill="white" font-weight="bold" text-anchor="middle">K</text>
  <text x="55" y="280" font-family="Arial" font-size="12" fill="#e0e0e0">Knowledge Base</text>
  
  <rect x="10" y="310" width="180" height="40" rx="5" fill="#3d3d3d"/>
  <rect x="15" y="315" width="30" height="30" rx="5" fill="#5ebaff"/>
  <text x="30" y="335" font-family="Arial" font-size="16" fill="white" font-weight="bold" text-anchor="middle">C</text>
  <text x="55" y="330" font-family="Arial" font-size="12" fill="#e0e0e0">Code Repository</text>
  
  <!-- Second Category -->
  <rect x="0" y="360" width="200" height="30" fill="#333"/>
  <text x="20" y="380" font-family="Arial" font-size="12" fill="#e0e0e0" font-weight="bold">Process Nodes</text>
  
  <rect x="10" y="400" width="180" height="40" rx="5" fill="#3d3d3d"/>
  <rect x="15" y="405" width="30" height="30" rx="5" fill="#805ad5"/>
  <text x="30" y="425" font-family="Arial" font-size="16" fill="white" font-weight="bold" text-anchor="middle">F</text>
  <text x="55" y="420" font-family="Arial" font-size="12" fill="#e0e0e0">Filter</text>
  
  <rect x="10" y="450" width="180" height="40" rx="5" fill="#3d3d3d"/>
  <rect x="15" y="455" width="30" height="30" rx="5" fill="#6b46c1"/>
  <text x="30" y="475" font-family="Arial" font-size="16" fill="white" font-weight="bold" text-anchor="middle">M</text>
  <text x="55" y="470" font-family="Arial" font-size="12" fill="#e0e0e0">Merge</text>
  
  <rect x="10" y="500" width="180" height="40" rx="5" fill="#3d3d3d"/>
  <rect x="15" y="505" width="30" height="30" rx="5" fill="#553c9a"/>
  <text x="30" y="525" font-family="Arial" font-size="16" fill="white" font-weight="bold" text-anchor="middle">T</text>
  <text x="55" y="520" font-family="Arial" font-size="12" fill="#e0e0e0">Transform</text>
  
  <rect x="10" y="550" width="180" height="40" rx="5" fill="#3d3d3d"/>
  <rect x="15" y="555" width="30" height="30" rx="5" fill="#dd6b20"/>
  <text x="30" y="575" font-family="Arial" font-size="16" fill="white" font-weight="bold" text-anchor="middle">O</text>
  <text x="55" y="570" font-family="Arial" font-size="12" fill="#e0e0e0">Optimize</text>
  
  <!-- Third Category -->
  <rect x="0" y="600" width="200" height="30" fill="#333"/>
  <text x="20" y="620" font-family="Arial" font-size="12" fill="#e0e0e0" font-weight="bold">Output Nodes</text>
  
  <rect x="10" y="640" width="180" height="40" rx="5" fill="#3d3d3d"/>
  <rect x="15" y="645" width="30" height="30" rx="5" fill="#38a169"/>
  <text x="30" y="665" font-family="Arial" font-size="16" fill="white" font-weight="bold" text-anchor="middle">P</text>
  <text x="55" y="660" font-family="Arial" font-size="12" fill="#e0e0e0">Prompt</text>
  
  <rect x="10" y="690" width="180" height="40" rx="5" fill="#3d3d3d"/>
  <rect x="15" y="695" width="30" height="30" rx="5" fill="#2f855a"/>
  <text x="30" y="715" font-family="Arial" font-size="16" fill="white" font-weight="bold" text-anchor="middle">E</text>
  <text x="55" y="710" font-family="Arial" font-size="12" fill="#e0e0e0">Embedding</text>
  
  <rect x="10" y="740" width="180" height="40" rx="5" fill="#3d3d3d"/>
  <rect x="15" y="745" width="30" height="30" rx="5" fill="#9c4221"/>
  <text x="30" y="765" font-family="Arial" font-size="16" fill="white" font-weight="bold" text-anchor="middle">V</text>
  <text x="55" y="760" font-family="Arial" font-size="12" fill="#e0e0e0">Visualization</text>
  
  <!-- Main Flow Area with Grid -->
  <rect x="200" y="80" width="1000" height="720" fill="#1e1e1e"/>
  
  <!-- Grid Lines -->
  <!-- Vertical Lines -->
  <line x1="300" y1="80" x2="300" y2="800" stroke="#2a2a2a" stroke-width="1"/>
  <line x1="400" y1="80" x2="400" y2="800" stroke="#2a2a2a" stroke-width="1"/>
  <line x1="500" y1="80" x2="500" y2="800" stroke="#2a2a2a" stroke-width="1"/>
  <line x1="600" y1="80" x2="600" y2="800" stroke="#2a2a2a" stroke-width="1"/>
  <line x1="700" y1="80" x2="700" y2="800" stroke="#2a2a2a" stroke-width="1"/>
  <line x1="800" y1="80" x2="800" y2="800" stroke="#2a2a2a" stroke-width="1"/>
  <line x1="900" y1="80" x2="900" y2="800" stroke="#2a2a2a" stroke-width="1"/>
  <line x1="1000" y1="80" x2="1000" y2="800" stroke="#2a2a2a" stroke-width="1"/>
  <line x1="1100" y1="80" x2="1100" y2="800" stroke="#2a2a2a" stroke-width="1"/>
  
  <!-- Horizontal Lines -->
  <line x1="200" y1="180" x2="1200" y2="180" stroke="#2a2a2a" stroke-width="1"/>
  <line x1="200" y1="280" x2="1200" y2="280" stroke="#2a2a2a" stroke-width="1"/>
  <line x1="200" y1="380" x2="1200" y2="380" stroke="#2a2a2a" stroke-width="1"/>
  <line x1="200" y1="480" x2="1200" y2="480" stroke="#2a2a2a" stroke-width="1"/>
  <line x1="200" y1="580" x2="1200" y2="580" stroke="#2a2a2a" stroke-width="1"/>
  <line x1="200" y1="680" x2="1200" y2="680" stroke="#2a2a2a" stroke-width="1"/>
  
  <!-- Flow Title -->
  <text x="220" y="110" font-family="Arial" font-size="16" fill="#e0e0e0" font-weight="bold">NLP Processing Pipeline</text>
  <text x="220" y="130" font-family="Arial" font-size="12" fill="#aaa">Drag nodes to build your context flow. Connect nodes to create processing chains.</text>
  
  <!-- Source Nodes (Left Side) -->
  <!-- Documentation Node -->
  <rect x="230" y="190" width="120" height="80" rx="5" fill="#2a2a2a" stroke="#0066cc" stroke-width="2"/>
  <rect x="230" y="190" width="120" height="25" rx="5 5 0 0" fill="#0066cc"/>
  <text x="245" y="207" font-family="Arial" font-size="12" fill="white">Documentation</text>
  <text x="245" y="235" font-family="Arial" font-size="10" fill="#e0e0e0">Source: NLP Docs</text>
  <text x="245" y="255" font-family="Arial" font-size="10" fill="#e0e0e0">1,240 tokens</text>
  <circle cx="350" cy="230" r="5" fill="#0084ff"/>
  
  <!-- Tokenization Node -->
  <rect x="230" y="290" width="120" height="80" rx="5" fill="#2a2a2a" stroke="#29a3ff" stroke-width="2"/>
  <rect x="230" y="290" width="120" height="25" rx="5 5 0 0" fill="#29a3ff"/>
  <text x="245" y="307" font-family="Arial" font-size="12" fill="white">Tokenization</text>
  <text x="245" y="335" font-family="Arial" font-size="10" fill="#e0e0e0">Source: Core NLP</text>
  <text x="245" y="355" font-family="Arial" font-size="10" fill="#e0e0e0">820 tokens</text>
  <circle cx="350" cy="330" r="5" fill="#0084ff"/>
  
  <!-- Parsing Node -->
  <rect x="230" y="390" width="120" height="80" rx="5" fill="#2a2a2a" stroke="#5ebaff" stroke-width="2"/>
  <rect x="230" y="390" width="120" height="25" rx="5 5 0 0" fill="#5ebaff"/>
  <text x="245" y="407" font-family="Arial" font-size="12" fill="white">Parsing</text>
  <text x="245" y="435" font-family="Arial" font-size="10" fill="#e0e0e0">Source: Syntax KB</text>
  <text x="245" y="455" font-family="Arial" font-size="10" fill="#e0e0e0">950 tokens</text>
  <circle cx="350" cy="430" r="5" fill="#0084ff"/>
  
  <!-- Code Examples Node -->
  <rect x="230" y="490" width="120" height="80" rx="5" fill="#2a2a2a" stroke="#805ad5" stroke-width="2"/>
  <rect x="230" y="490" width="120" height="25" rx="5 5 0 0" fill="#805ad5"/>
  <text x="245" y="507" font-family="Arial" font-size="12" fill="white">Code Examples</text>
  <text x="245" y="535" font-family="Arial" font-size="10" fill="#e0e0e0">Source: GitHub</text>
  <text x="245" y="555" font-family="Arial" font-size="10" fill="#e0e0e0">1,450 tokens</text>
  <circle cx="350" cy="530" r="5" fill="#0084ff"/>
  
  <!-- Process Nodes (Middle) -->
  <!-- Filter Node -->
  <rect x="410" y="190" width="140" height="100" rx="5" fill="#2a2a2a" stroke="#805ad5" stroke-width="2"/>
  <rect x="410" y="190" width="140" height="25" rx="5 5 0 0" fill="#805ad5"/>
  <text x="425" y="207" font-family="Arial" font-size="12" fill="white">Filter: Core Concepts</text>
  <text x="425" y="235" font-family="Arial" font-size="10" fill="#e0e0e0">Input: Documentation</text>
  <text x="425" y="255" font-family="Arial" font-size="10" fill="#e0e0e0">Output: 720 tokens</text>
  <text x="425" y="275" font-family="Arial" font-size="10" fill="#aaa">Criteria: Relevance > 0.7</text>
  <circle cx="410" cy="230" r="5" fill="#0084ff"/>
  <circle cx="550" cy="230" r="5" fill="#0084ff"/>
  
  <!-- Merge Node -->
  <rect x="410" y="330" width="140" height="120" rx="5" fill="#2a2a2a" stroke="#6b46c1" stroke-width="2"/>
  <rect x="410" y="330" width="140" height="25" rx="5 5 0 0" fill="#6b46c1"/>
  <text x="425" y="347" font-family="Arial" font-size="12" fill="white">Merge: NLP Basics</text>
  <text x="425" y="375" font-family="Arial" font-size="10" fill="#e0e0e0">Input 1: Tokenization</text>
  <text x="425" y="395" font-family="Arial" font-size="10" fill="#e0e0e0">Input 2: Parsing</text>
  <text x="425" y="415" font-family="Arial" font-size="10" fill="#e0e0e0">Output: 1,540 tokens</text>
  <text x="425" y="435" font-family="Arial" font-size="10" fill="#aaa">Strategy: Concatenate</text>
  <circle cx="410" cy="380" r="5" fill="#0084ff"/>
  <circle cx="550" cy="380" r="5" fill="#0084ff"/>
  
  <!-- Transform Node -->
  <rect x="410" y="490" width="140" height="100" rx="5" fill="#2a2a2a" stroke="#553c9a" stroke-width="2"/>
  <rect x="410" y="490" width="140" height="25" rx="5 5 0 0" fill="#553c9a"/>
  <text x="425" y="507" font-family="Arial" font-size="12" fill="white">Transform: Summary</text>
  <text x="425" y="535" font-family="Arial" font-size="10" fill="#e0e0e0">Input: Code Examples</text>
  <text x="425" y="555" font-family="Arial" font-size="10" fill="#e0e0e0">Output: 580 tokens</text>
  <text x="425" y="575" font-family="Arial" font-size="10" fill="#aaa">Mode: Extract Core API</text>
  <circle cx="410" cy="530" r="5" fill="#0084ff"/>
  <circle cx="550" cy="530" r="5" fill="#0084ff"/>
  
  <!-- Optimize Node -->
  <rect x="610" y="330" width="140" height="120" rx="5" fill="#2a2a2a" stroke="#dd6b20" stroke-width="2"/>
  <rect x="610" y="330" width="140" height="25" rx="5 5 0 0" fill="#dd6b20"/>
  <text x="625" y="347" font-family="Arial" font-size="12" fill="white">Optimize: Complete</text>
  <text x="625" y="375" font-family="Arial" font-size="10" fill="#e0e0e0">Input 1: Filtered Docs</text>
  <text x="625" y="395" font-family="Arial" font-size="10" fill="#e0e0e0">Input 2: NLP Basics</text>
  <text x="625" y="415" font-family="Arial" font-size="10" fill="#e0e0e0">Input 3: Code Summary</text>
  <text x="625" y="435" font-family="Arial" font-size="10" fill="#aaa">Strategy: Deep Merge</text>
  <circle cx="610" cy="380" r="5" fill="#0084ff"/>
  <circle cx="750" cy="380" r="5" fill="#0084ff"/>
  
  <!-- Output Nodes (Right Side) -->
  <!-- Prompt Node -->
  <rect x="810" y="190" width="140" height="100" rx="5" fill="#2a2a2a" stroke="#38a169" stroke-width="2"/>
  <rect x="810" y="190" width="140" height="25" rx="5 5 0 0" fill="#38a169"/>
  <text x="825" y="207" font-family="Arial" font-size="12" fill="white">Prompt Template</text>
  <text x="825" y="235" font-family="Arial" font-size="10" fill="#e0e0e0">Input: Complete NLP</text>
  <text x="825" y="255" font-family="Arial" font-size="10" fill="#e0e0e0">Tokens: 2,840 / 4,000</text>
  <text x="825" y="275" font-family="Arial" font-size="10" fill="#aaa">Template: NLP Expert</text>
  <circle cx="810" cy="230" r="5" fill="#0084ff"/>
  
  <!-- Embedding Node -->
  <rect x="810" y="330" width="140" height="100" rx="5" fill="#2a2a2a" stroke="#2f855a" stroke-width="2"/>
  <rect x="810" y="330" width="140" height="25" rx="5 5 0 0" fill="#2f855a"/>
  <text x="825" y="347" font-family="Arial" font-size="12" fill="white">Vector Embedding</text>
  <text x="825" y="375" font-family="Arial" font-size="10" fill="#e0e0e0">Input: Complete NLP</text>
  <text x="825" y="395" font-family="Arial" font-size="10" fill="#e0e0e0">Dimensions: 1,536</text>
  <text x="825" y="415" font-family="Arial" font-size="10" fill="#aaa">Model: OpenAI Ada</text>
  <circle cx="810" cy="380" r="5" fill="#0084ff"/>
  
  <!-- Visualization Node -->
  <rect x="810" y="470" width="140" height="100" rx="5" fill="#2a2a2a" stroke="#9c4221" stroke-width="2"/>
  <rect x="810" y="470" width="140" height="25" rx="5 5 0 0" fill="#9c4221"/>
  <text x="825" y="487" font-family="Arial" font-size="12" fill="white">Knowledge Graph</text>
  <text x="825" y="515" font-family="Arial" font-size="10" fill="#e0e0e0">Input: Complete NLP</text>
  <text x="825" y="535" font-family="Arial" font-size="10" fill="#e0e0e0">Output: SVG</text>
  <text x="825" y="555" font-family="Arial" font-size="10" fill="#aaa">Mode: Concept Map</text>
  <circle cx="810" cy="530" r="5" fill="#0084ff"/>
  
  <!-- Connections Between Nodes -->
  <!-- Documentation to Filter -->
  <path d="M 350 230 C 370 230, 390 230, 410 230" stroke="#0084ff" stroke-width="2" fill="none"/>
  
  <!-- Tokenization to Merge -->
  <path d="M 350 330 C 370 330, 390 355, 410 380" stroke="#0084ff" stroke-width="2" fill="none"/>
  
  <!-- Parsing to Merge -->
  <path d="M 350 430 C 370 430, 390 405, 410 380" stroke="#0084ff" stroke-width="2" fill="none"/>
  
  <!-- Code Examples to Transform -->
  <path d="M 350 530 C 370 530, 390 530, 410 530" stroke="#0084ff" stroke-width="2" fill="none"/>
  
  <!-- Filter to Optimize -->
  <path d="M 550 230 C 570 230, 590 300, 610 350" stroke="#0084ff" stroke-width="2" fill="none"/>
  
  <!-- Merge to Optimize -->
  <path d="M 550 380 C 570 380, 590 380, 610 380" stroke="#0084ff" stroke-width="2" fill="none"/>
  
  <!-- Transform to Optimize -->
  <path d="M 550 530 C 570 530, 590 460, 610 410" stroke="#0084ff" stroke-width="2" fill="none"/>
  
  <!-- Optimize to Prompt -->
  <path d="M 750 360 C 770 360, 790 280, 810 230" stroke="#0084ff" stroke-width="2" fill="none"/>
  
  <!-- Optimize to Embedding -->
  <path d="M 750 380 C 770 380, 790 380, 810 380" stroke="#0084ff" stroke-width="2" fill="none"/>
  
  <!-- Optimize to Visualization -->
  <path d="M 750 400 C 770 400, 790 470, 810 530" stroke="#0084ff" stroke-width="2" fill="none"/>
  
  <!-- Output Panels -->
  <!-- Preview Panel -->
  <rect x="980" y="190" width="200" height="250" rx="5" fill="#2a2a2a"/>
  <rect x="980" y="190" width="200" height="30" rx="5 5 0 0" fill="#38a169"/>
  <text x="1080" y="210" font-family="Arial" font-size="12" fill="white" font-weight="bold" text-anchor="middle">Prompt Preview</text>
  
  <rect x="990" y="230" width="180" height="200" rx="3" fill="#1e1e1e"/>
  <text x="1000" y="250" font-family="Arial" font-size="10" fill="#e0e0e0">You are an expert in Natural</text>
  <text x="1000" y="265" font-family="Arial" font-size="10" fill="#e0e0e0">Language Processing.</text>
  <text x="1000" y="285" font-family="Arial" font-size="10" fill="#e0e0e0">NLP Pipeline concepts include:</text>
  <text x="1000" y="305" font-family="Arial" font-size="10" fill="#e0e0e0">1. Tokenization - breaking</text>
  <text x="1000" y="320" font-family="Arial" font-size="10" fill="#e0e0e0"> text into tokens...</text>
  <text x="1000" y="340" font-family="Arial" font-size="10" fill="#e0e0e0">2. Parsing - analyzing</text>
  <text x="1000" y="355" font-family="Arial" font-size="10" fill="#e0e0e0"> syntactic structure...</text>
  <text x="1000" y="375" font-family="Arial" font-size="10" fill="#e0e0e0">[Content continues...]</text>
  <text x="1000" y="410" font-family="Arial" font-size="10" fill="#38a169">Press Edit to modify template</text>
  
  <!-- Stats Panel -->
  <rect x="980" y="470" width="200" height="200" rx="5" fill="#2a2a2a"/>
  <rect x="980" y="470" width="200" height="30" rx="5 5 0 0" fill="#dd6b20"/>
  <text x="1080" y="490" font-family="Arial" font-size="12" fill="white" font-weight="bold" text-anchor="middle">Flow Statistics</text>
  
  <text x="1000" y="520" font-family="Arial" font-size="10" fill="#aaa">Source Tokens:</text>
  <text x="1150" y="520" font-family="Arial" font-size="10" fill="#e0e0e0" text-anchor="end">4,460</text>
  
  <text x="1000" y="540" font-family="Arial" font-size="10" fill="#aaa">Optimized Tokens:</text>
  <text x="1150" y="540" font-family="Arial" font-size="10" fill="#e0e0e0" text-anchor="end">2,840</text>
  
  <text x="1000" y="560" font-family="Arial" font-size="10" fill="#aaa">Compression Ratio:</text>
  <text x="1150" y="560" font-family="Arial" font-size="10" fill="#0084ff" text-anchor="end">36.3%</text>
  
  <text x="1000" y="580" font-family="Arial" font-size="10" fill="#aaa">Processing Steps:</text>
  <text x="1150" y="580" font-family="Arial" font-size="10" fill="#e0e0e0" text-anchor="end">7</text>
  
  <text x="1000" y="600" font-family="Arial" font-size="10" fill="#aaa">Est. Cost (API):</text>
  <text x="1150" y="600" font-family="Arial" font-size="10" fill="#e0e0e0" text-anchor="end">$0.0142</text>
  
  <text x="1000" y="620" font-family="Arial" font-size="10" fill="#aaa">Flow Health:</text>
  <rect x="1080" y="615" width="60" height="10" rx="5" fill="#38a169"/>
  <text x="1150" y="620" font-family="Arial" font-size="10" fill="#e0e0e0" text-anchor="end">Good</text>
  
  <rect x="1000" y="635" width="170" height="25" rx="5" fill="#0084ff"/>
  <text x="1085" y="652" font-family="Arial" font-size="12" fill="white" text-anchor="middle">Export Flow</text>
  
  <!-- Selected Node Panel -->
  <rect x="980" y="690" width="200" height="90" rx="5" fill="#553c9a" opacity="0.9"/>
  <text x="1000" y="710" font-family="Arial" font-size="10" fill="white" font-weight="bold">Selected Node: Transform</text>
  
  <text x="1000" y="730" font-family="Arial" font-size="10" fill="white">Mode:</text>
  <rect x="1040" y="720" width="130" height="20" rx="3" fill="#1e1e1e"/>
  <text x="1050" y="735" font-family="Arial" font-size="10" fill="#e0e0e0">Extract Core API</text>
  
  <text x="1000" y="755" font-family="Arial" font-size="10" fill="white">Verbosity:</text>
  <rect x="1040" y="745" width="100" height="10" rx="5" fill="#1e1e1e"/>
  <rect x="1040" y="745" width="40" height="10" rx="5" fill="#0084ff"/>
  <circle cx="1080" cy="750" r="6" fill="white" stroke="#0084ff" stroke-width="1"/>
  <text x="1150" y="755" font-family="Arial" font-size="10" fill="white" text-anchor="end">Low</text>
  
  <!-- Keyboard Shortcuts -->
  <rect x="220" y="700" width="720" height="90" rx="5" fill="#333" opacity="0.9"/>
  <text x="240" y="720" font-family="Arial" font-size="12" fill="#e0e0e0" font-weight="bold">Keyboard Shortcuts</text>
  
  <text x="240" y="740" font-family="Arial" font-size="10" fill="#aaa">F: Add Filter Node</text>
  <text x="240" y="760" font-family="Arial" font-size="10" fill="#aaa">M: Add Merge Node</text>
  <text x="240" y="780" font-family="Arial" font-size="10" fill="#aaa">T: Add Transform Node</text>
  
  <text x="360" y="740" font-family="Arial" font-size="10" fill="#aaa">O: Add Optimize Node</text>
  <text x="360" y="760" font-family="Arial" font-size="10" fill="#aaa">C: Connect Selected Nodes</text>
  <text x="360" y="780" font-family="Arial" font-size="10" fill="#aaa">Delete: Remove Node/Connection</text>
  
  <text x="520" y="740" font-family="Arial" font-size="10" fill="#aaa">Ctrl+A: Auto-Layout Flow</text>
  <text x="520" y="760" font-family="Arial" font-size="10" fill="#aaa">Ctrl+E: Export Flow</text>
  <text x="520" y="780" font-family="Arial" font-size="10" fill="#aaa">Ctrl+S: Save Flow</text>
  
  <text x="660" y="740" font-family="Arial" font-size="10" fill="#aaa">Space: Run Selected Node</text>
  <text x="660" y="760" font-family="Arial" font-size="10" fill="#aaa">R: Run Complete Flow</text>
  <text x="660" y="780" font-family="Arial" font-size="10" fill="#aaa">P: Preview Output</text>
  
  <!-- Mini-map (Bottom right corner) -->
  <rect x="1040" y="600" width="140" height="80" rx="5" fill="#333" opacity="0.7"/>
  <rect x="1045" y="623" width="130" height="52" stroke="#555" stroke-width="1" fill="none"/>
  
  <!-- Mini-map representation of the flow -->
  <circle cx="1055" cy="635" r="2" fill="#0066cc"/>
  <circle cx="1075" cy="635" r="2" fill="#805ad5"/>
  <circle cx="1055" cy="645" r="2" fill="#29a3ff"/>
  <circle cx="1055" cy="655" r="2" fill="#5ebaff"/>
  <circle cx="1075" cy="650" r="2" fill="#6b46c1"/>
  <circle cx="1055" cy="665" r="2" fill="#805ad5"/>
  <circle cx="1075" cy="665" r="2" fill="#553c9a"/>
  <circle cx="1095" cy="650" r="2" fill="#dd6b20"/>
  <circle cx="1115" cy="635" r="2" fill="#38a169"/>
  <circle cx="1115" cy="650" r="2" fill="#2f855a"/>
  <circle cx="1115" cy="665" r="2" fill="#9c4221"/>
  
  <!-- Viewport indicator -->
  <rect x="1050" cy="632" width="70" height="40" fill="none" stroke="#0084ff" stroke-width="1"/>
</svg>