<svg xmlns="http://www.w3.org/2000/svg" viewBox="0 0 1200 800">
  <!-- Dark background -->
  <rect width="1200" height="800" fill="#1a1a1a"/>
  
  <!-- Header Bar -->
  <rect x="0" y="0" width="1200" height="40" fill="#2d2d2d"/>
  <text x="20" y="25" font-family="Arial" font-size="16" fill="#e0e0e0" font-weight="bold">ContextNexus Spatial Canvas</text>
  
  <rect x="250" y="5" width="700" height="30" rx="5" fill="#3d3d3d"/>
  <text x="265" y="25" font-family="Arial" font-size="14" fill="#e0e0e0">Project: Deep Learning Architecture Design</text>
  
  <!-- View Controls -->
  <rect x="960" y="5" width="60" height="30" rx="15" fill="#3d3d3d"/>
  <text x="990" y="25" font-family="Arial" font-size="14" fill="#aaa" text-anchor="middle">2D</text>
  
  <rect x="1030" y="5" width="60" height="30" rx="15" fill="#0084ff"/>
  <text x="1060" y="25" font-family="Arial" font-size="14" fill="white" text-anchor="middle">3D</text>
  
  <rect x="1100" y="5" width="90" height="30" rx="15" fill="#3d3d3d"/>
  <text x="1145" y="25" font-family="Arial" font-size="14" fill="#aaa" text-anchor="middle">AR Mode</text>
  
  <!-- Navigation Controls -->
  <rect x="0" y="40" width="1200" height="40" fill="#2d2d2d"/>
  
  <!-- Canvas Controls -->
  <rect x="20" y="45" width="90" height="30" rx="15" fill="#0084ff"/>
  <text x="65" y="65" font-family="Arial" font-size="12" fill="white" text-anchor="middle">Pan</text>
  
  <rect x="120" y="45" width="90" height="30" rx="15" fill="#3d3d3d"/>
  <text x="165" y="65" font-family="Arial" font-size="12" fill="#aaa" text-anchor="middle">Orbit</text>
  
  <rect x="220" y="45" width="90" height="30" rx="15" fill="#3d3d3d"/>
  <text x="265" y="65" font-family="Arial" font-size="12" fill="#aaa" text-anchor="middle">Select</text>
  
  <rect x="320" y="45" width="90" height="30" rx="15" fill="#3d3d3d"/>
  <text x="365" y="65" font-family="Arial" font-size="12" fill="#aaa" text-anchor="middle">Group</text>
  
  <!-- Layer Controls -->
  <rect x="450" y="45" width="130" height="30" rx="15" fill="#3d3d3d"/>
  <text x="485" y="65" font-family="Arial" font-size="12" fill="#e0e0e0">Layers: </text>
  <text x="540" y="65" font-family="Arial" font-size="12" fill="#0084ff">All Active</text>
  
  <!-- Token Display -->
  <rect x="950" y="45" width="240" height="30" rx="15" fill="#333"/>
  <rect x="955" y="50" width="160" height="20" rx="10" fill="#444"/>
  <rect x="955" y="50" width="122" height="20" rx="10" fill="#0066cc"/>
  <text x="1025" y="65" font-family="Arial" font-size="12" fill="white">8,560 / 12,000 tokens</text>
  <text x="1140" y="65" font-family="Arial" font-size="12" fill="#0084ff">71.3%</text>
  
  <!-- Left Sidebar - Concept Library -->
  <rect x="0" y="80" width="200" height="720" fill="#2a2a2a"/>
  
  <!-- Concept Library Header -->
  <rect x="0" y="80" width="200" height="40" fill="#333"/>
  <text x="20" y="105" font-family="Arial" font-size="14" fill="#e0e0e0" font-weight="bold">Concept Library</text>
  
  <!-- Search Box -->
  <rect x="20" y="130" width="160" height="30" rx="5" fill="#444"/>
  <text x="40" y="150" font-family="Arial" font-size="12" fill="#aaa">Search concepts...</text>
  
  <!-- Concept Categories -->
  <rect x="0" y="170" width="200" height="30" fill="#333"/>
  <text x="20" y="190" font-family="Arial" font-size="12" fill="#e0e0e0" font-weight="bold">Core Concepts</text>
  
  <!-- Concept List -->
  <rect x="10" y="210" width="180" height="60" rx="5" fill="#3d3d3d"/>
  <text x="20" y="230" font-family="Arial" font-size="12" fill="#e0e0e0" font-weight="bold">Neural Network Types</text>
  <text x="20" y="250" font-family="Arial" font-size="10" fill="#aaa">CNN, RNN, Transformer...</text>
  <text x="170" y="230" font-family="Arial" font-size="10" fill="#0084ff" text-anchor="end">980 tk</text>
  
  <rect x="10" y="280" width="180" height="60" rx="5" fill="#3d3d3d"/>
  <text x="20" y="300" font-family="Arial" font-size="12" fill="#e0e0e0" font-weight="bold">Activation Functions</text>
  <text x="20" y="320" font-family="Arial" font-size="10" fill="#aaa">ReLU, Sigmoid, Tanh...</text>
  <text x="170" y="300" font-family="Arial" font-size="10" fill="#0084ff" text-anchor="end">720 tk</text>
  
  <rect x="10" y="350" width="180" height="60" rx="5" fill="#3d3d3d"/>
  <text x="20" y="370" font-family="Arial" font-size="12" fill="#e0e0e0" font-weight="bold">Loss Functions</text>
  <text x="20" y="390" font-family="Arial" font-size="10" fill="#aaa">Cross Entropy, MSE...</text>
  <text x="170" y="370" font-family="Arial" font-size="10" fill="#0084ff" text-anchor="end">850 tk</text>
  
  <!-- Second Category -->
  <rect x="0" y="420" width="200" height="30" fill="#333"/>
  <text x="20" y="440" font-family="Arial" font-size="12" fill="#e0e0e0" font-weight="bold">Implementations</text>
  
  <rect x="10" y="460" width="180" height="60" rx="5" fill="#3d3d3d"/>
  <text x="20" y="480" font-family="Arial" font-size="12" fill="#e0e0e0" font-weight="bold">TensorFlow Code</text>
  <text x="20" y="500" font-family="Arial" font-size="10" fill="#aaa">Model implementation...</text>
  <text x="170" y="480" font-family="Arial" font-size="10" fill="#0084ff" text-anchor="end">1,240 tk</text>
  
  <rect x="10" y="530" width="180" height="60" rx="5" fill="#3d3d3d"/>
  <text x="20" y="550" font-family="Arial" font-size="12" fill="#e0e0e0" font-weight="bold">PyTorch Examples</text>
  <text x="20" y="570" font-family="Arial" font-size="10" fill="#aaa">Training loops, modules...</text>
  <text x="170" y="550" font-family="Arial" font-size="10" fill="#0084ff" text-anchor="end">1,450 tk</text>
  
  <!-- Third Category -->
  <rect x="0" y="600" width="200" height="30" fill="#333"/>
  <text x="20" y="620" font-family="Arial" font-size="12" fill="#e0e0e0" font-weight="bold">Research Papers</text>
  
  <rect x="10" y="640" width="180" height="60" rx="5" fill="#3d3d3d"/>
  <text x="20" y="660" font-family="Arial" font-size="12" fill="#e0e0e0" font-weight="bold">Attention Mechanisms</text>
  <text x="20" y="680" font-family="Arial" font-size="10" fill="#aaa">Self-attention, multi-head...</text>
  <text x="170" y="660" font-family="Arial" font-size="10" fill="#0084ff" text-anchor="end">2,100 tk</text>
  
  <rect x="10" y="710" width="180" height="60" rx="5" fill="#3d3d3d"/>
  <text x="20" y="730" font-family="Arial" font-size="12" fill="#e0e0e0" font-weight="bold">Model Architectures</text>
  <text x="20" y="750" font-family="Arial" font-size="10" fill="#aaa">BERT, GPT, ResNet...</text>
  <text x="170" y="730" font-family="Arial" font-size="10" fill="#0084ff" text-anchor="end">1,820 tk</text>
  
  <!-- Main Canvas Area - 3D Spatial Environment -->
  <rect x="200" y="80" width="810" height="720" fill="#1e1e1e"/>
  
  <!-- 3D Grid Floor (perspective) -->
  <line x1="200" y1="650" x2="1010" y2="650" stroke="#2a2a2a" stroke-width="1"/>
  <line x1="300" y1="600" x2="910" y2="600" stroke="#2a2a2a" stroke-width="0.7"/>
  <line x1="400" y1="550" x2="810" y2="550" stroke="#2a2a2a" stroke-width="0.5"/>
  <line x1="500" y1="500" x2="710" y2="500" stroke="#2a2a2a" stroke-width="0.3"/>
  
  <line x1="300" y1="700" x2="300" y2="500" stroke="#2a2a2a" stroke-width="1"/>
  <line x1="400" y1="700" x2="400" y2="500" stroke="#2a2a2a" stroke-width="1"/>
  <line x1="500" y1="700" x2="500" y2="450" stroke="#2a2a2a" stroke-width="1"/>
  <line x1="600" y1="700" x2="600" y2="450" stroke="#2a2a2a" stroke-width="1"/>
  <line x1="700" y1="700" x2="700" y2="450" stroke="#2a2a2a" stroke-width="1"/>
  <line x1="800" y1="700" x2="800" y2="500" stroke="#2a2a2a" stroke-width="1"/>
  <line x1="900" y1="700" x2="900" y2="500" stroke="#2a2a2a" stroke-width="1"/>
  
  <!-- Spatial Canvas Title -->
  <text x="220" y="110" font-family="Arial" font-size="16" fill="#e0e0e0" font-weight="bold">Transformer Architecture Canvas</text>
  <text x="220" y="130" font-family="Arial" font-size="12" fill="#aaa">Spatial arrangement: closer items have stronger relationships</text>
  
  <!-- Canvas Background Elements -->
  <!-- Proximity Indicator Rings (showing active area) -->
  <circle cx="600" cy="350" r="250" fill="none" stroke="#0066cc" stroke-width="1" opacity="0.1"/>
  <circle cx="600" cy="350" r="150" fill="none" stroke="#0066cc" stroke-width="1" opacity="0.2"/>
  <circle cx="600" cy="350" r="80" fill="none" stroke="#0066cc" stroke-width="1" opacity="0.3"/>
  
  <!-- Core Concept Node (center) -->
  <circle cx="600" cy="350" r="50" fill="#0066cc" opacity="0.9"/>
  <circle cx="600" cy="350" r="45" fill="#1e293b" opacity="0.7"/>
  <text x="600" y="340" font-family="Arial" font-size="14" fill="white" font-weight="bold" text-anchor="middle">Transformer</text>
  <text x="600" y="360" font-family="Arial" font-size="12" fill="#e0e0e0" text-anchor="middle">Architecture</text>
  <text x="600" y="380" font-family="Arial" font-size="10" fill="#0084ff" text-anchor="middle">1,540 tokens</text>
  
  <!-- Connected Concept Nodes -->
  <!-- Self-Attention Node (Layer 1) -->
  <circle cx="700" cy="250" r="40" fill="#0084ff" opacity="0.8"/>
  <circle cx="700" cy="250" r="35" fill="#1e293b" opacity="0.8"/>
  <text x="700" y="245" font-family="Arial" font-size="12" fill="white" font-weight="bold" text-anchor="middle">Self-Attention</text>
  <text x="700" y="265" font-family="Arial" font-size="10" fill="#e0e0e0" text-anchor="middle">Mechanism</text>
  
  <!-- Connection Line with Weight -->
  <line x1="635" y1="320" x2="680" y2="270" stroke="#0084ff" stroke-width="3"/>
  <circle cx="655" cy="295" r="12" fill="#2a2a2a" stroke="#0084ff" stroke-width="1"/>
  <text x="655" y="300" font-family="Arial" font-size="10" fill="#0084ff" text-anchor="middle">0.9</text>
  
  <!-- Feed Forward Node (Layer 1) -->
  <circle cx="500" cy="250" r="40" fill="#0084ff" opacity="0.8"/>
  <circle cx="500" cy="250" r="35" fill="#1e293b" opacity="0.8"/>
  <text x="500" y="245" font-family="Arial" font-size="12" fill="white" font-weight="bold" text-anchor="middle">Feed</text>
  <text x="500" y="265" font-family="Arial" font-size="10" fill="#e0e0e0" text-anchor="middle">Forward</text>
  
  <!-- Connection Line with Weight -->
  <line x1="565" y1="320" x2="520" y2="270" stroke="#0084ff" stroke-width="3"/>
  <circle cx="545" cy="295" r="12" fill="#2a2a2a" stroke="#0084ff" stroke-width="1"/>
  <text x="545" y="300" font-family="Arial" font-size="10" fill="#0084ff" text-anchor="middle">0.8</text>
  
  <!-- Layer Normalization Node (Layer 1) -->
  <circle cx="600" cy="180" r="35" fill="#29a3ff" opacity="0.8"/>
  <circle cx="600" cy="180" r="30" fill="#1e293b" opacity="0.8"/>
  <text x="600" y="175" font-family="Arial" font-size="11" fill="white" font-weight="bold" text-anchor="middle">Layer</text>
  <text x="600" y="190" font-family="Arial" font-size="9" fill="#e0e0e0" text-anchor="middle">Normalization</text>
  
  <!-- Connection Lines to Layer Norm -->
  <line x1="600" y1="315" x2="600" y2="215" stroke="#29a3ff" stroke-width="1.5"/>
  <line x1="685" y1="270" x2="620" y2="200" stroke="#29a3ff" stroke-width="1.5"/>
  <line x1="515" y1="270" x2="580" y2="200" stroke="#29a3ff" stroke-width="1.5"/>
  
  <!-- Encoder Node (Layer 2) -->
  <circle cx="450" cy="380" r="40" fill="#5ebaff" opacity="0.8"/>
  <circle cx="450" cy="380" r="35" fill="#1e293b" opacity="0.8"/>
  <text x="450" y="375" font-family="Arial" font-size="12" fill="white" font-weight="bold" text-anchor="middle">Encoder</text>
  <text x="450" y="390" font-family="Arial" font-size="10" fill="#e0e0e0" text-anchor="middle">Block</text>
  
  <!-- Connection Line with Weight -->
  <line x1="560" y1="365" x2="485" y2="380" stroke="#5ebaff" stroke-width="3"/>
  <circle cx="525" cy="370" r="12" fill="#2a2a2a" stroke="#5ebaff" stroke-width="1"/>
  <text x="525" y="375" font-family="Arial" font-size="10" fill="#5ebaff" text-anchor="middle">0.9</text>
  
  <!-- Decoder Node (Layer 2) -->
  <circle cx="750" cy="380" r="40" fill="#5ebaff" opacity="0.8"/>
  <circle cx="750" cy="380" r="35" fill="#1e293b" opacity="0.8"/>
  <text x="750" y="375" font-family="Arial" font-size="12" fill="white" font-weight="bold" text-anchor="middle">Decoder</text>
  <text x="750" y="390" font-family="Arial" font-size="10" fill="#e0e0e0" text-anchor="middle">Block</text>
  
  <!-- Connection Line with Weight -->
  <line x1="640" y1="365" x2="715" y2="380" stroke="#5ebaff" stroke-width="3"/>
  <circle cx="675" cy="370" r="12" fill="#2a2a2a" stroke="#5ebaff" stroke-width="1"/>
  <text x="675" y="375" font-family="Arial" font-size="10" fill="#5ebaff" text-anchor="middle">0.9</text>
  
  <!-- Multi-Head Attention Node (Layer 2) -->
  <circle cx="800" cy="280" r="35" fill="#5ebaff" opacity="0.7"/>
  <circle cx="800" cy="280" r="30" fill="#1e293b" opacity="0.8"/>
  <text x="800" y="275" font-family="Arial" font-size="10" fill="white" font-weight="bold" text-anchor="middle">Multi-Head</text>
  <text x="800" y="290" font-family="Arial" font-size="9" fill="#e0e0e0" text-anchor="middle">Attention</text>
  
  <!-- Connection Line -->
  <line x1="730" y1="265" x2="775" y2="280" stroke="#5ebaff" stroke-width="1.5"/>
  <line x1="775" y1="350" x2="795" y2="310" stroke="#5ebaff" stroke-width="2"/>
  
  <!-- Positional Encoding Node (Layer 2) -->
  <circle cx="480" cy="450" r="35" fill="#5ebaff" opacity="0.7"/>
  <circle cx="480" cy="450" r="30" fill="#1e293b" opacity="0.8"/>
  <text x="480" y="445" font-family="Arial" font-size="10" fill="white" font-weight="bold" text-anchor="middle">Positional</text>
  <text x="480" y="460" font-family="Arial" font-size="9" fill="#e0e0e0" text-anchor="middle">Encoding</text>
  
  <!-- Connection Line -->
  <line x1="465" y1="415" x2="475" y2="430" stroke="#5ebaff" stroke-width="1.5"/>
  
  <!-- Implementation Nodes (Layer 3 - farther away) -->
  <!-- TensorFlow Implementation -->
  <rect x="650" cy="450" width="70" height="50" rx="5" fill="#805ad5" opacity="0.7"/>
  <text x="685" y="475" font-family="Arial" font-size="10" fill="white" font-weight="bold" text-anchor="middle">TensorFlow</text>
  <text x="685" y="490" font-family="Arial" font-size="8" fill="#e0e0e0" text-anchor="middle">Implementation</text>
  
  <!-- Connection Line -->
  <line x1="730" y1="415" x2="700" y2="450" stroke="#805ad5" stroke-width="1"/>
  
  <!-- PyTorch Implementation -->
  <rect x="730" cy="450" width="70" height="50" rx="5" fill="#805ad5" opacity="0.7"/>
  <text x="765" y="475" font-family="Arial" font-size="10" fill="white" font-weight="bold" text-anchor="middle">PyTorch</text>
  <text x="765" y="490" font-family="Arial" font-size="8" fill="#e0e0e0" text-anchor="middle">Implementation</text>
  
  <!-- Connection Line -->
  <line x1="750" y1="415" x2="765" y2="450" stroke="#805ad5" stroke-width="1"/>
  
  <!-- Code Snippet Node (Layer 3) -->
  <rect x="400" cy="320" width="80" height="60" rx="5" fill="#805ad5" opacity="0.6"/>
  <text x="440" y="340" font-family="Arial" font-size="9" fill="white" font-weight="bold" text-anchor="middle">Attention</text>
  <text x="440" y="355" font-family="Arial" font-size="8" fill="#e0e0e0" text-anchor="middle">Code Snippet</text>
  <text x="440" y="370" font-family="Arial" font-size="7" fill="#e0e0e0" text-anchor="middle">def attention(...)</text>
  
  <!-- Connection Line -->
  <line x1="450" y1="350" x2="435" y2="350" stroke="#805ad5" stroke-width="1"/>
  
  <!-- Research Paper Node (Layer 3) -->
  <rect x="500" cy="500" width="80" height="40" rx="5" fill="#805ad5" opacity="0.5"/>
  <text x="540" y="520" font-family="Arial" font-size="8" fill="white" font-weight="bold" text-anchor="middle">"Attention Is All</text>
  <text x="540" y="532" font-family="Arial" font-size="8" fill="white" font-weight="bold" text-anchor="middle">You Need"</text>
  
  <!-- Connection Line -->
  <line x1="570" y1="390" x2="540" y2="500" stroke="#805ad5" stroke-width="0.7"/>
  
  <!-- Example Implementation Nodes (Layer 4 - furthest) -->
  <!-- BERT Model Reference -->
  <circle cx="850" cy="420" r="30" fill="#2a2a2a" stroke="#805ad5" stroke-width="1" opacity="0.6"/>
  <text x="850" y="415" font-family="Arial" font-size="9" fill="#e0e0e0" font-weight="bold" text-anchor="middle">BERT</text>
  <text x="850" y="430" font-family="Arial" font-size="7" fill="#e0e0e0" text-anchor="middle">Related Model</text>
  
  <!-- Connection Line -->
  <line x1="780" y1="400" x2="825" y2="410" stroke="#805ad5" stroke-width="0.5" opacity="0.7"/>
  
  <!-- GPT Model Reference -->
  <circle cx="900" cy="350" r="30" fill="#2a2a2a" stroke="#805ad5" stroke-width="1" opacity="0.6"/>
  <text x="900" y="345" font-family="Arial" font-size="9" fill="#e0e0e0" font-weight="bold" text-anchor="middle">GPT</text>
  <text x="900" y="360" font-family="Arial" font-size="7" fill="#e0e0e0" text-anchor="middle">Related Model</text>
  
  <!-- Connection Line -->
  <line x1="790" y1="380" x2="875" y2="355" stroke="#805ad5" stroke-width="0.5" opacity="0.7"/>
  
  <!-- Drag and Drop Indicator (showing a node being placed) -->
  <circle cx="350" cy="220" r="35" fill="#38a169" opacity="0.8" stroke="#4fd1c5" stroke-width="2" stroke-dasharray="5,3"/>
  <circle cx="350" cy="220" r="30" fill="#1e293b" opacity="0.8"/>
  <text x="350" y="215" font-family="Arial" font-size="10" fill="white" font-weight="bold" text-anchor="middle">Embeddings</text>
  <text x="350" y="230" font-family="Arial" font-size="9" fill="#e0e0e0" text-anchor="middle">Layer</text>
  
  <!-- Connection Preview Line -->
  <line x1="350" y1="250" x2="380" y2="280" stroke="#38a169" stroke-width="1.5" stroke-dasharray="5,3"/>
  <line x1="380" y1="280" x2="410" y2="300" stroke="#38a169" stroke-width="1.5" stroke-dasharray="5,3"/>
  <line x1="410" y1="300" x2="450" y2="345" stroke="#38a169" stroke-width="1.5" stroke-dasharray="5,3"/>
  
  <!-- Proximity Suggestion (AI-generated suggestion) -->
  <circle cx="400" cy="180" r="25" fill="#dd6b20" opacity="0.5" stroke="#f6ad55" stroke-width="2" stroke-dasharray="4,2"/>
  <circle cx="400" cy="180" r="20" fill="#1e293b" opacity="0.7"/>
  <text x="400" y="178" font-family="Arial" font-size="8" fill="white" font-weight="bold" text-anchor="middle">Word</text>
  <text x="400" y="188" font-family="Arial" font-size="8" fill="#e0e0e0" text-anchor="middle">Embeddings</text>
  <text x="400" y="210" font-family="Arial" font-size="8" fill="#f6ad55" text-anchor="middle">Suggested</text>
  
  <!-- Right Info Panel -->
  <rect x="1010" y="80" width="190" height="720" fill="#2a2a2a"/>
  
  <!-- Info Panel Header -->
  <rect x="1010" y="80" width="190" height="40" fill="#333"/>
  <text x="1030" y="105" font-family="Arial" font-size="14" fill="#e0e0e0" font-weight="bold">Node Inspector</text>
  
  <!-- Selected Node Info -->
  <rect x="1020" y="130" width="170" height="160" rx="5" fill="#1e293b"/>
  <text x="1030" y="150" font-family="Arial" font-size="12" fill="#e0e0e0" font-weight="bold">Transformer Architecture</text>
  <text x="1030" y="170" font-family="Arial" font-size="10" fill="#aaa">Core concept node</text>
  
  <text x="1030" y="195" font-family="Arial" font-size="10" fill="#aaa">Token Count:</text>
  <text x="1170" y="195" font-family="Arial" font-size="10" fill="#0084ff" text-anchor="end">1,540</text>
  
  <text x="1030" y="215" font-family="Arial" font-size="10" fill="#aaa">Connections:</text>
  <text x="1170" y="215" font-family="Arial" font-size="10" fill="#e0e0e0" text-anchor="end">6 direct, 8 indirect</text>
  
  <text x="1030" y="235" font-family="Arial" font-size="10" fill="#aaa">Importance:</text>
  <rect x="1090" y="230" width="70" height="10" rx="5" fill="#333"/>
  <rect x="1090" y="230" width="63" height="10" rx="5" fill="#0084ff"/>
  <text x="1170" y="235" font-family="Arial" font-size="10" fill="#e0e0e0" text-anchor="end">90%</text>
  
  <text x="1030" y="255" font-family="Arial" font-size="10" fill="#aaa">Source:</text>
  <text x="1170" y="255" font-family="Arial" font-size="10" fill="#e0e0e0" text-anchor="end">Research Papers</text>
  
  <text x="1030" y="275" font-family="Arial" font-size="10" fill="#aaa">Last Modified:</text>
  <text x="1170" y="275" font-family="Arial" font-size="10" fill="#e0e0e0" text-anchor="end">10 min ago</text>
  
  <!-- Node Controls -->
  <rect x="1020" y="300" width="80" height="30" rx="5" fill="#0084ff"/>
  <text x="1060" y="320" font-family="Arial" font-size="12" fill="white" text-anchor="middle">Edit</text>
  
  <rect x="1110" y="300" width="80" height="30" rx="5" fill="#333"/>
  <text x="1150" y="320" font-family="Arial" font-size="12" fill="#e0e0e0" text-anchor="middle">Merge</text>
  
  <!-- Relationship Controls -->
  <rect x="1010" y="340" width="190" height="40" fill="#333"/>
  <text x="1030" y="365" font-family="Arial" font-size="12" fill="#e0e0e0" font-weight="bold">Relationships</text>
  
  <!-- Relationship List -->
  <rect x="1020" y="390" width="170" height="40" rx="5" fill="#1e293b"/>
  <text x="1030" y="405" font-family="Arial" font-size="10" fill="#e0e0e0">Self-Attention</text>
  <rect x="1120" y="395" width="60" height="10" rx="5" fill="#333"/>
  <rect x="1120" y="395" width="54" height="10" rx="5" fill="#0084ff"/>
  <text x="1170" y="405" font-family="Arial" font-size="9" fill="#e0e0e0" text-anchor="end">90%</text>
  <text x="1030" y="420" font-family="Arial" font-size="8" fill="#aaa">Connected concept</text>
  
  <rect x="1020" y="440" width="170" height="40" rx="5" fill="#1e293b"/>
  <text x="1030" y="455" font-family="Arial" font-size="10" fill="#e0e0e0">Feed Forward</text>
  <rect x="1120" y="445" width="60" height="10" rx="5" fill="#333"/>
  <rect x="1120" y="445" width="48" height="10" rx="5" fill="#0084ff"/>
  <text x="1170" y="455" font-family="Arial" font-size="9" fill="#e0e0e0" text-anchor="end">80%</text>
  <text x="1030" y="470" font-family="Arial" font-size="8" fill="#aaa">Connected concept</text>
  
  <rect x="1020" y="490" width="170" height="40" rx="5" fill="#1e293b"/>
  <text x="1030" y="505" font-family="Arial" font-size="10" fill="#e0e0e0">Encoder Block</text>
  <rect x="1120" y="495" width="60" height="10" rx="5" fill="#333"/>
  <rect x="1120" y="495" width="54" height="10" rx="5" fill="#0084ff"/>
  <text x="1170" y="505" font-family="Arial" font-size="9" fill="#e0e0e0" text-anchor="end">90%</text>
  <text x="1030" y="520" font-family="Arial" font-size="8" fill="#aaa">Implementation component</text>
  
  <rect x="1020" y="540" width="170" height="40" rx="5" fill="#1e293b"/>
  <text x="1030" y="555" font-family="Arial" font-size="10" fill="#e0e0e0">Decoder Block</text>
  <rect x="1120" y="545" width="60" height="10" rx="5" fill="#333"/>
  <rect x="1120" y="545" width="54" height="10" rx="5" fill="#0084ff"/>
  <text x="1170" y="555" font-family="Arial" font-size="9" fill="#e0e0e0" text-anchor="end">90%</text>
  <text x="1030" y="570" font-family="Arial" font-size="8" fill="#aaa">Implementation component</text>
  
  <!-- Spatial Navigation Controls -->
  <rect x="1010" y="590" width="190" height="40" fill="#333"/>
  <text x="1030" y="615" font-family="Arial" font-size="12" fill="#e0e0e0" font-weight="bold">Spatial Navigation</text>
  
  <!-- Mini-map View -->
  <rect x="1020" y="640" width="170" height="120" rx="5" fill="#1e293b"/>
  
  <!-- Mini-map Elements -->
  <!-- Central node -->
  <circle cx="1105" cy="700" r="8" fill="#0066cc"/>
  
  <!-- Connected nodes -->
  <circle cx="1130" cy="680" r="6" fill="#0084ff"/>
  <circle cx="1080" cy="680" r="6" fill="#0084ff"/>
  <circle cx="1105" cy="670" r="5" fill="#29a3ff"/>
  <circle cx="1070" cy="705" r="6" fill="#5ebaff"/>
  <circle cx="1140" cy="705" r="6" fill="#5ebaff"/>
  <circle cx="1150" cy="685" r="5" fill="#5ebaff"/>
  <circle cx="1075" cy="725" r="5" fill="#5ebaff"/>
  
  <!-- Further nodes -->
  <rect x="1125" cy="725" width="10" height="8" rx="2" fill="#805ad5"/>
  <rect x="1140" cy="725" width="10" height="8" rx="2" fill="#805ad5"/>
  <circle cx="1155" cy="715" r="4" fill="#2a2a2a" stroke="#805ad5" stroke-width="0.5"/>
  <circle cx="1165" cy="695" r="4" fill="#2a2a2a" stroke="#805ad5" stroke-width="0.5"/>
  
  <!-- Viewport indicator -->
  <rect x="1075" cy="670" width="60" height="60" fill="none" stroke="#0084ff" stroke-width="1"/>
  
  <!-- AI Assistant Panel (floating) -->
  <rect x="300" cy="600" width="250" height="150" rx="10" fill="#333" opacity="0.9"/>
  <rect x="300" cy="600" width="250" height="30" rx="10 10 0 0" fill="#38a169"/>
  <text x="320" y="620" font-family="Arial" font-size="12" fill="white" font-weight="bold">Context AI Assistant</text>
  
  <text x="320" y="650" font-family="Arial" font-size="10" fill="#e0e0e0">I notice you're building a Transformer model.</text>
  <text x="320" y="670" font-family="Arial" font-size="10" fill="#e0e0e0">Suggested additions:</text>
  
  <rect x="320" y="680" width="210" height="25" rx="5" fill="#1e293b"/>
  <text x="330" y="697" font-family="Arial" font-size="10" fill="#0084ff">+ Add Word Embeddings layer</text>
  
  <rect x="320" y="710" width="210" height="25" rx="5" fill="#1e293b"/>
  <text x="330" y="727" font-family="Arial" font-size="10" fill="#0084ff">+ Include "Attention Is All You Need" paper</text>
  
  <!-- Keyboard Shortcuts Panel -->
  <rect x="810" y="130" width="190" height="170" rx="10" fill="#333" opacity="0.7"/>
  <text x="830" y="150" font-family="Arial" font-size="12" fill="#e0e0e0" font-weight="bold">Spatial Shortcuts</text>
  
  <text x="830" y="175" font-family="Arial" font-size="10" fill="#aaa">Space: Focus on Node</text>
  <text x="830" y="195" font-family="Arial" font-size="10" fill="#aaa">Alt+Drag: Create Connection</text>
  <text x="830" y="215" font-family="Arial" font-size="10" fill="#aaa">Shift+Scroll: Zoom In/Out</text>
  <text x="830" y="235" font-family="Arial" font-size="10" fill="#aaa">Middle Click: Orbit View</text>
  <text x="830" y="255" font-family="Arial" font-size="10" fill="#aaa">Ctrl+G: Group Selected</text>
  <text x="830" y="275" font-family="Arial" font-size="10" fill="#aaa">F: Find Path Between Nodes</text>
  
  <!-- Context Building Controls -->
  <rect x="640" y="600" width="200" height="90" rx="10" fill="#0066cc" opacity="0.9"/>
  <text x="660" y="620" font-family="Arial" font-size="12" fill="white" font-weight="bold">Context Building</text>
  
  <text x="660" y="640" font-family="Arial" font-size="10" fill="white">Selected: 6 active nodes</text>
  <text x="660" y="660" font-family="Arial" font-size="10" fill="white">Token allocation: 8,560 / 12,000</text>
  
  <rect x="660" y="670" width="80" height="30" rx="5" fill="#1e293b"/>
  <text x="700" y="690" font-family="Arial" font-size="12" fill="#0084ff" text-anchor="middle">Apply</text>
  
  <rect x="750" y="670" width="80" height="30" rx="5" fill="#1e293b"/>
  <text x="790" y="690" font-family="Arial" font-size="12" fill="#0084ff" text-anchor="middle">Reset</text>
</svg>