<svg xmlns="http://www.w3.org/2000/svg" viewBox="0 0 1200 800">
  <!-- Base Dark Background -->
  <rect width="1200" height="800" fill="#0a0a12"/>
  
  <!-- Background Grid -->
  <pattern id="smallGrid" width="10" height="10" patternUnits="userSpaceOnUse">
    <path d="M 10 0 L 0 0 0 10" fill="none" stroke="#1a2040" stroke-width="0.5"/>
  </pattern>
  <rect width="1200" height="800" fill="url(#smallGrid)"/>
  
  <!-- Main Panel -->
  <rect x="20" y="20" width="1160" height="760" rx="15" fill="#101028" stroke="#3a4a6a" stroke-width="2"/>
  
  <!-- Gradients and Filters -->
  <defs>
    <linearGradient id="padGradient" x1="0%" y1="0%" x2="0%" y2="100%">
      <stop offset="0%" stop-color="#2a2a40" stop-opacity="1"/>
      <stop offset="100%" stop-color="#20203a" stop-opacity="1"/>
    </linearGradient>
    
    <linearGradient id="activePadGradient" x1="0%" y1="0%" x2="0%" y2="100%">
      <stop offset="0%" stop-color="#4a17b0" stop-opacity="1"/>
      <stop offset="100%" stop-color="#3432b8" stop-opacity="1"/>
    </linearGradient>
    
    <linearGradient id="moduleGradient" x1="0%" y1="0%" x2="0%" y2="100%">
      <stop offset="0%" stop-color="#202848" stop-opacity="1"/>
      <stop offset="100%" stop-color="#15162a" stop-opacity="1"/>
    </linearGradient>
    
    <filter id="padGlow" x="-20%" y="-20%" width="140%" height="140%">
      <feGaussianBlur stdDeviation="4" result="blur"/>
      <feComposite in="SourceGraphic" in2="blur" operator="over"/>
    </filter>
    
    <filter id="buttonGlow" x="-30%" y="-30%" width="160%" height="160%">
      <feGaussianBlur stdDeviation="2" result="blur"/>
      <feComposite in="SourceGraphic" in2="blur" operator="over"/>
    </filter>
  </defs>
  
  <!-- Top Status Bar -->
  <rect x="40" y="40" width="1120" height="30" rx="5" fill="#15162a" stroke="#3a4a6a" stroke-width="1"/>
  <text x="55" y="60" font-family="Courier, monospace" font-size="14" fill="#72c8f0" font-weight="bold">CONTEXT CONTROLLER v1.0</text>
  <text x="1120" y="60" font-family="Courier, monospace" font-size="14" fill="#72c8f0" text-anchor="end">TOKENS: 8,240/12,000 | HARMONY: 92.3% | MODE: FLOW</text>
  
  <!-- MPC-Style 4x4 Pad Matrix -->
  <rect x="40" y="90" width="310" height="310" rx="10" fill="#15162a" stroke="#3a4a6a" stroke-width="2"/>
  
  <!-- Pads: Row 1 -->
  <rect x="55" y="105" width="65" height="65" rx="5" fill="url(#padGradient)" stroke="#3a4a6a" stroke-width="1.5"/>
  <text x="87.5" y="145" font-family="Courier, monospace" font-size="12" fill="#72c8f0" text-anchor="middle">CORE</text>
  
  <rect x="130" y="105" width="65" height="65" rx="5" fill="url(#activePadGradient)" stroke="#6054e6" stroke-width="2" filter="url(#padGlow)"/>
  <text x="162.5" y="145" font-family="Courier, monospace" font-size="12" fill="#ffffff" text-anchor="middle">ARCH</text>
  
  <rect x="205" y="105" width="65" height="65" rx="5" fill="url(#padGradient)" stroke="#3a4a6a" stroke-width="1.5"/>
  <text x="237.5" y="145" font-family="Courier, monospace" font-size="12" fill="#72c8f0" text-anchor="middle">MODEL</text>
  
  <rect x="280" y="105" width="65" height="65" rx="5" fill="url(#padGradient)" stroke="#3a4a6a" stroke-width="1.5"/>
  <text x="312.5" y="145" font-family="Courier, monospace" font-size="12" fill="#72c8f0" text-anchor="middle">GRAPH</text>
  
  <!-- Pads: Row 2 -->
  <rect x="55" y="180" width="65" height="65" rx="5" fill="url(#padGradient)" stroke="#3a4a6a" stroke-width="1.5"/>
  <text x="87.5" y="220" font-family="Courier, monospace" font-size="12" fill="#72c8f0" text-anchor="middle">CODE</text>
  
  <rect x="130" y="180" width="65" height="65" rx="5" fill="url(#padGradient)" stroke="#3a4a6a" stroke-width="1.5"/>
  <text x="162.5" y="220" font-family="Courier, monospace" font-size="12" fill="#72c8f0" text-anchor="middle">FLOW</text>
  
  <rect x="205" y="180" width="65" height="65" rx="5" fill="url(#activePadGradient)" stroke="#6054e6" stroke-width="2" filter="url(#padGlow)"/>
  <text x="237.5" y="220" font-family="Courier, monospace" font-size="12" fill="#ffffff" text-anchor="middle">IMPL</text>
  
  <rect x="280" y="180" width="65" height="65" rx="5" fill="url(#padGradient)" stroke="#3a4a6a" stroke-width="1.5"/>
  <text x="312.5" y="220" font-family="Courier, monospace" font-size="12" fill="#72c8f0" text-anchor="middle">PIPE</text>
  
  <!-- Pads: Row 3 -->
  <rect x="55" y="255" width="65" height="65" rx="5" fill="url(#padGradient)" stroke="#3a4a6a" stroke-width="1.5"/>
  <text x="87.5" y="295" font-family="Courier, monospace" font-size="12" fill="#72c8f0" text-anchor="middle">DOCS</text>
  
  <rect x="130" y="255" width="65" height="65" rx="5" fill="url(#padGradient)" stroke="#3a4a6a" stroke-width="1.5"/>
  <text x="162.5" y="295" font-family="Courier, monospace" font-size="12" fill="#72c8f0" text-anchor="middle">DATA</text>
  
  <rect x="205" y="255" width="65" height="65" rx="5" fill="url(#padGradient)" stroke="#3a4a6a" stroke-width="1.5"/>
  <text x="237.5" y="295" font-family="Courier, monospace" font-size="12" fill="#72c8f0" text-anchor="middle">EVAL</text>
  
  <rect x="280" y="255" width="65" height="65" rx="5" fill="url(#padGradient)" stroke="#3a4a6a" stroke-width="1.5"/>
  <text x="312.5" y="295" font-family="Courier, monospace" font-size="12" fill="#72c8f0" text-anchor="middle">VIZ</text>
  
  <!-- Pads: Row 4 -->
  <rect x="55" y="330" width="65" height="65" rx="5" fill="url(#padGradient)" stroke="#3a4a6a" stroke-width="1.5"/>
  <text x="87.5" y="370" font-family="Courier, monospace" font-size="12" fill="#72c8f0" text-anchor="middle">MERGE</text>
  
  <rect x="130" y="330" width="65" height="65" rx="5" fill="url(#padGradient)" stroke="#3a4a6a" stroke-width="1.5"/>
  <text x="162.5" y="370" font-family="Courier, monospace" font-size="12" fill="#72c8f0" text-anchor="middle">SPLIT</text>
  
  <rect x="205" y="330" width="65" height="65" rx="5" fill="url(#padGradient)" stroke="#3a4a6a" stroke-width="1.5"/>
  <text x="237.5" y="370" font-family="Courier, monospace" font-size="12" fill="#72c8f0" text-anchor="middle">TRIM</text>
  
  <rect x="280" y="330" width="65" height="65" rx="5" fill="url(#activePadGradient)" stroke="#6054e6" stroke-width="2" filter="url(#padGlow)"/>
  <text x="312.5" y="370" font-family="Courier, monospace" font-size="12" fill="#ffffff" text-anchor="middle">SYNC</text>
  
  <!-- Mode Selectors -->
  <rect x="40" y="410" width="310" height="50" rx="5" fill="#15162a" stroke="#3a4a6a" stroke-width="1"/>
  
  <rect x="50" y="420" width="70" height="30" rx="15" fill="#4a17b0" stroke="#6054e6" stroke-width="1.5" filter="url(#buttonGlow)"/>
  <text x="85" y="440" font-family="Courier, monospace" font-size="12" fill="#ffffff" text-anchor="middle">SELECT</text>
  
  <rect x="130" y="420" width="70" height="30" rx="15" fill="#202848" stroke="#3a4a6a" stroke-width="1"/>
  <text x="165" y="440" font-family="Courier, monospace" font-size="12" fill="#72c8f0" text-anchor="middle">FLOW</text>
  
  <rect x="210" y="420" width="70" height="30" rx="15" fill="#202848" stroke="#3a4a6a" stroke-width="1"/>
  <text x="245" y="440" font-family="Courier, monospace" font-size="12" fill="#72c8f0" text-anchor="middle">CHAIN</text>
  
  <rect x="290" y="420" width="50" height="30" rx="15" fill="#202848" stroke="#3a4a6a" stroke-width="1"/>
  <text x="315" y="440" font-family="Courier, monospace" font-size="12" fill="#72c8f0" text-anchor="middle">3D</text>
  
  <!-- Pattern Memory Module -->
  <rect x="40" y="470" width="310" height="130" rx="10" fill="url(#moduleGradient)" stroke="#3a4a6a" stroke-width="2"/>
  <text x="55" y="490" font-family="Courier, monospace" font-size="12" fill="#72c8f0" font-weight="bold">PATTERN MEMORY</text>
  
  <!-- Pattern Banks -->
  <rect x="50" y="500" width="290" height="90" rx="5" fill="#101028" stroke="#3a4a6a" stroke-width="1"/>
  
  <rect x="60" y="510" width="60" height="30" rx="5" fill="#202848" stroke="#3a4a6a" stroke-width="1"/>
  <text x="90" y="530" font-family="Courier, monospace" font-size="10" fill="#72c8f0" text-anchor="middle">A1:ML</text>
  
  <rect x="130" y="510" width="60" height="30" rx="5" fill="#4a17b0" stroke="#6054e6" stroke-width="1.5"/>
  <text x="160" y="530" font-family="Courier, monospace" font-size="10" fill="#ffffff" text-anchor="middle">A2:TRNS</text>
  
  <rect x="200" y="510" width="60" height="30" rx="5" fill="#202848" stroke="#3a4a6a" stroke-width="1"/>
  <text x="230" y="530" font-family="Courier, monospace" font-size="10" fill="#72c8f0" text-anchor="middle">A3:CNN</text>
  
  <rect x="270" y="510" width="60" height="30" rx="5" fill="#202848" stroke="#3a4a6a" stroke-width="1"/>
  <text x="300" y="530" font-family="Courier, monospace" font-size="10" fill="#72c8f0" text-anchor="middle">A4:RNN</text>
  
  <rect x="60" y="550" width="60" height="30" rx="5" fill="#202848" stroke="#3a4a6a" stroke-width="1"/>
  <text x="90" y="570" font-family="Courier, monospace" font-size="10" fill="#72c8f0" text-anchor="middle">B1:ATTN</text>
  
  <rect x="130" y="550" width="60" height="30" rx="5" fill="#202848" stroke="#3a4a6a" stroke-width="1"/>
  <text x="160" y="570" font-family="Courier, monospace" font-size="10" fill="#72c8f0" text-anchor="middle">B2:GPT</text>
  
  <rect x="200" y="550" width="60" height="30" rx="5" fill="#202848" stroke="#3a4a6a" stroke-width="1"/>
  <text x="230" y="570" font-family="Courier, monospace" font-size="10" fill="#72c8f0" text-anchor="middle">B3:BERT</text>
  
  <rect x="270" y="550" width="60" height="30" rx="5" fill="#202848" stroke="#3a4a6a" stroke-width="1"/>
  <text x="300" y="570" font-family="Courier, monospace" font-size="10" fill="#72c8f0" text-anchor="middle">B4:PEFT</text>
  
  <!-- Main Context Visualization Module -->
  <rect x="40" y="610" width="310" height="160" rx="10" fill="url(#moduleGradient)" stroke="#3a4a6a" stroke-width="2"/>
  <text x="55" y="630" font-family="Courier, monospace" font-size="12" fill="#72c8f0" font-weight="bold">CONTEXT FLOW</text>
  
  <!-- Visualization Area -->
  <rect x="50" y="640" width="290" height="120" rx="5" fill="#101028" stroke="#3a4a6a" stroke-width="1"/>
  
  <!-- Flow Visualization -->
  <circle cx="90" cy="680" r="15" fill="#4a17b0" opacity="0.8"/>
  <text x="90" y="684" font-family="Courier, monospace" font-size="9" fill="#ffffff" text-anchor="middle">ARCH</text>
  
  <circle cx="170" cy="660" r="12" fill="#6054e6" opacity="0.8"/>
  <text x="170" y="664" font-family="Courier, monospace" font-size="8" fill="#ffffff" text-anchor="middle">IMPL</text>
  
  <circle cx="230" cy="700" r="12" fill="#3432b8" opacity="0.8"/>
  <text x="230" y="704" font-family="Courier, monospace" font-size="8" fill="#ffffff" text-anchor="middle">SYNC</text>
  
  <circle cx="300" cy="680" r="10" fill="#08b2e3" opacity="0.8"/>
  <text x="300" y="684" font-family="Courier, monospace" font-size="7" fill="#ffffff" text-anchor="middle">API</text>
  
  <!-- Connection Lines -->
  <line x1="105" y1="680" x2="158" y2="660" stroke="#6054e6" stroke-width="2" opacity="0.7"/>
  <line x1="182" y1="660" x2="218" y2="700" stroke="#6054e6" stroke-width="2" opacity="0.7"/>
  <line x1="242" y1="700" x2="290" y2="680" stroke="#6054e6" stroke-width="2" opacity="0.7"/>
  
  <!-- Main Content Module -->
  <rect x="370" y="90" width="500" height="680" rx="10" fill="url(#moduleGradient)" stroke="#3a4a6a" stroke-width="2"/>
  <text x="385" y="110" font-family="Courier, monospace" font-size="12" fill="#72c8f0" font-weight="bold">TRANSFORMER ARCHITECTURE</text>
  
  <!-- Content View Tabs -->
  <rect x="500" y="95" width="360" height="20" rx="5" fill="#101028" stroke="#3a4a6a" stroke-width="1"/>
  
  <rect x="505" y="95" width="80" height="20" rx="5" fill="#4a17b0" stroke="#6054e6" stroke-width="1"/>
  <text x="545" y="110" font-family="Courier, monospace" font-size="10" fill="#ffffff" text-anchor="middle">STRUCTURE</text>
  
  <rect x="590" y="95" width="90" height="20" rx="5" fill="#101028" stroke="none"/>
  <text x="635" y="110" font-family="Courier, monospace" font-size="10" fill="#72c8f0" text-anchor="middle">COMPONENTS</text>
  
  <rect x="685" y="95" width="90" height="20" rx="5" fill="#101028" stroke="none"/>
  <text x="730" y="110" font-family="Courier, monospace" font-size="10" fill="#72c8f0" text-anchor="middle">IMPLEMENTATION</text>
  
  <rect x="780" y="95" width="75" height="20" rx="5" fill="#101028" stroke="none"/>
  <text x="817" y="110" font-family="Courier, monospace" font-size="10" fill="#72c8f0" text-anchor="middle">CODE</text>
  
  <!-- Main Content Display -->
  <rect x="380" y="125" width="480" height="635" rx="5" fill="#101028" stroke="#3a4a6a" stroke-width="1"/>
  
  <!-- Transformer Architecture Diagram -->
  <!-- Input -->
  <rect x="490" y="150" width="260" height="30" rx="5" fill="#202848" stroke="#3a4a6a" stroke-width="1"/>
  <text x="620" y="170" font-family="Courier, monospace" font-size="12" fill="#72c8f0" text-anchor="middle">INPUT EMBEDDING</text>
  
  <!-- Positional Encoding -->
  <rect x="490" y="190" width="260" height="30" rx="5" fill="#202848" stroke="#3a4a6a" stroke-width="1"/>
  <text x="620" y="210" font-family="Courier, monospace" font-size="12" fill="#72c8f0" text-anchor="middle">POSITIONAL ENCODING</text>
  
  <!-- Encoder Stack -->
  <rect x="430" y="240" width="170" height="240" rx="5" fill="#15162a" stroke="#6054e6" stroke-width="1.5"/>
  <text x="515" y="260" font-family="Courier, monospace" font-size="12" fill="#72c8f0" text-anchor="middle">ENCODER STACK</text>
  
  <!-- Multi-Head Attention -->
  <rect x="440" y="280" width="150" height="40" rx="5" fill="#202848" stroke="#3a4a6a" stroke-width="1"/>
  <text x="515" y="305" font-family="Courier, monospace" font-size="10" fill="#08b2e3" text-anchor="middle">MULTI-HEAD ATTENTION</text>
  
  <!-- Add and Norm -->
  <rect x="440" y="330" width="150" height="30" rx="5" fill="#202848" stroke="#3a4a6a" stroke-width="1"/>
  <text x="515" y="350" font-family="Courier, monospace" font-size="10" fill="#72c8f0" text-anchor="middle">ADD and NORM</text>
  
  <!-- Feed Forward -->
  <rect x="440" y="370" width="150" height="40" rx="5" fill="#202848" stroke="#3a4a6a" stroke-width="1"/>
  <text x="515" y="395" font-family="Courier, monospace" font-size="10" fill="#08b2e3" text-anchor="middle">FEED FORWARD NETWORK</text>
  
  <!-- Add and Norm -->
  <rect x="440" y="420" width="150" height="30" rx="5" fill="#202848" stroke="#3a4a6a" stroke-width="1"/>
  <text x="515" y="440" font-family="Courier, monospace" font-size="10" fill="#72c8f0" text-anchor="middle">ADD and NORM</text>
  
  <!-- Nx indicator -->
  <text x="515" y="470" font-family="Courier, monospace" font-size="12" fill="#72c8f0" text-anchor="middle">Nx</text>
  
  <!-- Decoder Stack -->
  <rect x="640" y="240" width="170" height="340" rx="5" fill="#15162a" stroke="#6054e6" stroke-width="1.5"/>
  <text x="725" y="260" font-family="Courier, monospace" font-size="12" fill="#72c8f0" text-anchor="middle">DECODER STACK</text>
  
  <!-- Multi-Head Attention 1 -->
  <rect x="650" y="280" width="150" height="40" rx="5" fill="#202848" stroke="#3a4a6a" stroke-width="1"/>
  <text x="725" y="305" font-family="Courier, monospace" font-size="10" fill="#08b2e3" text-anchor="middle">MULTI-HEAD ATTENTION</text>
  
  <!-- Add and Norm 1 -->
  <rect x="650" y="330" width="150" height="30" rx="5" fill="#202848" stroke="#3a4a6a" stroke-width="1"/>
  <text x="725" y="350" font-family="Courier, monospace" font-size="10" fill="#72c8f0" text-anchor="middle">ADD and NORM</text>
  
  <!-- Multi-Head Attention 2 -->
  <rect x="650" y="370" width="150" height="40" rx="5" fill="#4a17b0" stroke="#6054e6" stroke-width="1.5"/>
  <text x="725" y="395" font-family="Courier, monospace" font-size="10" fill="#ffffff" text-anchor="middle">MULTI-HEAD ATTENTION</text>
  
  <!-- Add and Norm 2 -->
  <rect x="650" y="420" width="150" height="30" rx="5" fill="#202848" stroke="#3a4a6a" stroke-width="1"/>
  <text x="725" y="440" font-family="Courier, monospace" font-size="10" fill="#72c8f0" text-anchor="middle">ADD and NORM</text>
  
  <!-- Feed Forward -->
  <rect x="650" y="460" width="150" height="40" rx="5" fill="#202848" stroke="#3a4a6a" stroke-width="1"/>
  <text x="725" y="485" font-family="Courier, monospace" font-size="10" fill="#08b2e3" text-anchor="middle">FEED FORWARD NETWORK</text>
  
  <!-- Add and Norm 3 -->
  <rect x="650" y="510" width="150" height="30" rx="5" fill="#202848" stroke="#3a4a6a" stroke-width="1"/>
  <text x="725" y="530" font-family="Courier, monospace" font-size="10" fill="#72c8f0" text-anchor="middle">ADD and NORM</text>
  
  <!-- Nx indicator -->
  <text x="725" y="560" font-family="Courier, monospace" font-size="12" fill="#72c8f0" text-anchor="middle">Nx</text>
  
  <!-- Output -->
  <rect x="490" y="600" width="260" height="30" rx="5" fill="#202848" stroke="#3a4a6a" stroke-width="1"/>
  <text x="620" y="620" font-family="Courier, monospace" font-size="12" fill="#72c8f0" text-anchor="middle">LINEAR</text>
  
  <rect x="490" y="640" width="260" height="30" rx="5" fill="#202848" stroke="#3a4a6a" stroke-width="1"/>
  <text x="620" y="660" font-family="Courier, monospace" font-size="12" fill="#72c8f0" text-anchor="middle">SOFTMAX</text>
  
  <rect x="490" y="680" width="260" height="30" rx="5" fill="#202848" stroke="#3a4a6a" stroke-width="1"/>
  <text x="620" y="700" font-family="Courier, monospace" font-size="12" fill="#72c8f0" text-anchor="middle">OUTPUT</text>
  
  <!-- Connector Lines -->
  <line x1="620" y1="180" x2="620" y2="190" stroke="#6054e6" stroke-width="1"/>
  <line x1="620" y1="220" x2="620" y2="235" stroke="#6054e6" stroke-width="1"/>
  <line x1="620" y1="235" x2="515" y2="235" stroke="#6054e6" stroke-width="1"/>
  <line x1="620" y1="235" x2="725" y2="235" stroke="#6054e6" stroke-width="1"/>
  <line x1="515" y1="235" x2="515" y2="270" stroke="#6054e6" stroke-width="1"/>
  <line x1="725" y1="235" x2="725" y2="270" stroke="#6054e6" stroke-width="1"/>
  <line x1="515" y1="480" x2="515" y2="600" stroke="#6054e6" stroke-width="1"/>
  <line x1="725" y1="570" x2="725" y2="600" stroke="#6054e6" stroke-width="1"/>
  <line x1="620" y1="630" x2="620" y2="640" stroke="#6054e6" stroke-width="1"/>
  <line x1="620" y1="670" x2="620" y2="680" stroke="#6054e6" stroke-width="1"/>
  
  <!-- Cross-Attention Lines -->
  <line x1="600" y1="385" x2="650" y2="385" stroke="#08b2e3" stroke-width="1.5" stroke-dasharray="5,3"/>
  
  <!-- Token Tracking Module -->
  <rect x="890" y="90" width="270" height="210" rx="10" fill="url(#moduleGradient)" stroke="#3a4a6a" stroke-width="2"/>
  <text x="905" y="110" font-family="Courier, monospace" font-size="12" fill="#72c8f0" font-weight="bold">TOKEN ALLOCATION</text>
  
  <!-- Token Allocation Visualization -->
  <rect x="900" y="120" width="250" height="170" rx="5" fill="#101028" stroke="#3a4a6a" stroke-width="1"/>
  
  <!-- Component Allocations -->
  <text x="910" y="140" font-family="Courier, monospace" font-size="10" fill="#72c8f0">ARCHITECTURE:</text>
  <rect x="1010" y="130" width="130" height="15" rx="7.5" fill="#15162a" stroke="#3a4a6a" stroke-width="1"/>
  <rect x="1010" y="130" width="85" height="15" rx="7.5" fill="#4a17b0" opacity="0.7"/>
  <text x="1105" y="140" font-family="Courier, monospace" font-size="8" fill="#ffffff" text-anchor="end">2,100</text>
  
  <text x="910" y="165" font-family="Courier, monospace" font-size="10" fill="#72c8f0">IMPLEMENTATION:</text>
  <rect x="1010" y="155" width="130" height="15" rx="7.5" fill="#15162a" stroke="#3a4a6a" stroke-width="1"/>
  <rect x="1010" y="155" width="65" height="15" rx="7.5" fill="#4a17b0" opacity="0.7"/>
  <text x="1075" y="165" font-family="Courier, monospace" font-size="8" fill="#ffffff" text-anchor="end">1,620</text>
  
  <text x="910" y="190" font-family="Courier, monospace" font-size="10" fill="#72c8f0">CODE SNIPPETS:</text>
  <rect x="1010" y="180" width="130" height="15" rx="7.5" fill="#15162a" stroke="#3a4a6a" stroke-width="1"/>
  <rect x="1010" y="180" width="110" height="15" rx="7.5" fill="#4a17b0" opacity="0.7"/>
  <text x="1120" y="190" font-family="Courier, monospace" font-size="8" fill="#ffffff" text-anchor="end">2,750</text>
  
  <text x="910" y="215" font-family="Courier, monospace" font-size="10" fill="#72c8f0">REFERENCES:</text>
  <rect x="1010" y="205" width="130" height="15" rx="7.5" fill="#15162a" stroke="#3a4a6a" stroke-width="1"/>
  <rect x="1010" y="205" width="47" height="15" rx="7.5" fill="#4a17b0" opacity="0.7"/>
  <text x="1057" y="215" font-family="Courier, monospace" font-size="8" fill="#ffffff" text-anchor="end">1,180</text>
  
  <text x="910" y="240" font-family="Courier, monospace" font-size="10" fill="#72c8f0">EXAMPLES:</text>
  <rect x="1010" y="230" width="130" height="15" rx="7.5" fill="#15162a" stroke="#3a4a6a" stroke-width="1"/>
  <rect x="1010" y="230" width="25" height="15" rx="7.5" fill="#4a17b0" opacity="0.7"/>
  <text x="1035" y="240" font-family="Courier, monospace" font-size="8" fill="#ffffff" text-anchor="end">590</text>
  
  <text x="910" y="265" font-family="Courier, monospace" font-size="10" fill="#72c8f0">AVAILABLE:</text>
  <rect x="1010" y="255" width="130" height="15" rx="7.5" fill="#15162a" stroke="#3a4a6a" stroke-width="1"/>
  <rect x="1010" y="255" width="117" height="15" rx="7.5" fill="#08b2e3" opacity="0.6"/>
  <text x="1127" y="265" font-family="Courier, monospace" font-size="8" fill="#ffffff" text-anchor="end">3,760</text>
  
  <!-- Node Navigation Module -->
  <rect x="890" y="310" width="270" height="230" rx="10" fill="url(#moduleGradient)" stroke="#3a4a6a" stroke-width="2"/>
  <text x="905" y="330" font-family="Courier, monospace" font-size="12" fill="#72c8f0" font-weight="bold">NODE NAVIGATOR</text>
  
  <!-- Navigation Tree -->
  <rect x="900" y="340" width="250" height="190" rx="5" fill="#101028" stroke="#3a4a6a" stroke-width="1"/>
  
  <!-- Tree Structure -->
  <text x="910" y="360" font-family="Courier, monospace" font-size="10" fill="#b6e3fa">● TRANSFORMERS</text>
  <text x="925" y="380" font-family="Courier, monospace" font-size="10" fill="#6054e6">├─ ▶ ARCHITECTURE</text>
  <text x="940" y="400" font-family="Courier, monospace" font-size="10" fill="#ffffff">│  ├─ ATTENTION</text>
  <text x="940" y="420" font-family="Courier, monospace" font-size="10" fill="#72c8f0">│  ├─ ENCODER</text>
  <text x="940" y="440" font-family="Courier, monospace" font-size="10" fill="#72c8f0">│  └─ DECODER</text>
  <text x="925" y="460" font-family="Courier, monospace" font-size="10" fill="#6054e6">├─ ▶ IMPLEMENTATION</text>
  <text x="940" y="480" font-family="Courier, monospace" font-size="10" fill="#ffffff">│  ├─ PYTORCH</text>
  <text x="940" y="500" font-family="Courier, monospace" font-size="10" fill="#72c8f0">│  └─ TENSORFLOW</text>
  <text x="925" y="520" font-family="Courier, monospace" font-size="10" fill="#72c8f0">└─ APPLICATIONS</text>
  
  <!-- Selection indicator -->
  <rect x="940" y="398" width="120" height="14" rx="2" fill="#4a17b0" opacity="0.3"/>
  <rect x="940" y="478" width="120" height="14" rx="2" fill="#4a17b0" opacity="0.3"/>
  
  <!-- Context Coherence Module -->
  <rect x="890" y="550" width="270" height="220" rx="10" fill="url(#moduleGradient)" stroke="#3a4a6a" stroke-width="2"/>
  <text x="905" y="570" font-family="Courier, monospace" font-size="12" fill="#72c8f0" font-weight="bold">CONTEXT COHERENCE</text>
  
  <!-- Coherence Visualization -->
  <rect x="900" y="580" width="250" height="180" rx="5" fill="#101028" stroke="#3a4a6a" stroke-width="1"/>
  
  <!-- Connection Graph -->
  <!-- Architecture Node -->
  <circle cx="950" cy="640" r="25" fill="#4a17b0" opacity="0.7"/>
  <text x="950" y="644" font-family="Courier, monospace" font-size="9" fill="#ffffff" text-anchor="middle">ARCH</text>
  
  <!-- Implementation Node -->
  <circle cx="1050" cy="660" r="25" fill="#6054e6" opacity="0.7"/>
  <text x="1050" y="664" font-family="Courier, monospace" font-size="9" fill="#ffffff" text-anchor="middle">IMPL</text>
  
  <!-- Sync Node -->
  <circle cx="1100" cy="720" r="20" fill="#3432b8" opacity="0.7"/>
  <text x="1100" y="724" font-family="Courier, monospace" font-size="8" fill="#ffffff" text-anchor="middle">SYNC</text>
  
  <!-- PyTorch Node -->
  <circle cx="980" cy="700" r="18" fill="#08b2e3" opacity="0.7"/>
  <text x="980" y="704" font-family="Courier, monospace" font-size="7" fill="#ffffff" text-anchor="middle">PYTORCH</text>
  
  <!-- TensorFlow Node -->
  <circle cx="1050" cy="740" r="18" fill="#08b2e3" opacity="0.7"/>
  <text x="1050" y="744" font-family="Courier, monospace" font-size="7" fill="#ffffff" text-anchor="middle">TF</text>
  
  <!-- Connection Lines -->
  <line x1="950" y1="665" x2="980" y2="682" stroke="#6054e6" stroke-width="2" opacity="0.6"/>
  <line x1="980" y1="718" x2="1050" y2="740" stroke="#6054e6" stroke-width="2" opacity="0.6"/>
  <line x1="1050" y1="685" x2="980" y2="700" stroke="#6054e6" stroke-width="2" opacity="0.6"/>
  <line x1="1050" y1="685" x2="1100" y2="700" stroke="#6054e6" stroke-width="2" opacity="0.6"/>
  <line x1="1050" y1="740" x2="1100" y2="720" stroke="#6054e6" stroke-width="2" opacity="0.6"/>
  <line x1="950" y1="665" x2="1050" y2="740" stroke="#6054e6" stroke-width="1" opacity="0.3"/>
  
  <!-- Coherence Metrics -->
  <text x="910" y="600" font-family="Courier, monospace" font-size="8" fill="#72c8f0">HARMONY: 94.2%</text>
  <text x="1050" y="600" font-family="Courier, monospace" font-size="8" fill="#72c8f0">CONNECTIVITY: 87.6%</text>
  <text x="910" y="615" font-family="Courier, monospace" font-size="8" fill="#72c8f0">RELEVANCE: 92.3%</text>
  <text x="1050" y="615" font-family="Courier, monospace" font-size="8" fill="#72c8f0">FLOW: FAST</text>
  
  <!-- Shortcuts Display -->
  <rect x="40" y="780" width="1120" height="20" rx="0" fill="none" stroke="none"/>
  <text x="60" y="790" font-family="Courier, monospace" font-size="8" fill="#72c8f0">SHIFT+TAP: SELECT PAD • CTRL+PAD: SOLO • ALT+PAD: LINK • [BANK]+PAD: PATTERN • NUM+SHIFT: NAVIGATE • WHEEL: SCROLL • CTRL+WHEEL: ZOOM</text>
  <text x="1100" y="790" font-family="Courier, monospace" font-size="8" fill="#72c8f0" text-anchor="end">CTRL+S: SAVE CONTEXT</text>
</svg>