<svg xmlns="http://www.w3.org/2000/svg" viewBox="0 0 1200 800" width="1200" height="800">
  <!-- Definitions for gradients, patterns and filters -->
  <defs>
    <!-- Main background gradient -->
    <linearGradient id="bgGradient" x1="0%" y1="0%" x2="0%" y2="100%">
      <stop offset="0%" stop-color="#0f172a" />
      <stop offset="100%" stop-color="#1e293b" />
    </linearGradient>
    
    <!-- Murmuration space gradient -->
    <linearGradient id="murmurantionSpaceGradient" x1="0%" y1="0%" x2="0%" y2="100%">
      <stop offset="0%" stop-color="#1e293b" />
      <stop offset="100%" stop-color="#0f172a" />
    </linearGradient>
    
    <!-- Primary boid gradient -->
    <radialGradient id="primaryBoidGradient" cx="50%" cy="50%" r="50%" fx="50%" fy="50%">
      <stop offset="0%" stop-color="#eab308" stop-opacity="0.9" />
      <stop offset="100%" stop-color="#a16207" stop-opacity="0.6" />
    </radialGradient>
    
    <!-- Secondary boid gradient -->
    <radialGradient id="secondaryBoidGradient" cx="50%" cy="50%" r="50%" fx="50%" fy="50%">
      <stop offset="0%" stop-color="#3b82f6" stop-opacity="0.9" />
      <stop offset="100%" stop-color="#1d4ed8" stop-opacity="0.6" />
    </radialGradient>
    
    <!-- Tertiary boid gradient -->
    <radialGradient id="tertiaryBoidGradient" cx="50%" cy="50%" r="50%" fx="50%" fy="50%">
      <stop offset="0%" stop-color="#ef4444" stop-opacity="0.9" />
      <stop offset="100%" stop-color="#b91c1c" stop-opacity="0.6" />
    </radialGradient>
    
    <!-- Quaternary boid gradient -->
    <radialGradient id="quaternaryBoidGradient" cx="50%" cy="50%" r="50%" fx="50%" fy="50%">
      <stop offset="0%" stop-color="#14b8a6" stop-opacity="0.9" />
      <stop offset="100%" stop-color="#0f766e" stop-opacity="0.6" />
    </radialGradient>
    
    <!-- Flow line gradient -->
    <linearGradient id="flowLineGradient" x1="0%" y1="0%" x2="100%" y2="0%">
      <stop offset="0%" stop-color="#475569" stop-opacity="0.1" />
      <stop offset="50%" stop-color="#64748b" stop-opacity="0.3" />
      <stop offset="100%" stop-color="#475569" stop-opacity="0.1" />
    </linearGradient>
    
    <!-- Attractor gradient -->
    <radialGradient id="attractorGradient" cx="50%" cy="50%" r="70%" fx="50%" fy="50%">
      <stop offset="0%" stop-color="#a855f7" stop-opacity="0.9" />
      <stop offset="100%" stop-color="#7e22ce" stop-opacity="0" />
    </radialGradient>
    
    <!-- Panel gradient -->
    <linearGradient id="panelGradient" x1="0%" y1="0%" x2="0%" y2="100%">
      <stop offset="0%" stop-color="#1e293b" />
      <stop offset="100%" stop-color="#0f172a" />
    </linearGradient>
    
    <!-- Button gradient -->
    <linearGradient id="buttonGradient" x1="0%" y1="0%" x2="0%" y2="100%">
      <stop offset="0%" stop-color="#334155" />
      <stop offset="100%" stop-color="#1e293b" />
    </linearGradient>
    
    <!-- Active button gradient -->
    <linearGradient id="activeButtonGradient" x1="0%" y1="0%" x2="0%" y2="100%">
      <stop offset="0%" stop-color="#6366f1" />
      <stop offset="100%" stop-color="#4f46e5" />
    </linearGradient>
    
    <!-- Chart gradient -->
    <linearGradient id="chartGradient" x1="0%" y1="0%" x2="0%" y2="100%">
      <stop offset="0%" stop-color="#6366f1" stop-opacity="0.7" />
      <stop offset="100%" stop-color="#6366f1" stop-opacity="0.1" />
    </linearGradient>
    
    <!-- Density map gradient -->
    <linearGradient id="densityGradient" x1="0%" y1="0%" x2="0%" y2="100%">
      <stop offset="0%" stop-color="#f97316" stop-opacity="0.8" />
      <stop offset="50%" stop-color="#eab308" stop-opacity="0.5" />
      <stop offset="100%" stop-color="#22c55e" stop-opacity="0.2" />
    </linearGradient>
    
    <!-- Focus glow filter -->
    <filter id="focusGlow" x="-20%" y="-20%" width="140%" height="140%">
      <feGaussianBlur in="SourceAlpha" stdDeviation="2" result="blur" />
      <feFlood flood-color="#818cf8" flood-opacity="0.8" result="color" />
      <feComposite in="color" in2="blur" operator="in" result="glow" />
      <feBlend in="SourceGraphic" in2="glow" mode="screen" />
    </filter>
    
    <!-- Boid glow filter -->
    <filter id="boidGlow" x="-30%" y="-30%" width="160%" height="160%">
      <feGaussianBlur in="SourceAlpha" stdDeviation="1.5" result="blur" />
      <feFlood flood-color="#ffffff" flood-opacity="0.5" result="color" />
      <feComposite in="color" in2="blur" operator="in" result="glow" />
      <feBlend in="SourceGraphic" in2="glow" mode="screen" />
    </filter>
    
    <!-- Depth blur filter -->
    <filter id="depthBlur" x="-10%" y="-10%" width="120%" height="120%">
      <feGaussianBlur in="SourceGraphic" stdDeviation="0.8" />
    </filter>
    
    <!-- Trail effect -->
    <filter id="trail" x="-10%" y="-10%" width="120%" height="120%">
      <feGaussianBlur in="SourceGraphic" stdDeviation="1.5" />
      <feColorMatrix type="matrix" values="1 0 0 0 0  0 1 0 0 0  0 0 1 0 0  0 0 0 0.5 0" />
    </filter>
  </defs>
  
  <!-- Main background -->
  <rect width="1200" height="800" fill="url(#bgGradient)" />
  
  <!-- Header bar -->
  <rect x="0" y="0" width="1200" height="40" fill="#0f172a" />
  <text x="20" y="25" font-family="Inter, sans-serif" font-size="16" fill="#f8fafc" font-weight="bold">Contextual Murmuration Studio</text>
  
  <!-- User info -->
  <text x="1180" y="25" font-family="Inter, sans-serif" font-size="14" fill="#f8fafc" text-anchor="end">Coherence: 87%</text>
  
  <!-- Main visualization space -->
  <rect x="60" y="50" width="880" height="700" rx="5" fill="url(#murmurantionSpaceGradient)" stroke="#334155" stroke-width="1" />
  
  <!-- Grid lines for depth perception -->
  <line x1="60" y1="200" x2="940" y2="200" stroke="#1e293b" stroke-width="1" />
  <line x1="60" y1="350" x2="940" y2="350" stroke="#1e293b" stroke-width="1" />
  <line x1="60" y1="500" x2="940" y2="500" stroke="#1e293b" stroke-width="1" />
  <line x1="60" y1="650" x2="940" y2="650" stroke="#1e293b" stroke-width="1" />
  
  <line x1="210" y1="50" x2="210" y2="750" stroke="#1e293b" stroke-width="1" />
  <line x1="360" y1="50" x2="360" y2="750" stroke="#1e293b" stroke-width="1" />
  <line x1="510" y1="50" x2="510" y2="750" stroke="#1e293b" stroke-width="1" />
  <line x1="660" y1="50" x2="660" y2="750" stroke="#1e293b" stroke-width="1" />
  <line x1="810" y1="50" x2="810" y2="750" stroke="#1e293b" stroke-width="1" />
  
  <!-- Flow lines (would be dynamic in real implementation) -->
  <path d="M 150,300 C 250,250 350,290 450,250 C 550,210 650,240 750,200 C 850,160 920,200 940,230" stroke="url(#flowLineGradient)" stroke-width="3" fill="none" />
  
  <path d="M 100,400 C 200,380 300,420 400,400 C 500,380 600,420 700,400 C 800,380 900,420 930,400" stroke="url(#flowLineGradient)" stroke-width="2" fill="none" />
  
  <path d="M 80,500 C 180,530 280,490 380,510 C 480,530 580,490 680,510 C 780,530 880,490 930,480" stroke="url(#flowLineGradient)" stroke-width="3" fill="none" />
  
  <!-- Active attractor point -->
  <circle cx="450" cy="400" r="80" fill="url(#attractorGradient)" />
  <circle cx="450" cy="400" r="8" fill="#a855f7" filter="url(#focusGlow)" />
  <circle cx="450" cy="400" r="3" fill="#f8fafc" />
  
  <!-- Secondary attractor point -->
  <circle cx="750" cy="300" r="60" fill="url(#attractorGradient)" opacity="0.5" />
  <circle cx="750" cy="300" r="6" fill="#a855f7" opacity="0.7" />
  <circle cx="750" cy="300" r="2" fill="#f8fafc" opacity="0.7" />
  
  <!-- Boids in murmuration (primary topic) -->
  <!-- Foreground layer (sharp, detailed) -->
  <g filter="url(#boidGlow)">
    <circle cx="420" cy="380" r="5" fill="url(#primaryBoidGradient)" />
    <path d="M 420,380 L 415,375 L 425,375 Z" fill="url(#primaryBoidGradient)" />
  </g>
  
  <g filter="url(#boidGlow)">
    <circle cx="435" cy="390" r="4" fill="url(#primaryBoidGradient)" />
    <path d="M 435,390 L 431,386 L 439,386 Z" fill="url(#primaryBoidGradient)" />
  </g>
  
  <g filter="url(#boidGlow)">
    <circle cx="455" cy="410" r="4.5" fill="url(#primaryBoidGradient)" />
    <path d="M 455,410 L 450,405 L 460,405 Z" fill="url(#primaryBoidGradient)" />
  </g>
  
  <g filter="url(#boidGlow)">
    <circle cx="470" cy="385" r="5" fill="url(#primaryBoidGradient)" />
    <path d="M 470,385 L 465,380 L 475,380 Z" fill="url(#primaryBoidGradient)" />
  </g>
  
  <g filter="url(#boidGlow)">
    <circle cx="440" cy="420" r="4" fill="url(#primaryBoidGradient)" />
    <path d="M 440,420 L 436,416 L 444,416 Z" fill="url(#primaryBoidGradient)" />
  </g>
  
  <!-- Mid-ground layer (slightly blurred) -->
  <g filter="url(#depthBlur)">
    <circle cx="400" cy="360" r="3.5" fill="url(#primaryBoidGradient)" opacity="0.8" />
    <path d="M 400,360 L 397,357 L 403,357 Z" fill="url(#primaryBoidGradient)" opacity="0.8" />
  </g>
  
  <g filter="url(#depthBlur)">
    <circle cx="480" cy="370" r="3" fill="url(#primaryBoidGradient)" opacity="0.8" />
    <path d="M 480,370 L 477,367 L 483,367 Z" fill="url(#primaryBoidGradient)" opacity="0.8" />
  </g>
  
  <g filter="url(#depthBlur)">
    <circle cx="490" cy="400" r="3.5" fill="url(#primaryBoidGradient)" opacity="0.8" />
    <path d="M 490,400 L 487,397 L 493,397 Z" fill="url(#primaryBoidGradient)" opacity="0.8" />
  </g>
  
  <!-- Background layer (more blurred, smaller) -->
  <g filter="url(#depthBlur)">
    <circle cx="380" cy="340" r="2" fill="url(#primaryBoidGradient)" opacity="0.6" />
    <path d="M 380,340 L 378,338 L 382,338 Z" fill="url(#primaryBoidGradient)" opacity="0.6" />
  </g>
  
  <g filter="url(#depthBlur)">
    <circle cx="510" cy="360" r="2" fill="url(#primaryBoidGradient)" opacity="0.6" />
    <path d="M 510,360 L 508,358 L 512,358 Z" fill="url(#primaryBoidGradient)" opacity="0.6" />
  </g>
  
  <!-- Boids in murmuration (secondary topic) -->
  <!-- Foreground layer -->
  <g filter="url(#boidGlow)">
    <circle cx="730" cy="290" r="5" fill="url(#secondaryBoidGradient)" />
    <path d="M 730,290 L 725,285 L 735,285 Z" fill="url(#secondaryBoidGradient)" />
  </g>
  
  <g filter="url(#boidGlow)">
    <circle cx="750" cy="280" r="4.5" fill="url(#secondaryBoidGradient)" />
    <path d="M 750,280 L 745,275 L 755,275 Z" fill="url(#secondaryBoidGradient)" />
  </g>
  
  <g filter="url(#boidGlow)">
    <circle cx="770" cy="295" r="4" fill="url(#secondaryBoidGradient)" />
    <path d="M 770,295 L 766,291 L 774,291 Z" fill="url(#secondaryBoidGradient)" />
  </g>
  
  <!-- Mid-ground layer -->
  <g filter="url(#depthBlur)">
    <circle cx="715" cy="275" r="3.5" fill="url(#secondaryBoidGradient)" opacity="0.8" />
    <path d="M 715,275 L 712,272 L 718,272 Z" fill="url(#secondaryBoidGradient)" opacity="0.8" />
  </g>
  
  <g filter="url(#depthBlur)">
    <circle cx="765" cy="315" r="3" fill="url(#secondaryBoidGradient)" opacity="0.8" />
    <path d="M 765,315 L 762,312 L 768,312 Z" fill="url(#secondaryBoidGradient)" opacity="0.8" />
  </g>
  
  <!-- Boids in murmuration (tertiary topic) -->
  <g filter="url(#depthBlur)">
    <circle cx="200" cy="500" r="4" fill="url(#tertiaryBoidGradient)" opacity="0.8" />
    <path d="M 200,500 L 196,496 L 204,496 Z" fill="url(#tertiaryBoidGradient)" opacity="0.8" />
  </g>
  
  <g filter="url(#depthBlur)">
    <circle cx="220" cy="520" r="3.5" fill="url(#tertiaryBoidGradient)" opacity="0.8" />
    <path d="M 220,520 L 217,517 L 223,517 Z" fill="url(#tertiaryBoidGradient)" opacity="0.8" />
  </g>
  
  <g filter="url(#depthBlur)">
    <circle cx="180" cy="480" r="4" fill="url(#tertiaryBoidGradient)" opacity="0.8" />
    <path d="M 180,480 L 176,476 L 184,476 Z" fill="url(#tertiaryBoidGradient)" opacity="0.8" />
  </g>
  
  <!-- Boids in murmuration (quaternary topic) -->
  <g filter="url(#depthBlur)">
    <circle cx="600" cy="600" r="4" fill="url(#quaternaryBoidGradient)" opacity="0.7" />
    <path d="M 600,600 L 596,596 L 604,596 Z" fill="url(#quaternaryBoidGradient)" opacity="0.7" />
  </g>
  
  <g filter="url(#depthBlur)">
    <circle cx="620" cy="580" r="3.5" fill="url(#quaternaryBoidGradient)" opacity="0.7" />
    <path d="M 620,580 L 617,577 L 623,577 Z" fill="url(#quaternaryBoidGradient)" opacity="0.7" />
  </g>
  
  <!-- More boids (would be thousands in real implementation) -->
  <!-- Primary topic distant clusters -->
  <circle cx="350" cy="330" r="1.5" fill="url(#primaryBoidGradient)" opacity="0.5" />
  <circle cx="355" cy="325" r="1" fill="url(#primaryBoidGradient)" opacity="0.5" />
  <circle cx="360" cy="335" r="1.2" fill="url(#primaryBoidGradient)" opacity="0.5" />
  <circle cx="345" cy="340" r="1.3" fill="url(#primaryBoidGradient)" opacity="0.5" />
  <circle cx="340" cy="325" r="1" fill="url(#primaryBoidGradient)" opacity="0.5" />
  
  <circle cx="530" cy="380" r="1.5" fill="url(#primaryBoidGradient)" opacity="0.5" />
  <circle cx="535" cy="375" r="1" fill="url(#primaryBoidGradient)" opacity="0.5" />
  <circle cx="540" cy="385" r="1.2" fill="url(#primaryBoidGradient)" opacity="0.5" />
  <circle cx="525" cy="390" r="1.3" fill="url(#primaryBoidGradient)" opacity="0.5" />
  <circle cx="520" cy="375" r="1" fill="url(#primaryBoidGradient)" opacity="0.5" />
  
  <!-- Secondary topic distant clusters -->
  <circle cx="700" cy="260" r="1.5" fill="url(#secondaryBoidGradient)" opacity="0.5" />
  <circle cx="705" cy="255" r="1" fill="url(#secondaryBoidGradient)" opacity="0.5" />
  <circle cx="710" cy="265" r="1.2" fill="url(#secondaryBoidGradient)" opacity="0.5" />
  <circle cx="695" cy="270" r="1.3" fill="url(#secondaryBoidGradient)" opacity="0.5" />
  <circle cx="690" cy="255" r="1" fill="url(#secondaryBoidGradient)" opacity="0.5" />
  
  <circle cx="790" cy="310" r="1.5" fill="url(#secondaryBoidGradient)" opacity="0.5" />
  <circle cx="795" cy="305" r="1" fill="url(#secondaryBoidGradient)" opacity="0.5" />
  <circle cx="800" cy="315" r="1.2" fill="url(#secondaryBoidGradient)" opacity="0.5" />
  <circle cx="785" cy="320" r="1.3" fill="url(#secondaryBoidGradient)" opacity="0.5" />
  <circle cx="780" cy="305" r="1" fill="url(#secondaryBoidGradient)" opacity="0.5" />
  
  <!-- Tertiary topic distant clusters -->
  <circle cx="160" cy="460" r="1.5" fill="url(#tertiaryBoidGradient)" opacity="0.5" />
  <circle cx="165" cy="455" r="1" fill="url(#tertiaryBoidGradient)" opacity="0.5" />
  <circle cx="170" cy="465" r="1.2" fill="url(#tertiaryBoidGradient)" opacity="0.5" />
  <circle cx="155" cy="470" r="1.3" fill="url(#tertiaryBoidGradient)" opacity="0.5" />
  <circle cx="150" cy="455" r="1" fill="url(#tertiaryBoidGradient)" opacity="0.5" />
  
  <circle cx="240" cy="510" r="1.5" fill="url(#tertiaryBoidGradient)" opacity="0.5" />
  <circle cx="245" cy="505" r="1" fill="url(#tertiaryBoidGradient)" opacity="0.5" />
  <circle cx="250" cy="515" r="1.2" fill="url(#tertiaryBoidGradient)" opacity="0.5" />
  <circle cx="235" cy="520" r="1.3" fill="url(#tertiaryBoidGradient)" opacity="0.5" />
  <circle cx="230" cy="505" r="1" fill="url(#tertiaryBoidGradient)" opacity="0.5" />
  
  <!-- Quaternary topic distant clusters -->
  <circle cx="580" cy="580" r="1.5" fill="url(#quaternaryBoidGradient)" opacity="0.5" />
  <circle cx="585" cy="575" r="1" fill="url(#quaternaryBoidGradient)" opacity="0.5" />
  <circle cx="590" cy="585" r="1.2" fill="url(#quaternaryBoidGradient)" opacity="0.5" />
  <circle cx="575" cy="590" r="1.3" fill="url(#quaternaryBoidGradient)" opacity="0.5" />
  <circle cx="570" cy="575" r="1" fill="url(#quaternaryBoidGradient)" opacity="0.5" />
  
  <circle cx="640" cy="560" r="1.5" fill="url(#quaternaryBoidGradient)" opacity="0.5" />
  <circle cx="645" cy="555" r="1" fill="url(#quaternaryBoidGradient)" opacity="0.5" />
  <circle cx="650" cy="565" r="1.2" fill="url(#quaternaryBoidGradient)" opacity="0.5" />
  <circle cx="635" cy="570" r="1.3" fill="url(#quaternaryBoidGradient)" opacity="0.5" />
  <circle cx="630" cy="555" r="1" fill="url(#quaternaryBoidGradient)" opacity="0.5" />
  
  <!-- Emerging Formation Pattern -->
  <path d="M 420,380 L 435,390 L 455,410 L 470,385 L 440,420 L 420,380" fill="none" stroke="#eab308" stroke-width="1" stroke-dasharray="2,2" opacity="0.8" />
  <text x="450" y="440" font-family="Inter, sans-serif" font-size="8" fill="#f8fafc" opacity="0.8">Emerging Pattern</text>
  
  <!-- Trail effects (would be animated in real implementation) -->
  <path d="M 410,375 L 420,380" stroke="#eab308" stroke-width="2" stroke-opacity="0.3" filter="url(#trail)" />
  <path d="M 425,385 L 435,390" stroke="#eab308" stroke-width="2" stroke-opacity="0.3" filter="url(#trail)" />
  <path d="M 445,405 L 455,410" stroke="#eab308" stroke-width="2" stroke-opacity="0.3" filter="url(#trail)" />
  <path d="M 460,380 L 470,385" stroke="#eab308" stroke-width="2" stroke-opacity="0.3" filter="url(#trail)" />
  <path d="M 430,415 L 440,420" stroke="#eab308" stroke-width="2" stroke-opacity="0.3" filter="url(#trail)" />
  
  <path d="M 720,285 L 730,290" stroke="#3b82f6" stroke-width="2" stroke-opacity="0.3" filter="url(#trail)" />
  <path d="M 740,275 L 750,280" stroke="#3b82f6" stroke-width="2" stroke-opacity="0.3" filter="url(#trail)" />
  <path d="M 760,290 L 770,295" stroke="#3b82f6" stroke-width="2" stroke-opacity="0.3" filter="url(#trail)" />
  
  <!-- Information focus lens -->
  <circle cx="455" cy="410" r="20" fill="none" stroke="#818cf8" stroke-width="1" stroke-dasharray="2,2" filter="url(#focusGlow)" />
  
  <!-- Right control panel -->
  <rect x="950" y="50" width="240" height="350" rx="5" fill="url(#panelGradient)" stroke="#334155" stroke-width="1" />
  <text x="970" y="75" font-family="Inter, sans-serif" font-size="14" fill="#f8fafc" font-weight="bold">Influence Controls</text>
  
  <!-- Influence tools -->
  <rect x="970" y="90" width="200" height="40" rx="5" fill="url(#activeButtonGradient)" stroke="#818cf8" stroke-width="1" />
  <circle cx="990" cy="110" r="10" fill="none" stroke="#f8fafc" stroke-width="1.5" />
  <circle cx="990" cy="110" r="3" fill="#f8fafc" />
  <text x="1010" y="115" font-family="Inter, sans-serif" font-size="12" fill="#f8fafc">Attractor Tool</text>
  
  <rect x="970" y="140" width="200" height="40" rx="5" fill="url(#buttonGradient)" stroke="#475569" stroke-width="1" />
  <path d="M 985,110 L 995,110 M 990,105 L 990,115" stroke="#f8fafc" stroke-width="1.5" transform="translate(0,30)" />
  <text x="1010" y="165" font-family="Inter, sans-serif" font-size="12" fill="#f8fafc">Flow Director</text>
  
  <rect x="970" y="190" width="200" height="40" rx="5" fill="url(#buttonGradient)" stroke="#475569" stroke-width="1" />
  <rect x="980" cy="210" width="20" height="20" rx="3" fill="none" stroke="#f8fafc" stroke-width="1.5" />
  <text x="1010" y="215" font-family="Inter, sans-serif" font-size="12" fill="#f8fafc">Boundary Tool</text>
  
  <rect x="970" y="240" width="200" height="40" rx="5" fill="url(#buttonGradient)" stroke="#475569" stroke-width="1" />
  <path d="M 980,255 C 985,250 995,260 1000,255" stroke="#f8fafc" stroke-width="1.5" fill="none" />
  <text x="1010" y="265" font-family="Inter, sans-serif" font-size="12" fill="#f8fafc">Disruptor Tool</text>
  
  <rect x="970" y="290" width="200" height="40" rx="5" fill="url(#buttonGradient)" stroke="#475569" stroke-width="1" />
  <circle cx="990" cy="310" r="8" fill="none" stroke="#f8fafc" stroke-width="1.5" />
  <path d="M 986,310 L 994,310 M 990,306 L 990,314" stroke="#f8fafc" stroke-width="1" />
  <text x="1010" y="315" font-family="Inter, sans-serif" font-size="12" fill="#f8fafc">Perch Creator</text>
  
  <rect x="970" y="340" width="200" height="40" rx="5" fill="url(#buttonGradient)" stroke="#475569" stroke-width="1" />
  <path d="M 980,350 L 1000,360 L 980,370 Z" fill="none" stroke="#f8fafc" stroke-width="1.5" />
  <text x="1010" y="365" font-family="Inter, sans-serif" font-size="12" fill="#f8fafc">Predator Tool</text>
  
  <!-- Pattern recognition panel -->
  <rect x="950" y="410" width="240" height="340" rx="5" fill="url(#panelGradient)" stroke="#334155" stroke-width="1" />
  <text x="970" y="435" font-family="Inter, sans-serif" font-size="14" fill="#f8fafc" font-weight="bold">Pattern Recognition</text>
  
  <!-- Active formation -->
  <rect x="970" y="450" width="200" height="60" rx="5" fill="#1e293b" stroke="#4f46e5" stroke-width="1" />
  <text x="980" y="470" font-family="Inter, sans-serif" font-size="12" fill="#f8fafc" font-weight="bold">Concept Cluster</text>
  <text x="980" y="490" font-family="Inter, sans-serif" font-size="10" fill="#94a3b8">5 nodes • Topic: Machine Learning</text>
  <text x="1140" y="470" font-family="Inter, sans-serif" font-size="10" fill="#6366f1" text-anchor="end">87%</text>
  
  <!-- Secondary formation -->
  <rect x="970" y="520" width="200" height="60" rx="5" fill="#1e293b" stroke="#4f46e5" stroke-width="1" opacity="0.8" />
  <text x="980" y="540" font-family="Inter, sans-serif" font-size="12" fill="#f8fafc" font-weight="bold">Reference Chain</text>
  <text x="980" y="560" font-family="Inter, sans-serif" font-size="10" fill="#94a3b8">3 nodes • Topic: Research Papers</text>
  <text x="1140" y="540" font-family="Inter, sans-serif" font-size="10" fill="#6366f1" text-anchor="end">65%</text>
  
  <!-- Formation statistics -->
  <rect x="970" y="590" width="200" height="150" rx="5" fill="#1e293b" stroke="#475569" stroke-width="1" />
  <text x="980" y="610" font-family="Inter, sans-serif" font-size="12" fill="#f8fafc" font-weight="bold">Murmuration Statistics</text>
  
  <!-- Statistics -->
  <text x="980" y="635" font-family="Inter, sans-serif" font-size="10" fill="#94a3b8">Active Boids:</text>
  <text x="1140" y="635" font-family="Inter, sans-serif" font-size="10" fill="#f8fafc" text-anchor="end">2,458</text>
  
  <text x="980" y="655" font-family="Inter, sans-serif" font-size="10" fill="#94a3b8">Detected Patterns:</text>
  <text x="1140" y="655" font-family="Inter, sans-serif" font-size="10" fill="#f8fafc" text-anchor="end">12</text>
  
  <text x="980" y="675" font-family="Inter, sans-serif" font-size="10" fill="#94a3b8">Coherence Score:</text>
  <text x="1140" y="675" font-family="Inter, sans-serif" font-size="10" fill="#f8fafc" text-anchor="end">87%</text>
  
  <text x="980" y="695" font-family="Inter, sans-serif" font-size="10" fill="#94a3b8">Average Velocity:</text>
  <text x="1140" y="695" font-family="Inter, sans-serif" font-size="10" fill="#f8fafc" text-anchor="end">12.3 u/s</text>
  
  <text x="980" y="715" font-family="Inter, sans-serif" font-size="10" fill="#94a3b8">Energy Level:</text>
  <rect x="1070" y="708" width="60" height="8" rx="4" fill="#1e293b" stroke="#475569" stroke-width="1" />
  <rect x="1070" y="708" width="42" height="8" rx="4" fill="#6366f1" />
  
  <!-- Left control panel - Environmental parameters -->
  <rect x="10" y="50" width="40" height="560" rx="5" fill="url(#panelGradient)" stroke="#334155" stroke-width="1" />
  
  <!-- Cohesion force control -->
  <rect x="15" y="60" width="30" height="80" rx="5" fill="#1e293b" stroke="#475569" stroke-width="1" />
  <text x="30" y="75" font-family="Inter, sans-serif" font-size="8" fill="#f8fafc" text-anchor="middle">Cohesion</text>
  <rect x="25" y="85" width="10" height="45" rx="5" fill="#1e293b" stroke="#475569" stroke-width="1" />
  <rect x="25" y="85" width="10" height="30" rx="5" fill="#6366f1" />
  <circle cx="30" cy="115" r="6" fill="#f8fafc" stroke="#4f46e5" stroke-width="1" />
  
  <!-- Alignment force control -->
  <rect x="15" y="150" width="30" height="80" rx="5" fill="#1e293b" stroke="#475569" stroke-width="1" />
  <text x="30" y="165" font-family="Inter, sans-serif" font-size="8" fill="#f8fafc" text-anchor="middle">Alignment</text>
  <rect x="25" y="175" width="10" height="45" rx="5" fill="#1e293b" stroke="#475569" stroke-width="1" />
  <rect x="25" y="175" width="10" height="35" rx="5" fill="#6366f1" />
  <circle cx="30" cy="210" r="6" fill="#f8fafc" stroke="#4f46e5" stroke-width="1" />
  
  <!-- Separation force control -->
  <rect x="15" y="240" width="30" height="80" rx="5" fill="#1e293b" stroke="#475569" stroke-width="1" />
  <text x="30" y="255" font-family="Inter, sans-serif" font-size="8" fill="#f8fafc" text-anchor="middle">Separation</text>
  <rect x="25" y="265" width="10" height="45" rx="5" fill="#1e293b" stroke="#475569" stroke-width="1" />
  <rect x="25" y="265" width="10" height="25" rx="5" fill="#6366f1" />
  <circle cx="30" cy="290" r="6" fill="#f8fafc" stroke="#4f46e5" stroke-width="1" />
  
  <!-- Response rate control -->
  <rect x="15" y="330" width="30" height="80" rx="5" fill="#1e293b" stroke="#475569" stroke-width="1" />
  <text x="30" y="345" font-family="Inter, sans-serif" font-size="8" fill="#f8fafc" text-anchor="middle">Response</text>
  <rect x="25" y="355" width="10" height="45" rx="5" fill="#1e293b" stroke="#475569" stroke-width="1" />
  <rect x="25" y="355" width="10" height="38" rx="5" fill="#6366f1" />
  <circle cx="30" cy="393" r="6" fill="#f8fafc" stroke="#4f46e5" stroke-width="1" />
  
  <!-- Memory length control -->
  <rect x="15" y="420" width="30" height="80" rx="5" fill="#1e293b" stroke="#475569" stroke-width="1" />
  <text x="30" y="435" font-family="Inter, sans-serif" font-size="8" fill="#f8fafc" text-anchor="middle">Memory</text>
  <rect x="25" y="445" width="10" height="45" rx="5" fill="#1e293b" stroke="#475569" stroke-width="1" />
  <rect x="25" y="445" width="10" height="22" rx="5" fill="#6366f1" />
  <circle cx="30" cy="467" r="6" fill="#f8fafc" stroke="#4f46e5" stroke-width="1" />
  
  <!-- External factor sensitivity -->
  <rect x="15" y="510" width="30" height="80" rx="5" fill="#1e293b" stroke="#475569" stroke-width="1" />
  <text x="30" y="525" font-family="Inter, sans-serif" font-size="8" fill="#f8fafc" text-anchor="middle">Sensitivity</text>
  <rect x="25" y="535" width="10" height="45" rx="5" fill="#1e293b" stroke="#475569" stroke-width="1" />
  <rect x="25" y="535" width="10" height="32" rx="5" fill="#6366f1" />
  <circle cx="30" cy="567" r="6" fill="#f8fafc" stroke="#4f46e5" stroke-width="1" />
  
  <!-- Bottom density/heat map -->
  <rect x="10" y="620" width="930" height="130" rx="5" fill="url(#panelGradient)" stroke="#334155" stroke-width="1" />
  <text x="30" y="645" font-family="Inter, sans-serif" font-size="14" fill="#f8fafc" font-weight="bold">Information Density Map</text>
  
  <!-- Density map -->
  <rect x="30" y="660" width="870" height="70" rx="5" fill="#1e293b" stroke="#475569" stroke-width="1" />
  
  <!-- Density indicators -->
  <rect x="60" y="670" width="40" height="50" rx="3" fill="#b91c1c" opacity="0.3" />
  <rect x="110" y="670" width="60" height="50" rx="3" fill="#f97316" opacity="0.3" />
  <rect x="300" y="670" width="100" height="50" rx="3" fill="#eab308" opacity="0.3" />
  <rect x="415" y="670" width="100" height="50" rx="3" fill="#eab308" opacity="0.5" />
  <rect x="710" y="670" width="80" height="50" rx="3" fill="#f97316" opacity="0.3" />
  <rect x="800" y="670" width="40" height="50" rx="3" fill="#b91c1c" opacity="0.3" />
  
  <!-- Legend -->
  <rect x="750" y="630" width="150" height="20" rx="3" fill="none" />
  <rect x="760" y="635" width="20" height="10" rx="2" fill="#b91c1c" opacity="0.3" />
  <rect x="800" y="635" width="20" height="10" rx="2" fill="#f97316" opacity="0.3" />
  <rect x="840" y="635" width="20" height="10" rx="2" fill="#eab308" opacity="0.3" />
  <text x="782" y="643" font-family="Inter, sans-serif" font-size="8" fill="#f8fafc">Low</text>
  <text x="822" y="643" font-family="Inter, sans-serif" font-size="8" fill="#f8fafc">Med</text>
  <text x="862" y="643" font-family="Inter, sans-serif" font-size="8" fill="#f8fafc">High</text>
  
  <!-- Information inspector (focus element) -->
  <rect x="250" y="300" width="200" height="100" rx="5" fill="#1e293b" opacity="0.9" stroke="#818cf8" stroke-width="1" />
  <text x="270" y="320" font-family="Inter, sans-serif" font-size="12" fill="#f8fafc" font-weight="bold">Machine Learning Models</text>
  <text x="270" y="340" font-family="Inter, sans-serif" font-size="10" fill="#94a3b8">Source: Research Paper (2023)</text>
  <text x="270" y="360" font-family="Inter, sans-serif" font-size="10" fill="#94a3b8">Connections: 8 • Relevance: High</text>
  <text x="270" y="380" font-family="Inter, sans-serif" font-size="10" fill="#94a3b8">Last interaction: 2 days ago</text>
  
  <!-- Mode buttons (top right) -->
  <rect x="700" y="5" width="70" height="30" rx="15" fill="#334155" opacity="0.7" />
  <text x="735" y="25" font-family="Inter, sans-serif" font-size="12" fill="#f8fafc" text-anchor="middle">2D</text>
  
  <rect x="780" y="5" width="70" height="30" rx="15" fill="#6366f1" opacity="0.9" />
  <text x="815" y="25" font-family="Inter, sans-serif" font-size="12" fill="#f8fafc" text-anchor="middle">3D</text>
  
  <rect x="860" y="5" width="90" height="30" rx="15" fill="#334155" opacity="0.7" />
  <text x="905" y="25" font-family="Inter, sans-serif" font-size="12" fill="#f8fafc" text-anchor="middle">Time</text>
  
  <!-- Capture and export buttons -->
  <rect x="30" y="700" width="100" height="30" rx="5" fill="url(#buttonGradient)" stroke="#475569" stroke-width="1" />
  <text x="80" y="720" font-family="Inter, sans-serif" font-size="10" fill="#f8fafc" text-anchor="middle">Snapshot</text>
  
  <rect x="140" y="700" width="100" height="30" rx="5" fill="url(#buttonGradient)" stroke="#475569" stroke-width="1" />
  <text x="190" y="720" font-family="Inter, sans-serif" font-size="10" fill="#f8fafc" text-anchor="middle">Export Pattern</text>
  
  <rect x="250" y="700" width="100" height="30" rx="5" fill="url(#buttonGradient)" stroke="#475569" stroke-width="1" />
  <text x="300" y="720" font-family="Inter, sans-serif" font-size="10" fill="#f8fafc" text-anchor="middle">Record Flow</text>
  
  <!-- Emergent insights button -->
  <rect x="670" y="700" width="120" height="30" rx="5" fill="url(#activeButtonGradient)" stroke="#818cf8" stroke-width="1" />
  <text x="730" y="720" font-family="Inter, sans-serif" font-size="10" fill="#f8fafc" text-anchor="middle">View Insights (3)</text>
  
  <!-- Cursor/pointer for interaction -->
  <circle cx="450" cy="400" r="8" fill="none" stroke="#f8fafc" stroke-width="1.5" stroke-dasharray="2,2" />
  <circle cx="450" cy="400" r="2" fill="#f8fafc" />
  
  <!-- Keyboard shortcut guide -->
  <text x="600" y="785" font-family="Inter, sans-serif" font-size="10" fill="#94a3b8" text-anchor="middle">SHORTCUTS: [Space] Play/Pause • [A] Attractor • [F] Flow • [B] Boundary • [D] Disrupt • [S] Snapshot • [Tab] Focus</text>
  </svg>