<svg xmlns="http://www.w3.org/2000/svg" viewBox="0 0 1200 900" width="100%" height="100%">
  <!-- Definitions for reusable elements (gradients, filters, etc.) -->
  <defs>
    <!-- Radial gradients for nodes -->
    <radialGradient id="nodeGradient1" cx="50%" cy="50%" r="50%" fx="50%" fy="50%">
      <stop offset="0%" stop-color="#f0f7ff" />
      <stop offset="70%" stop-color="#a0c4ff" />
      <stop offset="100%" stop-color="#7090e0" />
    </radialGradient>
    
    <radialGradient id="nodeGradient2" cx="50%" cy="50%" r="50%" fx="50%" fy="50%">
      <stop offset="0%" stop-color="#f0fff0" />
      <stop offset="70%" stop-color="#a0ffa0" />
      <stop offset="100%" stop-color="#70e070" />
    </radialGradient>
    
    <radialGradient id="nodeGradient3" cx="50%" cy="50%" r="50%" fx="50%" fy="50%">
      <stop offset="0%" stop-color="#fff0f0" />
      <stop offset="70%" stop-color="#ffa0a0" />
      <stop offset="100%" stop-color="#e07070" />
    </radialGradient>
    
    <radialGradient id="nodeGradient4" cx="50%" cy="50%" r="50%" fx="50%" fy="50%">
      <stop offset="0%" stop-color="#f7f0ff" />
      <stop offset="70%" stop-color="#c4a0ff" />
      <stop offset="100%" stop-color="#9070e0" />
    </radialGradient>
    
    <!-- Substrate gradient (background) -->
    <linearGradient id="substrateGradient" x1="0%" y1="0%" x2="100%" y2="100%">
      <stop offset="0%" stop-color="#f4f2e8" />
      <stop offset="50%" stop-color="#e8e4d8" />
      <stop offset="100%" stop-color="#dcd8c8" />
    </linearGradient>
    
    <!-- Illumination gradients -->
    <radialGradient id="illuminationGradient" cx="50%" cy="50%" r="50%" fx="50%" fy="50%">
      <stop offset="0%" stop-color="rgba(255, 255, 210, 0.9)" />
      <stop offset="50%" stop-color="rgba(255, 255, 180, 0.5)" />
      <stop offset="100%" stop-color="rgba(255, 255, 180, 0)" />
    </radialGradient>
    
    <!-- Connection gradients -->
    <linearGradient id="connectionGradient1" x1="0%" y1="0%" x2="100%" y2="0%">
      <stop offset="0%" stop-color="#a0c4ff" />
      <stop offset="100%" stop-color="#7090e0" />
    </linearGradient>
    
    <linearGradient id="connectionGradient2" x1="0%" y1="0%" x2="100%" y2="0%">
      <stop offset="0%" stop-color="#a0ffa0" />
      <stop offset="100%" stop-color="#70e070" />
    </linearGradient>
    
    <linearGradient id="connectionGradient3" x1="0%" y1="0%" x2="100%" y2="0%">
      <stop offset="0%" stop-color="#ffa0a0" />
      <stop offset="100%" stop-color="#e07070" />
    </linearGradient>
    
    <linearGradient id="connectionGradient4" x1="0%" y1="0%" x2="100%" y2="0%">
      <stop offset="0%" stop-color="#c4a0ff" />
      <stop offset="100%" stop-color="#9070e0" />
    </linearGradient>
    
    <!-- Filters for glow effects -->
    <filter id="glow" x="-20%" y="-20%" width="140%" height="140%">
      <feGaussianBlur stdDeviation="3" result="blur" />
      <feComposite in="SourceGraphic" in2="blur" operator="over" />
    </filter>
    
    <filter id="nodeGlow" x="-30%" y="-30%" width="160%" height="160%">
      <feGaussianBlur stdDeviation="5" result="blur" />
      <feComposite in="SourceGraphic" in2="blur" operator="over" />
    </filter>
    
    <!-- Texture filters -->
    <filter id="substrateTexture" x="0%" y="0%" width="100%" height="100%">
      <feTurbulence type="fractalNoise" baseFrequency="0.01" numOctaves="3" result="noise" />
      <feColorMatrix type="matrix" values="0.3 0 0 0 0 0 0.3 0 0 0 0 0 0.3 0 0 0 0 0 0.5 0" in="noise" result="grayNoise" />
      <feBlend in="SourceGraphic" in2="grayNoise" mode="overlay" />
    </filter>
    
    <!-- Path patterns -->
    <pattern id="dashPattern1" patternUnits="userSpaceOnUse" width="10" height="10" patternTransform="rotate(45)">
      <line x1="0" y1="5" x2="10" y2="5" stroke="#a0c4ff" stroke-width="2" />
    </pattern>
    
    <!-- Markers for path endpoints -->
    <marker id="nodeDot" viewBox="0 0 10 10" refX="5" refY="5" markerWidth="3" markerHeight="3">
      <circle cx="5" cy="5" r="4" fill="white" />
    </marker>
    
    <!-- Mycelial thread masks -->
    <mask id="threadFade">
      <linearGradient id="fadeGradient" x1="0%" y1="0%" x2="100%" y2="0%">
        <stop offset="0%" stop-color="white" stop-opacity="1" />
        <stop offset="80%" stop-color="white" stop-opacity="0.3" />
        <stop offset="100%" stop-color="white" stop-opacity="0" />
      </linearGradient>
      <rect x="0" y="0" width="100%" height="100%" fill="url(#fadeGradient)" />
    </mask>
  </defs>
  
  <!-- Main layers -->
  
  <!-- Base Layer: Substrate background -->
  <rect x="0" y="0" width="1200" height="900" fill="url(#substrateGradient)" filter="url(#substrateTexture)" />
  
  <!-- Deep Connection Layer -->
  <g id="deepConnectionLayer" opacity="0.15">
    <!-- Complex network of faint, deep connections -->
    <path d="M100,800 C250,700 350,750 500,650 S700,600 850,500 S950,400 1100,350" 
          fill="none" stroke="#4070c0" stroke-width="2" stroke-opacity="0.5" />
    <path d="M200,750 C300,650 400,700 600,600 S700,500 900,450 S1000,400 1150,300" 
          fill="none" stroke="#4070c0" stroke-width="3" stroke-opacity="0.5" />
    <path d="M50,700 C150,650 250,600 400,550 S600,500 750,450 S900,400 1050,300" 
          fill="none" stroke="#4070c0" stroke-width="1" stroke-opacity="0.5" />
    <path d="M150,850 C250,800 350,750 450,700 S550,650 650,600 S750,550 850,500 S950,450 1050,400" 
          fill="none" stroke="#4070c0" stroke-width="2" stroke-opacity="0.5" />
    <path d="M120,720 C220,680 320,640 420,620 S520,590 620,550 S720,510 820,480 S920,440 1020,410" 
          fill="none" stroke="#407060" stroke-width="1.5" stroke-opacity="0.5" />
    <path d="M180,780 C280,750 380,720 480,680 S580,640 680,590 S780,550 880,510 S980,480 1080,450" 
          fill="none" stroke="#704070" stroke-width="2" stroke-opacity="0.5" />
  </g>
  
  <!-- Mid-Level Network Layer -->
  <g id="midLevelConnectionLayer" opacity="0.6">
    <!-- Primary mycelial connections -->
    <path d="M250,600 C350,550 450,575 550,525 S650,500 750,450 S850,425 950,400" 
          fill="none" stroke="url(#connectionGradient1)" stroke-width="4" stroke-linecap="round" />
    <path d="M200,550 C300,525 400,500 500,475 S600,450 700,425 S800,400 900,375" 
          fill="none" stroke="url(#connectionGradient2)" stroke-width="5" stroke-linecap="round" />
    <path d="M300,650 C400,625 500,600 600,575 S700,550 800,525 S900,500 1000,475" 
          fill="none" stroke="url(#connectionGradient3)" stroke-width="3" stroke-linecap="round" />
    <path d="M150,500 C250,525 350,550 450,545 S550,520 650,495 S750,470 850,445" 
          fill="none" stroke="url(#connectionGradient4)" stroke-width="4" stroke-linecap="round" />
    
    <!-- Secondary connections -->
    <path d="M250,600 C300,575 300,550 350,525" 
          fill="none" stroke="url(#connectionGradient1)" stroke-width="2" stroke-linecap="round" />
    <path d="M450,575 C500,550 525,525 550,500" 
          fill="none" stroke="url(#connectionGradient1)" stroke-width="2" stroke-linecap="round" />
    <path d="M550,525 C575,500 600,475 625,450" 
          fill="none" stroke="url(#connectionGradient1)" stroke-width="2" stroke-linecap="round" />
    <path d="M750,450 C775,425 800,400 825,375" 
          fill="none" stroke="url(#connectionGradient1)" stroke-width="2" stroke-linecap="round" />
    
    <path d="M200,550 C225,535 235,520 250,505" 
          fill="none" stroke="url(#connectionGradient2)" stroke-width="3" stroke-linecap="round" />
    <path d="M400,500 C425,490 435,480 450,470" 
          fill="none" stroke="url(#connectionGradient2)" stroke-width="3" stroke-linecap="round" />
    <path d="M600,475 C625,460 640,445 655,430" 
          fill="none" stroke="url(#connectionGradient2)" stroke-width="3" stroke-linecap="round" />
    <path d="M700,425 C725,410 750,395 775,380" 
          fill="none" stroke="url(#connectionGradient2)" stroke-width="3" stroke-linecap="round" />
    
    <path d="M300,650 C325,635 330,620 335,605" 
          fill="none" stroke="url(#connectionGradient3)" stroke-width="2" stroke-linecap="round" />
    <path d="M500,600 C520,585 530,570 540,555" 
          fill="none" stroke="url(#connectionGradient3)" stroke-width="2" stroke-linecap="round" />
    <path d="M600,575 C615,565 625,555 635,545" 
          fill="none" stroke="url(#connectionGradient3)" stroke-width="2" stroke-linecap="round" />
    <path d="M800,525 C825,510 850,495 875,480" 
          fill="none" stroke="url(#connectionGradient3)" stroke-width="2" stroke-linecap="round" />
    
    <path d="M150,500 C175,515 185,525 195,535" 
          fill="none" stroke="url(#connectionGradient4)" stroke-width="2" stroke-linecap="round" />
    <path d="M350,550 C375,545 385,540 395,535" 
          fill="none" stroke="url(#connectionGradient4)" stroke-width="2" stroke-linecap="round" />
    <path d="M450,545 C475,535 490,525 505,515" 
          fill="none" stroke="url(#connectionGradient4)" stroke-width="2" stroke-linecap="round" />
    <path d="M650,495 C675,485 700,475 725,465" 
          fill="none" stroke="url(#connectionGradient4)" stroke-width="2" stroke-linecap="round" />
    
    <!-- Tertiary filaments (fine connections) -->
    <g opacity="0.7">
      <path d="M250,505 C260,500 265,495 270,490" 
            fill="none" stroke="#a0c4ff" stroke-width="1" stroke-linecap="round" />
      <path d="M350,525 C360,520 370,515 380,510" 
            fill="none" stroke="#a0c4ff" stroke-width="1" stroke-linecap="round" />
      <path d="M550,500 C555,495 560,490 565,485" 
            fill="none" stroke="#a0c4ff" stroke-width="1" stroke-linecap="round" />
      <path d="M625,450 C630,445 635,440 640,435" 
            fill="none" stroke="#a0c4ff" stroke-width="1" stroke-linecap="round" />
      <path d="M825,375 C830,370 835,365 840,360" 
            fill="none" stroke="#a0c4ff" stroke-width="1" stroke-linecap="round" />
      
      <path d="M250,505 C245,500 240,495 235,490" 
            fill="none" stroke="#a0ffa0" stroke-width="1" stroke-linecap="round" />
      <path d="M450,470 C445,465 440,460 435,455" 
            fill="none" stroke="#a0ffa0" stroke-width="1" stroke-linecap="round" />
      <path d="M655,430 C660,425 665,420 670,415" 
            fill="none" stroke="#a0ffa0" stroke-width="1" stroke-linecap="round" />
      <path d="M775,380 C780,375 785,370 790,365" 
            fill="none" stroke="#a0ffa0" stroke-width="1" stroke-linecap="round" />
      
      <path d="M335,605 C340,600 345,595 350,590" 
            fill="none" stroke="#ffa0a0" stroke-width="1" stroke-linecap="round" />
      <path d="M540,555 C545,550 550,545 555,540" 
            fill="none" stroke="#ffa0a0" stroke-width="1" stroke-linecap="round" />
      <path d="M635,545 C640,540 645,535 650,530" 
            fill="none" stroke="#ffa0a0" stroke-width="1" stroke-linecap="round" />
      <path d="M875,480 C880,475 885,470 890,465" 
            fill="none" stroke="#ffa0a0" stroke-width="1" stroke-linecap="round" />
      
      <path d="M195,535 C200,540 205,545 210,550" 
            fill="none" stroke="#c4a0ff" stroke-width="1" stroke-linecap="round" />
      <path d="M395,535 C400,530 405,525 410,520" 
            fill="none" stroke="#c4a0ff" stroke-width="1" stroke-linecap="round" />
      <path d="M505,515 C510,510 515,505 520,500" 
            fill="none" stroke="#c4a0ff" stroke-width="1" stroke-linecap="round" />
      <path d="M725,465 C730,460 735,455 740,450" 
            fill="none" stroke="#c4a0ff" stroke-width="1" stroke-linecap="round" />
    </g>
  </g>
  
  <!-- Node Layer -->
  <g id="nodeLayer">
    <!-- Knowledge nodes at connection intersections -->
    <circle cx="250" cy="600" r="15" fill="url(#nodeGradient1)" filter="url(#nodeGlow)" />
    <circle cx="350" cy="525" r="12" fill="url(#nodeGradient1)" filter="url(#nodeGlow)" />
    <circle cx="450" cy="575" r="10" fill="url(#nodeGradient1)" filter="url(#nodeGlow)" />
    <circle cx="550" cy="525" r="18" fill="url(#nodeGradient1)" filter="url(#nodeGlow)" />
    <circle cx="750" cy="450" r="14" fill="url(#nodeGradient1)" filter="url(#nodeGlow)" />
    <circle cx="950" cy="400" r="16" fill="url(#nodeGradient1)" filter="url(#nodeGlow)" />
    
    <circle cx="200" cy="550" r="17" fill="url(#nodeGradient2)" filter="url(#nodeGlow)" />
    <circle cx="400" cy="500" r="13" fill="url(#nodeGradient2)" filter="url(#nodeGlow)" />
    <circle cx="500" cy="475" r="11" fill="url(#nodeGradient2)" filter="url(#nodeGlow)" />
    <circle cx="600" cy="475" r="14" fill="url(#nodeGradient2)" filter="url(#nodeGlow)" />
    <circle cx="700" cy="425" r="15" fill="url(#nodeGradient2)" filter="url(#nodeGlow)" />
    <circle cx="900" cy="375" r="12" fill="url(#nodeGradient2)" filter="url(#nodeGlow)" />
    
    <circle cx="300" cy="650" r="16" fill="url(#nodeGradient3)" filter="url(#nodeGlow)" />
    <circle cx="500" cy="600" r="12" fill="url(#nodeGradient3)" filter="url(#nodeGlow)" />
    <circle cx="600" cy="575" r="14" fill="url(#nodeGradient3)" filter="url(#nodeGlow)" />
    <circle cx="800" cy="525" r="13" fill="url(#nodeGradient3)" filter="url(#nodeGlow)" />
    <circle cx="1000" cy="475" r="15" fill="url(#nodeGradient3)" filter="url(#nodeGlow)" />
    
    <circle cx="150" cy="500" r="14" fill="url(#nodeGradient4)" filter="url(#nodeGlow)" />
    <circle cx="350" cy="550" r="12" fill="url(#nodeGradient4)" filter="url(#nodeGlow)" />
    <circle cx="450" cy="545" r="15" fill="url(#nodeGradient4)" filter="url(#nodeGlow)" />
    <circle cx="650" cy="495" r="13" fill="url(#nodeGradient4)" filter="url(#nodeGlow)" />
    <circle cx="850" cy="445" r="16" fill="url(#nodeGradient4)" filter="url(#nodeGlow)" />
    
    <!-- Major knowledge hubs (larger nodes) -->
    <circle cx="550" cy="525" r="24" fill="url(#nodeGradient1)" opacity="0.85" filter="url(#nodeGlow)" />
    <circle cx="700" cy="425" r="22" fill="url(#nodeGradient2)" opacity="0.85" filter="url(#nodeGlow)" />
    <circle cx="800" cy="525" r="20" fill="url(#nodeGradient3)" opacity="0.85" filter="url(#nodeGlow)" />
    <circle cx="450" cy="545" r="21" fill="url(#nodeGradient4)" opacity="0.85" filter="url(#nodeGlow)" />
    
    <!-- Node internal structures -->
    <g opacity="0.7">
      <circle cx="550" cy="525" r="16" fill="none" stroke="white" stroke-width="1" />
      <circle cx="550" cy="525" r="8" fill="none" stroke="white" stroke-width="1" />
      
      <circle cx="700" cy="425" r="14" fill="none" stroke="white" stroke-width="1" />
      <circle cx="700" cy="425" r="7" fill="none" stroke="white" stroke-width="1" />
      
      <circle cx="800" cy="525" r="12" fill="none" stroke="white" stroke-width="1" />
      <circle cx="800" cy="525" r="6" fill="none" stroke="white" stroke-width="1" />
      
      <circle cx="450" cy="545" r="13" fill="none" stroke="white" stroke-width="1" />
      <circle cx="450" cy="545" r="6.5" fill="none" stroke="white" stroke-width="1" />
    </g>
  </g>
  
  <!-- Surface Layer: Fruiting bodies and interactive elements -->
  <g id="surfaceLayer">
    <!-- Mushroom-like fruiting bodies -->
    <g transform="translate(600, 250) scale(0.8)">
      <path d="M0,0 C10,-15 20,-20 30,-15 S40,0 30,10 S10,15 0,10 S-10,0 0,0" 
            fill="#e0c080" stroke="#a08060" stroke-width="1" />
      <line x1="0" y1="10" x2="0" y2="30" stroke="#a08060" stroke-width="2" />
    </g>
    
    <g transform="translate(750, 300) scale(0.7)">
      <path d="M0,0 C10,-15 20,-20 30,-15 S40,0 30,10 S10,15 0,10 S-10,0 0,0" 
            fill="#d0b070" stroke="#907050" stroke-width="1" />
      <line x1="0" y1="10" x2="0" y2="30" stroke="#907050" stroke-width="2" />
    </g>
    
    <g transform="translate(480, 280) scale(0.9)">
      <path d="M0,0 C10,-15 20,-20 30,-15 S40,0 30,10 S10,15 0,10 S-10,0 0,0" 
            fill="#f0d090" stroke="#b09070" stroke-width="1" />
      <line x1="0" y1="10" x2="0" y2="30" stroke="#b09070" stroke-width="2" />
    </g>
    
    <g transform="translate(900, 330) scale(0.75)">
      <path d="M0,0 C10,-15 20,-20 30,-15 S40,0 30,10 S10,15 0,10 S-10,0 0,0" 
            fill="#e0c080" stroke="#a08060" stroke-width="1" />
      <line x1="0" y1="10" x2="0" y2="30" stroke="#a08060" stroke-width="2" />
    </g>
  </g>
  
  <!-- Illumination Layer -->
  <g id="illuminationLayer" opacity="0.6">
    <!-- Active illumination areas -->
    <circle cx="550" cy="525" r="50" fill="url(#illuminationGradient)" />
    <circle cx="700" cy="425" r="60" fill="url(#illuminationGradient)" />
    
    <!-- Illumination paths (highlighting active connections) -->
    <path d="M550,525 C600,500 650,475 700,425" 
          fill="none" stroke="rgba(255, 255, 200, 0.7)" stroke-width="6" stroke-linecap="round" filter="url(#glow)" />
  </g>
  
  <!-- Interface Sections -->
  
  <!-- Mycologist's Toolkit (Left Side, 10% of space) -->
  <g id="toolkitSection" transform="translate(20, 150)">
    <rect x="0" y="0" width="100" height="500" rx="10" ry="10" 
          fill="rgba(240, 235, 225, 0.8)" stroke="#a08060" stroke-width="1" />
    
    <!-- Tool Icons -->
    <circle cx="50" cy="50" r="30" fill="rgba(255, 255, 210, 0.9)" stroke="#a08060" stroke-width="1" />
    <circle cx="50" cy="50" r="20" fill="none" stroke="#a08060" stroke-width="1" />
    <path d="M35,50 L65,50 M50,35 L50,65" stroke="#a08060" stroke-width="2" />
    
    <circle cx="50" cy="130" r="30" fill="rgba(200, 240, 200, 0.9)" stroke="#70a070" stroke-width="1" />
    <path d="M35,130 Q50,110 65,130" fill="none" stroke="#70a070" stroke-width="2" />
    <line x1="50" y1="110" x2="50" y2="145" stroke="#70a070" stroke-width="2" />
    
    <circle cx="50" cy="210" r="30" fill="rgba(240, 200, 200, 0.9)" stroke="#a07070" stroke-width="1" />
    <path d="M35,210 L65,210 M35,200 L65,220" fill="none" stroke="#a07070" stroke-width="2" />
    
    <circle cx="50" cy="290" r="30" fill="rgba(200, 200, 240, 0.9)" stroke="#7070a0" stroke-width="1" />
    <circle cx="50" cy="290" r="15" fill="none" stroke="#7070a0" stroke-width="2" />
    <path d="M40,280 L60,300 M40,300 L60,280" fill="none" stroke="#7070a0" stroke-width="2" />
    
    <circle cx="50" cy="370" r="30" fill="rgba(240, 220, 180, 0.9)" stroke="#a08060" stroke-width="1" />
    <circle cx="50" cy="370" r="10" fill="#a08060" />
    <path d="M50,350 Q65,370 50,390 Q35,370 50,350" fill="none" stroke="#a08060" stroke-width="2" />
    
    <circle cx="50" cy="450" r="30" fill="rgba(220, 220, 220, 0.9)" stroke="#808080" stroke-width="1" />
    <rect x="40" y="360" width="20" height="20" fill="none" stroke="#808080" stroke-width="2" transform="translate(0, 80)" />
    <path d="M35,450 L65,450 M50,435 L50,465" fill="none" stroke="#808080" stroke-width="2" />
    
    <!-- Tool Labels -->
    <text x="50" y="85" font-family="Arial" font-size="9" text-anchor="middle" fill="#704030">Illumination</text>
    <text x="50" y="165" font-family="Arial" font-size="9" text-anchor="middle" fill="#704030">Cultivation</text>
    <text x="50" y="245" font-family="Arial" font-size="9" text-anchor="middle" fill="#704030">Pruning</text>
    <text x="50" y="325" font-family="Arial" font-size="9" text-anchor="middle" fill="#704030">Extraction</text>
    <text x="50" y="405" font-family="Arial" font-size="9" text-anchor="middle" fill="#704030">Inoculation</text>
    <text x="50" y="485" font-family="Arial" font-size="9" text-anchor="middle" fill="#704030">Analysis</text>
  </g>
  
  <!-- Network Metrics (Right Side, 15% of space) -->
  <g id="metricsSection" transform="translate(1060, 150)">
    <rect x="0" y="0" width="120" height="500" rx="10" ry="10" 
          fill="rgba(240, 235, 225, 0.8)" stroke="#a08060" stroke-width="1" />
    
    <!-- Vitality Gauges -->
    <text x="60" y="30" font-family="Arial" font-size="12" text-anchor="middle" fill="#704030">Network Vitality</text>
    
    <g transform="translate(20, 50)">
      <!-- Vitality Meter -->
      <rect x="0" y="0" width="80" height="15" rx="7" ry="7" fill="rgba(220, 220, 220, 0.6)" stroke="#a08060" stroke-width="1" />
      <rect x="0" y="0" width="60" height="15" rx="7" ry="7" fill="rgba(120, 200, 120, 0.8)" stroke="none" />
      
      <!-- Connection Density -->
      <text x="40" y="35" font-family="Arial" font-size="10" text-anchor="middle" fill="#704030">Connection Density</text>
      <rect x="0" y="45" width="80" height="15" rx="7" ry="7" fill="rgba(220, 220, 220, 0.6)" stroke="#a08060" stroke-width="1" />
      <rect x="0" y="45" width="70" height="15" rx="7" ry="7" fill="rgba(120, 160, 200, 0.8)" stroke="none" />
      
      <!-- Diversity Index -->
      <text x="40" y="80" font-family="Arial" font-size="10" text-anchor="middle" fill="#704030">Diversity Index</text>
      <rect x="0" y="90" width="80" height="15" rx="7" ry="7" fill="rgba(220, 220, 220, 0.6)" stroke="#a08060" stroke-width="1" />
      <rect x="0" y="90" width="50" height="15" rx="7" ry="7" fill="rgba(200, 160, 120, 0.8)" stroke="none" />
      
      <!-- Growth Rate -->
      <text x="40" y="125" font-family="Arial" font-size="10" text-anchor="middle" fill="#704030">Growth Rate</text>
      <rect x="0" y="135" width="80" height="15" rx="7" ry="7" fill="rgba(220, 220, 220, 0.6)" stroke="#a08060" stroke-width="1" />
      <rect x="0" y="135" width="65" height="15" rx="7" ry="7" fill="rgba(160, 200, 160, 0.8)" stroke="none" />
      
      <!-- Decomposition Rate -->
      <text x="40" y="170" font-family="Arial" font-size="10" text-anchor="middle" fill="#704030">Decomposition Rate</text>
      <rect x="0" y="180" width="80" height="15" rx="7" ry="7" fill="rgba(220, 220, 220, 0.6)" stroke="#a08060" stroke-width="1" />
      <rect x="0" y="180" width="40" height="15" rx="7" ry="7" fill="rgba(200, 160, 160, 0.8)" stroke="none" />
    </g>
    
    <!-- Mini Map -->
    <text x="60" y="240" font-family="Arial" font-size="12" text-anchor="middle" fill="#704030">Connection Map</text>
    <rect x="20" y="250" width="80" height="80" rx="5" ry="5" fill="rgba(240, 235, 225, 0.5)" stroke="#a08060" stroke-width="1" />
    
    <!-- Simplified network visualization -->
    <g transform="translate(20, 250) scale(0.08)">
      <path d="M250,600 C350,550 450,575 550,525 S650,500 750,450 S850,425 950,400" 
            fill="none" stroke="#a0c4ff" stroke-width="20" stroke-linecap="round" />
      <path d="M200,550 C300,525 400,500 500,475 S600,450 700,425 S800,400 900,375" 
            fill="none" stroke="#a0ffa0" stroke-width="25" stroke-linecap="round" />
      <path d="M300,650 C400,625 500,600 600,575 S700,550 800,525 S900,500 1000,475" 
            fill="none" stroke="#ffa0a0" stroke-width="15" stroke-linecap="round" />
      <path d="M150,500 C250,525 350,550 450,545 S550,520 650,495 S750,470 850,445" 
            fill="none" stroke="#c4a0ff" stroke-width="20" stroke-linecap="round" />
      
      <!-- Viewport indicator (showing current view) -->
      <rect x="300" y="350" width="500" height="300" fill="none" stroke="rgba(255, 150, 80, 0.8)" stroke-width="10" stroke-dasharray="20,10" />
    </g>
    
    <!-- Activity Heatmap -->
    <text x="60" y="350" font-family="Arial" font-size="12" text-anchor="middle" fill="#704030">Active Areas</text>
    <rect x="20" y="360" width="80" height="80" rx="5" ry="5" fill="rgba(240, 235, 225, 0.5)" stroke="#a08060" stroke-width="1" />
    
    <!-- Simplified heatmap -->
    <g transform="translate(20, 360)">
      <rect x="50" y="20" width="25" height="25" fill="rgba(255, 160, 80, 0.5)" stroke="none" />
      <rect x="15" y="40" width="20" height="20" fill="rgba(255, 160, 80, 0.3)" stroke="none" />
      <rect x="55" y="50" width="15" height="15" fill="rgba(255, 160, 80, 0.7)" stroke="none" />
    </g>
  </g>
  
  <!-- Spore Library and Harvest Collection (Bottom, 15% of space) -->
  <g id="librarySection" transform="translate(150, 750)">
    <rect x="0" y="0" width="900" height="100" rx="10" ry="10" 
          fill="rgba(240, 235, 225, 0.8)" stroke="#a08060" stroke-width="1" />
    
    <!-- Section divider -->
    <line x1="450" y1="0" x2="450" y2="100" stroke="#a08060" stroke-width="1" stroke-dasharray="5,3" />
    
    <!-- Spore Library Side -->
    <text x="225" y="20" font-family="Arial" font-size="14" text-anchor="middle" fill="#704030">Spore Library</text>
    
    <!-- Spore categories -->
    <g transform="translate(50, 40)">
      <circle cx="0" cy="0" r="15" fill="url(#nodeGradient1)" opacity="0.7" />
      <text x="25" y="5" font-family="Arial" font-size="10" fill="#704030">Research Data</text>
      
      <circle cx="110" cy="0" r="15" fill="url(#nodeGradient2)" opacity="0.7" />
      <text x="135" y="5" font-family="Arial" font-size="10" fill="#704030">Concepts</text>
      
      <circle cx="220" cy="0" r="15" fill="url(#nodeGradient3)" opacity="0.7" />
      <text x="245" y="5" font-family="Arial" font-size="10" fill="#704030">Code</text>
      
      <circle cx="330" cy="0" r="15" fill="url(#nodeGradient4)" opacity="0.7" />
      <text x="355" y="5" font-family="Arial" font-size="10" fill="#704030">Notes</text>
    </g>
    
    <!-- Germination Queue -->
    <text x="225" y="80" font-family="Arial" font-size="12" text-anchor="middle" fill="#704030">Germination Queue: 3 Items Ready</text>
    
    <!-- Harvest Collection Side -->
    <text x="675" y="20" font-family="Arial" font-size="14" text-anchor="middle" fill="#704030">Harvest Collection</text>
    
    <!-- Harvest categories -->
    <g transform="translate(500, 40)">
      <g transform="translate(0, 0) scale(0.6)">
        <path d="M0,0 C10,-15 20,-20 30,-15 S40,0 30,10 S10,15 0,10 S-10,0 0,0" 
              fill="#e0c080" stroke="#a08060" stroke-width="1" />
        <line x1="0" y1="10" x2="0" y2="30" stroke="#a08060" stroke-width="2" />
      </g>
      <text x="25" y="5" font-family="Arial" font-size="10" fill="#704030">Insights: 4</text>
      
      <g transform="translate(110, 0)">
        <rect x="-10" y="-10" width="20" height="20" fill="rgba(240, 220, 180, 0.9)" stroke="#a08060" stroke-width="1" />
      </g>
      <text x="135" y="5" font-family="Arial" font-size="10" fill="#704030">Patterns: 7</text>
      
      <g transform="translate(220, 0)">
        <path d="M-10,-10 L10,-10 L10,10 L-10,10 Z" fill="rgba(220, 240, 220, 0.9)" stroke="#70a070" stroke-width="1" />
        <line x1="-5" y1="0" x2="5" y2="0" stroke="#70a070" stroke-width="1" />
        <line x1="0" y1="-5" x2="0" y2="5" stroke="#70a070" stroke-width="1" />
      </g>
      <text x="245" y="5" font-family="Arial" font-size="10" fill="#704030">Extracts: 2</text>
    </g>
    
    <!-- Collection Status -->
    <text x="675" y="80" font-family="Arial" font-size="12" text-anchor="middle" fill="#704030">Recent Harvest: 2 New Items</text>
  </g>
  
  <!-- Environmental Controls (Top, 5% of space) -->
  <g id="controlsSection" transform="translate(150, 40)">
    <rect x="0" y="0" width="900" height="60" rx="10" ry="10" 
          fill="rgba(240, 235, 225, 0.8)" stroke="#a08060" stroke-width="1" />
    
    <text x="450" y="20" font-family="Arial" font-size="14" text-anchor="middle" fill="#704030">Mycelial Knowledge Network</text>
    
    <!-- Control sliders -->
    <g transform="translate(50, 35)">
      <text x="0" y="0" font-family="Arial" font-size="10" fill="#704030">Humidity:</text>
      <line x1="70" y1="0" x2="170" y2="0" stroke="#a08060" stroke-width="1" />
      <circle cx="130" cy="0" r="5" fill="#a08060" />
      
      <text x="200" y="0" font-family="Arial" font-size="10" fill="#704030">Temperature:</text>
      <line x1="280" y1="0" x2="380" y2="0" stroke="#a08060" stroke-width="1" />
      <circle cx="340" cy="0" r="5" fill="#a08060" />
      
      <text x="410" y="0" font-family="Arial" font-size="10" fill="#704030">Light Cycle:</text>
      <line x1="480" y1="0" x2="580" y2="0" stroke="#a08060" stroke-width="1" />
      <circle cx="520" cy="0" r="5" fill="#a08060" />
      
      <text x="610" y="0" font-family="Arial" font-size="10" fill="#704030">Nutrients:</text>
      <line x1="670" y1="0" x2="770" y2="0" stroke="#a08060" stroke-width="1" />
      <circle cx="710" cy="0" r="5" fill="#a08060" />
    </g>
  </g>
  
  <!-- Active Connection Animations -->
  <g id="activeConnectionLayer" opacity="0.8">
    <!-- Pulsing information flow along primary connection -->
    <circle cx="550" cy="525" r="5" fill="rgba(255, 255, 210, 0.9)" filter="url(#glow)">
      <animate attributeName="cx" from="550" to="700" dur="3s" repeatCount="indefinite" />
      <animate attributeName="cy" from="525" to="425" dur="3s" repeatCount="indefinite" />
      <animate attributeName="opacity" values="0.9;0.5;0.9" dur="1.5s" repeatCount="indefinite" />
    </circle>
    
    <!-- Growth front animation -->
    <path d="M825,375 C830,370 835,365 840,360" 
          fill="none" stroke="#a0c4ff" stroke-width="2" stroke-linecap="round" opacity="0">
      <animate attributeName="opacity" values="0;1;0.8" dur="5s" repeatCount="indefinite" />
    </path>
    
    <path d="M775,380 C780,375 785,370 790,365" 
          fill="none" stroke="#a0ffa0" stroke-width="2" stroke-linecap="round" opacity="0">
      <animate attributeName="opacity" values="0;1;0.8" dur="4s" repeatCount="indefinite" />
    </path>
  </g>
  
  <!-- Hover and selection feedback -->
  <g id="interactionLayer">
    <!-- Hover state on a node -->
    <circle cx="700" cy="425" r="26" fill="none" stroke="rgba(255, 200, 100, 0.7)" stroke-width="2" stroke-dasharray="5,3">
      <animate attributeName="r" values="24;26;24" dur="2s" repeatCount="indefinite" />
    </circle>
    
    <!-- Selected node -->
    <circle cx="550" cy="525" r="28" fill="none" stroke="rgba(255, 230, 150, 0.9)" stroke-width="3">
      <animate attributeName="stroke-opacity" values="0.9;0.6;0.9" dur="2s" repeatCount="indefinite" />
    </circle>
    
    <!-- Active tool indicator -->
    <circle cx="70" cy="200" r="10" fill="rgba(255, 200, 100, 0.5)" filter="url(#glow)">
      <animate attributeName="r" values="8;10;8" dur="1.5s" repeatCount="indefinite" />
    </circle>
  </g>
</svg>