<svg xmlns="http://www.w3.org/2000/svg" viewBox="0 0 1000 700" width="1000" height="700">
  <!-- Background -->
  <rect width="1000" height="700" fill="#f8fafc"/>
  
  <!-- Header -->
  <rect x="0" y="0" width="1000" height="60" fill="#1e293b"/>
  <text x="25" y="38" font-family="Arial" font-size="22" fill="white">NeuroContext</text>
  <text x="180" y="38" font-family="Arial" font-size="14" fill="#94a3b8">Neural Memory Management System</text>
  
  <!-- Navigation -->
  <rect x="600" y="15" width="80" height="30" rx="15" fill="#3b82f6"/>
  <text x="640" y="35" font-family="Arial" font-size="14" fill="white" text-anchor="middle">Memory</text>
  
  <rect x="690" y="15" width="80" height="30" rx="15" fill="#2563eb" opacity="0.6"/>
  <text x="730" y="35" font-family="Arial" font-size="14" fill="white" text-anchor="middle">Graph</text>
  
  <rect x="780" y="15" width="80" height="30" rx="15" fill="#2563eb" opacity="0.6"/>
  <text x="820" y="35" font-family="Arial" font-size="14" fill="white" text-anchor="middle">Analytics</text>
  
  <circle cx="900" cy="30" r="20" fill="#0ea5e9"/>
  <text x="900" y="35" font-family="Arial" font-size="14" fill="white" text-anchor="middle">JS</text>
  
  <!-- Main Split UI -->
  <!-- Left Panel - Memory Timeline -->
  <rect x="0" y="60" width="300" height="640" fill="#f1f5f9"/>
  
  <!-- Timeline Header -->
  <rect x="0" y="60" width="300" height="50" fill="#e2e8f0"/>
  <text x="20" y="90" font-family="Arial" font-size="16" fill="#334155" font-weight="bold">Memory Timeline</text>
  
  <!-- Timeline Controls -->
  <rect x="180" y="72" width="25" height="25" rx="4" fill="#cbd5e0"/>
  <text x="192" y="90" font-family="Arial" font-size="18" fill="#475569" text-anchor="middle">−</text>
  
  <rect x="215" y="72" width="25" height="25" rx="4" fill="#cbd5e0"/>
  <text x="227" y="90" font-family="Arial" font-size="18" fill="#475569" text-anchor="middle">+</text>
  
  <rect x="250" y="72" width="30" height="25" rx="4" fill="#cbd5e0"/>
  <text x="265" y="90" font-family="Arial" font-size="18" fill="#475569" text-anchor="middle">⋮</text>
  
  <!-- Memory Decay Visualization -->
  <!-- Day 1 Memories (strongest) -->
  <rect x="20" y="130" width="260" height="80" rx="5" fill="#f8fafc" stroke="#cbd5e0" stroke-width="1"/>
  <rect x="20" y="130" width="8" height="80" rx="4" fill="#3b82f6"/>
  <text x="40" y="150" font-family="Arial" font-size="14" fill="#1e40af" font-weight="bold">Database Schema Design</text>
  <text x="40" y="170" font-family="Arial" font-size="12" fill="#64748b">Last accessed: Today</text>
  <text x="40" y="188" font-family="Arial" font-size="12" fill="#64748b">Recall strength: 94% (Frequent use)</text>
  <rect x="220" y="140" width="50" height="20" rx="10" fill="#bfdbfe"/>
  <text x="245" y="155" font-family="Arial" font-size="12" fill="#1e40af" text-anchor="middle">Active</text>
  
  <!-- Day 3 Memories (medium strength) -->
  <rect x="20" y="220" width="260" height="80" rx="5" fill="#f8fafc" stroke="#cbd5e0" stroke-width="1"/>
  <rect x="20" y="220" width="8" height="80" rx="4" fill="#60a5fa"/>
  <text x="40" y="240" font-family="Arial" font-size="14" fill="#1e40af" font-weight="bold">User Authentication System</text>
  <text x="40" y="260" font-family="Arial" font-size="12" fill="#64748b">Last accessed: 3 days ago</text>
  <text x="40" y="278" font-family="Arial" font-size="12" fill="#64748b">Recall strength: 76% (Moderate decay)</text>
  <rect x="220" y="230" width="50" height="20" rx="10" fill="#e2e8f0"/>
  <text x="245" y="245" font-family="Arial" font-size="12" fill="#64748b" text-anchor="middle">Cached</text>
  
  <!-- Week ago Memories (fading) -->
  <rect x="20" y="310" width="260" height="80" rx="5" fill="#f8fafc" stroke="#cbd5e0" stroke-width="1" opacity="0.9"/>
  <rect x="20" y="310" width="8" height="80" rx="4" fill="#93c5fd"/>
  <text x="40" y="330" font-family="Arial" font-size="14" fill="#1e40af" font-weight="bold">API Documentation</text>
  <text x="40" y="350" font-family="Arial" font-size="12" fill="#64748b">Last accessed: 1 week ago</text>
  <text x="40" y="368" font-family="Arial" font-size="12" fill="#64748b">Recall strength: 52% (Significant decay)</text>
  <rect x="200" y="320" width="70" height="20" rx="10" fill="#e2e8f0"/>
  <text x="235" y="335" font-family="Arial" font-size="12" fill="#64748b" text-anchor="middle">Compress</text>
  
  <!-- Month ago Memories (very faded) -->
  <rect x="20" y="400" width="260" height="80" rx="5" fill="#f8fafc" stroke="#cbd5e0" stroke-width="1" opacity="0.7"/>
  <rect x="20" y="400" width="8" height="80" rx="4" fill="#bfdbfe"/>
  <text x="40" y="420" font-family="Arial" font-size="14" fill="#1e40af" font-weight="bold">Initial Requirements</text>
  <text x="40" y="440" font-family="Arial" font-size="12" fill="#64748b">Last accessed: 1 month ago</text>
  <text x="40" y="458" font-family="Arial" font-size="12" fill="#64748b">Recall strength: 23% (Heavy decay)</text>
  <rect x="200" y="410" width="70" height="20" rx="10" fill="#e2e8f0"/>
  <text x="235" y="425" font-family="Arial" font-size="12" fill="#64748b" text-anchor="middle">Archive</text>
  
  <!-- Memory Decay Controls -->
  <rect x="20" y="500" width="260" height="140" rx="5" fill="#e2e8f0"/>
  <text x="40" y="525" font-family="Arial" font-size="14" fill="#334155" font-weight="bold">Memory Metabolism Settings</text>
  
  <text x="40" y="555" font-family="Arial" font-size="12" fill="#475569">Decay Rate:</text>
  <rect x="120" y="545" width="140" height="8" rx="4" fill="#cbd5e0"/>
  <rect x="120" y="545" width="75" height="8" rx="4" fill="#3b82f6"/>
  <circle cx="195" cy="549" r="8" fill="white" stroke="#3b82f6" stroke-width="2"/>
  <text x="240" y="555" font-family="Arial" font-size="12" fill="#475569">Medium</text>
  
  <text x="40" y="585" font-family="Arial" font-size="12" fill="#475569">Importance Threshold:</text>
  <rect x="170" y="575" width="90" height="8" rx="4" fill="#cbd5e0"/>
  <rect x="170" y="575" width="60" height="8" rx="4" fill="#3b82f6"/>
  <circle cx="230" cy="579" r="8" fill="white" stroke="#3b82f6" stroke-width="2"/>
  <text x="240" y="585" font-family="Arial" font-size="12" fill="#475569">High</text>
  
  <text x="40" y="615" font-family="Arial" font-size="12" fill="#475569">Auto-Compression:</text>
  <rect x="150" y="605" width="110" height="8" rx="4" fill="#cbd5e0"/>
  <rect x="150" y="605" width="85" height="8" rx="4" fill="#3b82f6"/>
  <circle cx="235" cy="609" r="8" fill="white" stroke="#3b82f6" stroke-width="2"/>
  <text x="240" y="615" font-family="Arial" font-size="12" fill="#475569">Enabled</text>
  
  <!-- Center Panel - Active Context -->
  <rect x="300" y="60" width="400" height="640" fill="white"/>
  
  <!-- Active Context Header -->
  <rect x="300" y="60" width="400" height="50" fill="#f8fafc"/>
  <text x="325" y="90" font-family="Arial" font-size="16" fill="#334155" font-weight="bold">Active Context: Database Architecture</text>
  
  <!-- Context Stats Bar -->
  <rect x="590" y="75" width="90" height="20" rx="10" fill="#bfdbfe"/>
  <text x="610" y="89" font-family="Arial" font-size="12" fill="#1e40af">4,320 tokens</text>
  
  <!-- Active Memory Diagram -->
  <rect x="320" y="130" width="360" height="260" rx="5" fill="#f8fafc"/>
  
  <!-- Central Node (Current Topic) -->
  <circle cx="500" cy="200" r="60" fill="#bfdbfe" stroke="#3b82f6" stroke-width="2"/>
  <text x="500" y="195" font-family="Arial" font-size="14" fill="#1e40af" font-weight="bold" text-anchor="middle">Database</text>
  <text x="500" y="215" font-family="Arial" font-size="14" fill="#1e40af" font-weight="bold" text-anchor="middle">Schema</text>
  
  <!-- Related Node 1 (Strong) -->
  <circle cx="380" cy="150" r="40" fill="#dbeafe" stroke="#3b82f6" stroke-width="1"/>
  <text x="380" y="155" font-family="Arial" font-size="12" fill="#1e40af" text-anchor="middle">User Tables</text>
  <line x1="435" y1="168" x2="457" y2="180" stroke="#3b82f6" stroke-width="3"/>
  
  <!-- Related Node 2 (Strong) -->
  <circle cx="620" cy="150" r="40" fill="#dbeafe" stroke="#3b82f6" stroke-width="1"/>
  <text x="620" y="155" font-family="Arial" font-size="12" fill="#1e40af" text-anchor="middle">Content</text>
  <text x="620" y="170" font-family="Arial" font-size="12" fill="#1e40af" text-anchor="middle">Models</text>
  <line x1="585" y1="170" x2="560" y2="180" stroke="#3b82f6" stroke-width="3"/>
  
  <!-- Related Node 3 (Medium) -->
  <circle cx="380" cy="260" r="35" fill="#eff6ff" stroke="#60a5fa" stroke-width="1"/>
  <text x="380" y="265" font-family="Arial" font-size="11" fill="#1e40af" text-anchor="middle">Indices</text>
  <line x1="415" y1="260" x2="440" y2="220" stroke="#60a5fa" stroke-width="2"/>
  
  <!-- Related Node 4 (Medium) -->
  <circle cx="620" cy="260" r="35" fill="#eff6ff" stroke="#60a5fa" stroke-width="1"/>
  <text x="620" y="265" font-family="Arial" font-size="11" fill="#1e40af" text-anchor="middle">Relations</text>
  <line x1="585" y1="260" x2="550" y2="230" stroke="#60a5fa" stroke-width="2"/>
  
  <!-- Related Node 5 (Weak) -->
  <circle cx="500" cy="320" r="25" fill="#f0f9ff" stroke="#93c5fd" stroke-width="1" opacity="0.8"/>
  <text x="500" y="325" font-family="Arial" font-size="10" fill="#1e40af" text-anchor="middle">Auth</text>
  <line x1="500" y1="295" x2="500" y2="260" stroke="#93c5fd" stroke-width="1" stroke-dasharray="5,3"/>
  
  <!-- Context Conversation -->
  <rect x="320" y="410" width="360" height="240" rx="5" fill="#f8fafc"/>
  
  <!-- Messages -->
  <rect x="340" y="430" width="320" height="60" rx="10" fill="#dbeafe" opacity="0.3"/>
  <text x="360" y="455" font-family="Arial" font-size="12" fill="#334155" font-weight="bold">You</text>
  <text x="360" y="475" font-family="Arial" font-size="12" fill="#475569">How should we structure the database for optimized query performance?</text>
  
  <rect x="340" y="500" width="320" height="80" rx="10" fill="#dbeafe" opacity="0.5"/>
  <text x="360" y="525" font-family="Arial" font-size="12" fill="#334155" font-weight="bold">Assistant</text>
  <text x="360" y="545" font-family="Arial" font-size="12" fill="#475569">Based on your schema design, I recommend partitioning the content tables by date and implementing read replicas for heavy query loads.</text>
  <text x="360" y="565" font-family="Arial" font-size="12" fill="#1e40af">Context-aware response draws from active memory nodes.</text>
  
  <rect x="340" y="590" width="320" height="40" rx="10" fill="#dbeafe" opacity="0.3"/>
  <text x="360" y="615" font-family="Arial" font-size="12" fill="#334155" font-weight="bold">System Message</text>
  <text x="510" y="615" font-family="Arial" font-size="12" fill="#0c4a6e" font-style="italic">Adding "Database Indexing" to active context...</text>
  
  <!-- Right Panel - Adaptive Context & Metabolism -->
  <rect x="700" y="60" width="300" height="640" fill="#f8fafc"/>
  
  <!-- Adaptive Context Header -->
  <rect x="700" y="60" width="300" height="50" fill="#e2e8f0"/>
  <text x="730" y="90" font-family="Arial" font-size="16" fill="#334155" font-weight="bold">Context Metabolism</text>
  
  <!-- Memory Insights -->
  <rect x="720" y="130" width="260" height="100" rx="10" fill="white" stroke="#cbd5e0" stroke-width="1"/>
  <text x="740" y="155" font-family="Arial" font-size="14" fill="#334155" font-weight="bold">Memory Insights</text>
  <text x="740" y="180" font-family="Arial" font-size="12" fill="#475569">Optimal token usage: 4,320/10,000</text>
  <text x="740" y="200" font-family="Arial" font-size="12" fill="#475569">Compression saved: 5,680 tokens</text>
  <text x="740" y="220" font-family="Arial" font-size="12" fill="#475569">Knowledge recall: 94% accuracy</text>
  
  <!-- Memory Health -->
  <rect x="720" y="240" width="260" height="140" rx="10" fill="white" stroke="#cbd5e0" stroke-width="1"/>
  <text x="740" y="265" font-family="Arial" font-size="14" fill="#334155" font-weight="bold">Memory Health</text>
  
  <!-- Memory Health Chart -->
  <rect x="740" y="280" width="220" height="80" rx="5" fill="#f8fafc"/>
  
  <!-- Axes -->
  <line x1="770" y1="340" x2="930" y2="340" stroke="#cbd5e0" stroke-width="1"/>
  <line x1="770" y1="340" x2="770" y2="290" stroke="#cbd5e0" stroke-width="1"/>
  
  <!-- Memory Health Line -->
  <path d="M770,320 Q800,310 840,300 Q880,315 930,290" fill="none" stroke="#3b82f6" stroke-width="2"/>
  
  <!-- Data Points -->
  <circle cx="770" cy="320" r="4" fill="#3b82f6"/>
  <circle cx="840" cy="300" r="4" fill="#3b82f6"/>
  <circle cx="930" cy="290" r="4" fill="#3b82f6"/>
  
  <text x="740" y="360" font-family="Arial" font-size="10" fill="#64748b">Dynamic optimization maintaining high recall</text>
  
  <!-- Memory Actions -->
  <rect x="720" y="390" width="260" height="150" rx="10" fill="white" stroke="#cbd5e0" stroke-width="1"/>
  <text x="740" y="415" font-family="Arial" font-size="14" fill="#334155" font-weight="bold">Context Actions</text>
  
  <rect x="740" y="430" width="220" height="35" rx="5" fill="#bfdbfe"/>
  <text x="850" y="452" font-family="Arial" font-size="12" fill="#1e40af" text-anchor="middle">Optimize Context</text>
  
  <rect x="740" y="475" width="220" height="35" rx="5" fill="white" stroke="#3b82f6" stroke-width="1"/>
  <text x="850" y="497" font-family="Arial" font-size="12" fill="#1e40af" text-anchor="middle">Refresh Fading Memories</text>
  
  <rect x="740" y="520" width="105" height="35" rx="5" fill="white" stroke="#3b82f6" stroke-width="1"/>
  <text x="792" y="542" font-family="Arial" font-size="12" fill="#1e40af" text-anchor="middle">Archive</text>
  
  <rect x="855" y="520" width="105" height="35" rx="5" fill="white" stroke="#3b82f6" stroke-width="1"/>
  <text x="907" y="542" font-family="Arial" font-size="12" fill="#1e40af" text-anchor="middle">Retrieve</text>
  
  <!-- Memory Analytics -->
  <rect x="720" y="550" width="260" height="130" rx="10" fill="white" stroke="#cbd5e0" stroke-width="1"/>
  <text x="740" y="575" font-family="Arial" font-size="14" fill="#334155" font-weight="bold">Knowledge Domain Stats</text>
  
  <rect x="740" y="590" width="220" height="25" rx="5" fill="#f8fafc"/>
  <text x="760" y="607" font-family="Arial" font-size="12" fill="#475569">Database Design</text>
  <rect x="880" y="595" width="70" height="15" rx="7.5" fill="#e2e8f0"/>
  <rect x="880" y="595" width="63" height="15" rx="7.5" fill="#3b82f6"/>
  <text x="920" y="607" font-family="Arial" font-size="10" fill="white" text-anchor="middle">90%</text>
  
  <rect x="740" y="625" width="220" height="25" rx="5" fill="#f8fafc"/>
  <text x="760" y="642" font-family="Arial" font-size="12" fill="#475569">API Integration</text>
  <rect x="880" y="630" width="70" height="15" rx="7.5" fill="#e2e8f0"/>
  <rect x="880" y="630" width="35" height="15" rx="7.5" fill="#60a5fa"/>
  <text x="920" y="642" font-family="Arial" font-size="10" fill="#64748b" text-anchor="middle">50%</text>
  
  <rect x="740" y="660" width="220" height="25" rx="5" fill="#f8fafc"/>
  <text x="760" y="677" font-family="Arial" font-size="12" fill="#475569">UI Components</text>
  <rect x="880" y="665" width="70" height="15" rx="7.5" fill="#e2e8f0"/>
  <rect x="880" y="665" width="14" height="15" rx="7.5" fill="#93c5fd"/>
  <text x="920" y="677" font-family="Arial" font-size="10" fill="#64748b" text-anchor="middle">20%</text>
</svg>