<svg xmlns="http://www.w3.org/2000/svg" viewBox="0 0 1000 700" width="1000" height="700">
  <!-- Background -->
  <rect width="1000" height="700" fill="#f8fafc"/>
  
  <!-- Header -->
  <rect x="0" y="0" width="1000" height="60" fill="#0f172a"/>
  <text x="25" y="38" font-family="Arial" font-size="22" fill="white">PredictiveContext</text>
  <text x="220" y="38" font-family="Arial" font-size="14" fill="#94a3b8">Anticipatory Knowledge Management</text>
  
  <!-- Navigation Tabs -->
  <rect x="600" y="15" width="100" height="30" rx="15" fill="#0ea5e9"/>
  <text x="650" y="35" font-family="Arial" font-size="14" fill="white" text-anchor="middle">Predictive</text>
  
  <rect x="710" y="15" width="100" height="30" rx="15" fill="#0284c7" opacity="0.6"/>
  <text x="760" y="35" font-family="Arial" font-size="14" fill="white" text-anchor="middle">Context</text>
  
  <rect x="820" y="15" width="100" height="30" rx="15" fill="#0284c7" opacity="0.6"/>
  <text x="870" y="35" font-family="Arial" font-size="14" fill="white" text-anchor="middle">History</text>
  
  <circle cx="950" cy="30" r="20" fill="#06b6d4"/>
  <text x="950" y="35" font-family="Arial" font-size="14" fill="white" text-anchor="middle">LS</text>
  
  <!-- Main Content Area -->
  <!-- Left Column - Predictive Context Suggestions -->
  <rect x="20" y="80" width="320" height="600" rx="10" fill="white" stroke="#e2e8f0" stroke-width="1"/>
  
  <!-- Section Header -->
  <rect x="20" y="80" width="320" height="50" rx="10 10 0 0" fill="#f1f5f9"/>
  <text x="40" y="110" font-family="Arial" font-size="16" fill="#0f172a" font-weight="bold">Suggested Context</text>
  <text x="250" y="110" font-family="Arial" font-size="12" fill="#64748b">Auto-refreshing</text>
  
  <!-- Context Suggestion 1 - High Relevance -->
  <rect x="40" y="150" width="280" height="100" rx="8" fill="#f0fdfa" stroke="#5eead4" stroke-width="2"/>
  <text x="60" y="175" font-family="Arial" font-size="14" fill="#134e4a" font-weight="bold">Performance Optimizations</text>
  <text x="60" y="195" font-family="Arial" font-size="12" fill="#475569">Recent benchmark data shows potential for 30% improvement through query optimization.</text>
  <text x="60" y="215" font-family="Arial" font-size="12" fill="#134e4a" font-style="italic">Predicted relevance: 96%</text>
  
  <rect x="230" y="235" width="80" height="25" rx="12.5" fill="#5eead4"/>
  <text x="270" y="252" font-family="Arial" font-size="12" fill="#134e4a" text-anchor="middle">Add Now</text>
  
  <!-- Context Suggestion 2 - Medium Relevance -->
  <rect x="40" y="270" width="280" height="100" rx="8" fill="#f0f9ff" stroke="#7dd3fc" stroke-width="2"/>
  <text x="60" y="295" font-family="Arial" font-size="14" fill="#0c4a6e" font-weight="bold">Similar Use Cases</text>
  <text x="60" y="315" font-family="Arial" font-size="12" fill="#475569">3 previous projects implemented similar database architecture with success.</text>
  <text x="60" y="335" font-family="Arial" font-size="12" fill="#0c4a6e" font-style="italic">Predicted relevance: 78%</text>
  
  <rect x="230" y="355" width="80" height="25" rx="12.5" fill="#7dd3fc"/>
  <text x="270" y="372" font-family="Arial" font-size="12" fill="#0c4a6e" text-anchor="middle">Add Now</text>
  
  <!-- Context Suggestion 3 - Lower Relevance -->
  <rect x="40" y="390" width="280" height="100" rx="8" fill="#f8fafc" stroke="#cbd5e0" stroke-width="1"/>
  <text x="60" y="415" font-family="Arial" font-size="14" fill="#475569" font-weight="bold">Latest API Documentation</text>
  <text x="60" y="435" font-family="Arial" font-size="12" fill="#475569">Updated documentation for database connector APIs.</text>
  <text x="60" y="455" font-family="Arial" font-size="12" fill="#475569" font-style="italic">Predicted relevance: 45%</text>
  
  <rect x="230" y="475" width="80" height="25" rx="12.5" fill="#e2e8f0"/>
  <text x="270" y="492" font-family="Arial" font-size="12" fill="#475569" text-anchor="middle">Add Now</text>
  
  <!-- Predictive Settings -->
  <rect x="40" y="520" width="280" height="140" rx="8" fill="#f1f5f9"/>
  <text x="60" y="545" font-family="Arial" font-size="14" fill="#0f172a" font-weight="bold">Prediction Settings</text>
  
  <text x="60" y="575" font-family="Arial" font-size="12" fill="#475569">Suggestion Threshold:</text>
  <rect x="190" y="565" width="100" height="8" rx="4" fill="#cbd5e0"/>
  <rect x="190" y="565" width="40" height="8" rx="4" fill="#0ea5e9"/>
  <circle cx="230" cy="569" r="8" fill="white" stroke="#0ea5e9" stroke-width="2"/>
  <text x="295" y="575" font-family="Arial" font-size="12" fill="#475569">40%</text>
  
  <text x="60" y="605" font-family="Arial" font-size="12" fill="#475569">Context Lookback:</text>
  <rect x="190" y="595" width="100" height="8" rx="4" fill="#cbd5e0"/>
  <rect x="190" y="595" width="70" height="8" rx="4" fill="#0ea5e9"/>
  <circle cx="260" cy="599" r="8" fill="white" stroke="#0ea5e9" stroke-width="2"/>
  <text x="295" y="605" font-family="Arial" font-size="12" fill="#475569">7 days</text>
  
  <text x="60" y="635" font-family="Arial" font-size="12" fill="#475569">Domain Focus:</text>
  <rect x="190" y="625" width="100" height="8" rx="4" fill="#cbd5e0"/>
  <rect x="190" y="625" width="85" height="8" rx="4" fill="#0ea5e9"/>
  <circle cx="275" cy="629" r="8" fill="white" stroke="#0ea5e9" stroke-width="2"/>
  <text x="295" y="635" font-family="Arial" font-size="12" fill="#475569">Narrow</text>
  
  <!-- Center Column - Current Conversation with Anomaly Detection -->
  <rect x="360" y="80" width="350" height="600" rx="10" fill="white" stroke="#e2e8f0" stroke-width="1"/>
  
  <!-- Conversation Header -->
  <rect x="360" y="80" width="350" height="50" rx="10 10 0 0" fill="#f1f5f9"/>
  <text x="380" y="110" font-family="Arial" font-size="16" fill="#0f172a" font-weight="bold">Current Conversation</text>
  <rect x="580" y="95" width="110" height="20" rx="10" fill="#0ea5e9"/>
  <text x="635" y="110" font-family="Arial" font-size="12" fill="white" text-anchor="middle">Database Focus</text>
  
  <!-- Conversation Thread -->
  <!-- Message 1 -->
  <rect x="380" y="150" width="310" height="60" rx="8" fill="#f8fafc"/>
  <circle cx="400" cy="170" r="15" fill="#cbd5e0"/>
  <text x="400" y="174" font-family="Arial" font-size="12" fill="#475569" text-anchor="middle">LS</text>
  <text x="430" y="170" font-family="Arial" font-size="13" fill="#0f172a" font-weight="bold">You</text>
  <text x="430" y="190" font-family="Arial" font-size="12" fill="#334155">Let's discuss the database design for our new user management system.</text>
  
  <!-- Message 2 -->
  <rect x="380" y="220" width="310" height="80" rx="8" fill="#f0f9ff"/>
  <circle cx="400" cy="240" r="15" fill="#7dd3fc"/>
  <text x="400" y="244" font-family="Arial" font-size="12" fill="white" text-anchor="middle">AI</text>
  <text x="430" y="240" font-family="Arial" font-size="13" fill="#0f172a" font-weight="bold">Assistant</text>
  <text x="430" y="260" font-family="Arial" font-size="12" fill="#334155">Let's start with the user table structure. Based on your requirements, we should include authentication fields and profile data.</text>
  <text x="430" y="280" font-family="Arial" font-size="12" fill="#334155">What specific functionality do you need?</text>
  
  <!-- Message 3 -->
  <rect x="380" y="310" width="310" height="60" rx="8" fill="#f8fafc"/>
  <circle cx="400" cy="330" r="15" fill="#cbd5e0"/>
  <text x="400" y="334" font-family="Arial" font-size="12" fill="#475569" text-anchor="middle">LS</text>
  <text x="430" y="330" font-family="Arial" font-size="13" fill="#0f172a" font-weight="bold">You</text>
  <text x="430" y="350" font-family="Arial" font-size="12" fill="#334155">We need to support multi-tenant access and role-based permissions.</text>
  
  <!-- Message 4 - Assistant with suggestion -->
  <rect x="380" y="380" width="310" height="110" rx="8" fill="#f0f9ff"/>
  <circle cx="400" cy="400" r="15" fill="#7dd3fc"/>
  <text x="400" y="404" font-family="Arial" font-size="12" fill="white" text-anchor="middle">AI</text>
  <text x="430" y="400" font-family="Arial" font-size="13" fill="#0f172a" font-weight="bold">Assistant</text>
  <text x="430" y="420" font-family="Arial" font-size="12" fill="#334155">For multi-tenant systems with role-based access, we should use a normalized approach with these tables:</text>
  <text x="430" y="440" font-family="Arial" font-size="12" fill="#334155">- Users (core profiles)</text>
  <text x="430" y="460" font-family="Arial" font-size="12" fill="#334155">- Tenants (organization data)</text>
  <text x="430" y="480" font-family="Arial" font-size="12" fill="#334155">- Roles (permission sets)</text>
  
  <!-- Message 5 - Context Anomaly Alert -->
  <rect x="380" y="500" width="310" height="70" rx="8" fill="#fff1f2" stroke="#fda4af" stroke-width="2"/>
  <circle cx="400" cy="520" r="15" fill="#f43f5e"/>
  <text x="400" y="525" font-family="Arial" font-size="14" fill="white" text-anchor="middle">!</text>
  <text x="430" y="520" font-family="Arial" font-size="13" fill="#881337" font-weight="bold">Context Shift Detected</text>
  <text x="430" y="540" font-family="Arial" font-size="12" fill="#881337">Marketing metrics question would shift focus away from database design.</text>
  <text x="430" y="560" font-family="Arial" font-size="12" fill="#881337">Would you like to create a new context branch instead?</text>
  
  <!-- Action Buttons -->
  <rect x="420" y="580" width="130" height="30" rx="15" fill="#fda4af"/>
  <text x="485" y="600" font-family="Arial" font-size="12" fill="#881337" text-anchor="middle">Create Branch</text>
  
  <rect x="560" y="580" width="80" height="30" rx="15" fill="#f1f5f9"/>
  <text x="600" y="600" font-family="Arial" font-size="12" fill="#475569" text-anchor="middle">Ignore</text>
  
  <!-- Draft Message Area -->
  <rect x="380" y="620" width="310" height="40" rx="20" fill="#f1f5f9"/>
  <text x="410" y="645" font-family="Arial" font-size="12" fill="#64748b">Type your message...</text>
  
  <!-- Right Column - Knowledge Gap Identification -->
  <rect x="730" y="80" width="250" height="600" rx="10" fill="white" stroke="#e2e8f0" stroke-width="1"/>
  
  <!-- Knowledge Gap Header -->
  <rect x="730" y="80" width="250" height="50" rx="10 10 0 0" fill="#f1f5f9"/>
  <text x="750" y="110" font-family="Arial" font-size="16" fill="#0f172a" font-weight="bold">Knowledge Gaps</text>
  
  <!-- Knowledge Gap Analysis -->
  <rect x="750" y="150" width="210" height="70" rx="8" fill="#fffbeb" stroke="#fbbf24" stroke-width="2"/>
  <text x="770" y="175" font-family="Arial" font-size="14" fill="#854d0e" font-weight="bold">Missing Information</text>
  <text x="770" y="195" font-family="Arial" font-size="12" fill="#854d0e">Database performance requirements not defined yet.</text>
  
  <rect x="830" y="205" width="100" height="25" rx="12.5" fill="#fbbf24"/>
  <text x="880" y="222" font-family="Arial" font-size="12" fill="#854d0e" text-anchor="middle">Define Now</text>
  
  <!-- Knowledge Connection Suggestion -->
  <rect x="750" y="240" width="210" height="70" rx="8" fill="#ecfdf5" stroke="#10b981" stroke-width="1"/>
  <text x="770" y="265" font-family="Arial" font-size="14" fill="#065f46" font-weight="bold">Relevant Connection</text>
  <text x="770" y="285" font-family="Arial" font-size="12" fill="#065f46">Link to "Authentication System" would complete the knowledge graph.</text>
  
  <rect x="830" y="295" width="100" height="25" rx="12.5" fill="#10b981"/>
  <text x="880" y="312" font-family="Arial" font-size="12" fill="white" text-anchor="middle">Connect</text>
  
  <!-- Intent Prediction -->
  <rect x="750" y="330" width="210" height="180" rx="8" fill="#f8fafc"/>
  <text x="770" y="355" font-family="Arial" font-size="14" fill="#0f172a" font-weight="bold">Intent Prediction</text>
  
  <!-- Intent Prediction Chart -->
  <rect x="770" y="370" width="170" height="120" rx="5" fill="#f1f5f9"/>
  
  <!-- Intent Bars -->
  <text x="780" y="390" font-family="Arial" font-size="10" fill="#64748b">Database Design</text>
  <rect x="780" y="395" width="100" height="15" rx="2" fill="#e2e8f0"/>
  <rect x="780" y="395" width="85" height="15" rx="2" fill="#0ea5e9"/>
  <text x="870" y="405" font-family="Arial" font-size="10" fill="#0c4a6e">85%</text>
  
  <text x="780" y="425" font-family="Arial" font-size="10" fill="#64748b">Authentication</text>
  <rect x="780" y="430" width="100" height="15" rx="2" fill="#e2e8f0"/>
  <rect x="780" y="430" width="60" height="15" rx="2" fill="#0ea5e9"/>
  <text x="870" y="440" font-family="Arial" font-size="10" fill="#0c4a6e">60%</text>
  
  <text x="780" y="460" font-family="Arial" font-size="10" fill="#64748b">Performance</text>
  <rect x="780" y="465" width="100" height="15" rx="2" fill="#e2e8f0"/>
  <rect x="780" y="465" width="40" height="15" rx="2" fill="#0ea5e9"/>
  <text x="870" y="475" font-family="Arial" font-size="10" fill="#0c4a6e">40%</text>
  
  <!-- Smart Snippets -->
  <rect x="750" y="530" width="210" height="130" rx="8" fill="#f0f9ff"/>
  <text x="770" y="555" font-family="Arial" font-size="14" fill="#0c4a6e" font-weight="bold">Smart Snippets</text>
  
  <rect x="770" y="575" width="170" height="65" rx="5" fill="white" stroke="#7dd3fc" stroke-width="1"/>
  <text x="780" y="595" font-size="11" fill="#0c4a6e" font-family="Consolas, monospace">CREATE TABLE Users (</text>
  <text x="780" y="610" font-size="11" fill="#0c4a6e" font-family="Consolas, monospace">  user_id UUID PRIMARY KEY,</text>
  <text x="780" y="625" font-size="11" fill="#0c4a6e" font-family="Consolas, monospace">  tenant_id UUID REFERENCES Tenants</text>
  <text x="780" y="640" font-size="11" fill="#0c4a6e" font-family="Consolas, monospace">);</text>
  
  <rect x="830" y="650" width="100" height="25" rx="12.5" fill="#7dd3fc"/>
  <text x="880" y="667" font-family="Arial" font-size="12" fill="#0c4a6e" text-anchor="middle">Insert</text>
</svg>