<svg xmlns="http://www.w3.org/2000/svg" viewBox="0 0 1000 700" width="1000" height="700">
  <!-- Background -->
  <rect width="1000" height="700" fill="#f8fafc"/>
  
  <!-- Header -->
  <rect x="0" y="0" width="1000" height="60" fill="#1e1b4b"/>
  <text x="25" y="38" font-family="Arial" font-size="22" fill="white">OmniContext</text>
  <text x="170" y="38" font-family="Arial" font-size="14" fill="#a5b4fc">Multi-Modal Knowledge Integration</text>
  
  <!-- Navigation -->
  <rect x="580" y="15" width="100" height="30" rx="15" fill="#8b5cf6"/>
  <text x="630" y="35" font-family="Arial" font-size="14" fill="white" text-anchor="middle">Multi-Modal</text>
  
  <rect x="690" y="15" width="100" height="30" rx="15" fill="#4f46e5" opacity="0.6"/>
  <text x="740" y="35" font-family="Arial" font-size="14" fill="white" text-anchor="middle">Text</text>
  
  <rect x="800" y="15" width="100" height="30" rx="15" fill="#4f46e5" opacity="0.6"/>
  <text x="850" y="35" font-family="Arial" font-size="14" fill="white" text-anchor="middle">Sources</text>
  
  <circle cx="940" cy="30" r="20" fill="#c4b5fd"/>
  <text x="940" y="35" font-family="Arial" font-size="14" fill="#312e81" text-anchor="middle">TK</text>
  
  <!-- Main Container Split -->
  <rect x="20" y="80" width="670" height="600" rx="10" fill="white" stroke="#e2e8f0" stroke-width="1"/>
  <rect x="710" y="80" width="270" height="600" rx="10" fill="white" stroke="#e2e8f0" stroke-width="1"/>
  
  <!-- Main Content Header -->
  <rect x="20" y="80" width="670" height="50" rx="10 10 0 0" fill="#f5f3ff"/>
  <text x="40" y="110" font-family="Arial" font-size="16" fill="#4c1d95" font-weight="bold">User Interface Redesign Project</text>
  
  <!-- Multi-Modal Integration Area -->
  <rect x="40" y="150" width="630" height="440" rx="8" fill="#f8fafc"/>
  
  <!-- Left Side - Text  Code -->
  <!-- Design Specification Section -->
  <rect x="60" y="170" width="300" height="200" rx="6" fill="white" stroke="#e2e8f0" stroke-width="1"/>
  <rect x="60" y="170" width="300" height="30" rx="6 6 0 0" fill="#f5f3ff"/>
  <text x="75" y="190" font-family="Arial" font-size="14" fill="#5b21b6" font-weight="bold">Design Specifications</text>
  
  <rect x="280" y="175" width="70" height="20" rx="10" fill="white" stroke="#8b5cf6" stroke-width="1"/>
  <text x="315" y="190" font-family="Arial" font-size="12" fill="#5b21b6" text-anchor="middle">Text</text>
  
  <text x="75" y="220" font-family="Arial" font-size="12" fill="#334155">The redesigned dashboard should follow our new design system with:</text>
  <text x="75" y="245" font-family="Arial" font-size="12" fill="#334155">• Consistent card-based components</text>
  <text x="75" y="270" font-family="Arial" font-size="12" fill="#334155">• 8px grid system for all spacing</text>
  <text x="75" y="295" font-family="Arial" font-size="12" fill="#334155">• Primary color: #8b5cf6</text>
  <text x="75" y="320" font-family="Arial" font-size="12" fill="#334155">• Secondary color: #4f46e5</text>
  <text x="75" y="345" font-family="Arial" font-size="12" fill="#334155">• Light mode and dark mode support</text>
  
  <!-- Code Implementation Section -->
  <rect x="60" y="390" width="300" height="180" rx="6" fill="white" stroke="#e2e8f0" stroke-width="1"/>
  <rect x="60" y="390" width="300" height="30" rx="6 6 0 0" fill="#f5f3ff"/>
  <text x="75" y="410" font-family="Arial" font-size="14" fill="#5b21b6" font-weight="bold">Component Implementation</text>
  
  <rect x="280" y="395" width="70" height="20" rx="10" fill="white" stroke="#8b5cf6" stroke-width="1"/>
  <text x="315" y="410" font-family="Arial" font-size="12" fill="#5b21b6" text-anchor="middle">Code</text>
  
  <rect x="75" y="430" width="270" height="125" rx="4" fill="#f8fafc"/>
  <text x="85" y="450" font-family="Consolas, monospace" font-size="12" fill="#334155">.dashboard-card {</text>
  <text x="85" y="470" font-family="Consolas, monospace" font-size="12" fill="#334155">  border-radius: 8px;</text>
  <text x="85" y="490" font-family="Consolas, monospace" font-size="12" fill="#334155">  padding: 16px;</text>
  <text x="85" y="510" font-family="Consolas, monospace" font-size="12" fill="#334155">  box-shadow: 0 4px 6px -1px</text>
  <text x="85" y="530" font-family="Consolas, monospace" font-size="12" fill="#334155">    rgba(0, 0, 0, 0.1);</text>
  <text x="85" y="550" font-family="Consolas, monospace" font-size="12" fill="#334155">}</text>
  
  <!-- Right Side - Visual  Interactive Content -->
  <!-- Design Mockup Image -->
  <rect x="380" y="170" width="270" height="180" rx="6" fill="white" stroke="#e2e8f0" stroke-width="1"/>
  <rect x="380" y="170" width="270" height="30" rx="6 6 0 0" fill="#f5f3ff"/>
  <text x="395" y="190" font-family="Arial" font-size="14" fill="#5b21b6" font-weight="bold">Dashboard Mockup</text>
  
  <rect x="560" y="175" width="70" height="20" rx="10" fill="white" stroke="#8b5cf6" stroke-width="1"/>
  <text x="595" y="190" font-family="Arial" font-size="12" fill="#5b21b6" text-anchor="middle">Image</text>
  
  <!-- Mock Dashboard Image -->
  <rect x="395" y="210" width="240" height="130" rx="4" fill="#f1f5f9"/>
  
  <!-- Dashboard Header -->
  <rect x="395" y="210" width="240" height="25" rx="4 4 0 0" fill="#8b5cf6"/>
  <circle cx="410" cy="222" r="5" fill="white"/>
  <text x="430" y="226" font-family="Arial" font-size="10" fill="white">Dashboard</text>
  
  <!-- Dashboard Cards -->
  <rect x="405" y="245" width="70" height="40" rx="3" fill="white" stroke="#e2e8f0" stroke-width="1"/>
  <rect x="405" y="245" width="70" height="10" rx="3 3 0 0" fill="#f5f3ff"/>
  
  <rect x="485" y="245" width="70" height="40" rx="3" fill="white" stroke="#e2e8f0" stroke-width="1"/>
  <rect x="485" y="245" width="70" height="10" rx="3 3 0 0" fill="#f5f3ff"/>
  
  <rect x="405" y="295" width="150" height="35" rx="3" fill="white" stroke="#e2e8f0" stroke-width="1"/>
  <rect x="405" y="295" width="150" height="10" rx="3 3 0 0" fill="#f5f3ff"/>
  
  <rect x="565" y="245" width="60" height="85" rx="3" fill="white" stroke="#e2e8f0" stroke-width="1"/>
  <rect x="565" y="245" width="60" height="10" rx="3 3 0 0" fill="#f5f3ff"/>
  
  <!-- Data Visualization Section -->
  <rect x="380" y="370" width="270" height="200" rx="6" fill="white" stroke="#e2e8f0" stroke-width="1"/>
  <rect x="380" y="370" width="270" height="30" rx="6 6 0 0" fill="#f5f3ff"/>
  <text x="395" y="390" font-family="Arial" font-size="14" fill="#5b21b6" font-weight="bold">User Flow Diagram</text>
  
  <rect x="560" y="375" width="70" height="20" rx="10" fill="white" stroke="#8b5cf6" stroke-width="1"/>
  <text x="595" y="390" font-family="Arial" font-size="12" fill="#5b21b6" text-anchor="middle">Diagram</text>
  
  <!-- Simple User Flow Diagram -->
  <rect x="395" y="410" width="240" height="150" rx="4" fill="#f8fafc"/>
  
  <!-- Diagram Nodes -->
  <rect x="440" y="430" width="70" height="30" rx="15" fill="#c4b5fd"/>
  <text x="475" y="450" font-family="Arial" font-size="10" fill="#4c1d95" text-anchor="middle">Login</text>
  
  <rect x="440" y="490" width="70" height="30" rx="15" fill="#c4b5fd"/>
  <text x="475" y="510" font-family="Arial" font-size="10" fill="#4c1d95" text-anchor="middle">Dashboard</text>
  
  <rect x="530" y="490" width="70" height="30" rx="15" fill="#c4b5fd"/>
  <text x="565" y="510" font-family="Arial" font-size="10" fill="#4c1d95" text-anchor="middle">Settings</text>
  
  <!-- Connection Lines -->
  <line x1="475" y1="460" x2="475" y2="490" stroke="#8b5cf6" stroke-width="2"/>
  <line x1="475" y1="505" x2="530" y2="505" stroke="#8b5cf6" stroke-width="2"/>
  
  <!-- Multimodal Integration Controls -->
  <rect x="40" y="610" width="630" height="50" rx="8" fill="#f5f3ff"/>
  <text x="60" y="640" font-family="Arial" font-size="14" fill="#5b21b6" font-weight="bold">Cross-Modal Insights:</text>
  <text x="200" y="640" font-family="Arial" font-size="14" fill="#5b21b6">Text specifications match visual mockup and code implementation</text>
  
  <!-- Right Sidebar - Cross-Document Integration -->
  <rect x="710" y="80" width="270" height="50" rx="10 10 0 0" fill="#f5f3ff"/>
  <text x="730" y="110" font-family="Arial" font-size="16" fill="#4c1d95" font-weight="bold">External Sources</text>
  
  <!-- Connected Sources -->
  <rect x="730" y="150" width="230" height="440" rx="8" fill="#f8fafc"/>
  
  <!-- Design System Documentation -->
  <rect x="750" y="170" width="190" height="80" rx="6" fill="white" stroke="#8b5cf6" stroke-width="1"/>
  <text x="770" y="195" font-family="Arial" font-size="14" fill="#5b21b6" font-weight="bold">Design System</text>
  <text x="770" y="215" font-family="Arial" font-size="12" fill="#475569">Company design guidelines</text>
  <text x="770" y="235" font-family="Arial" font-size="12" fill="#5b21b6" font-style="italic">12 elements connected</text>
  
  <!-- Code Repository -->
  <rect x="750" y="270" width="190" height="80" rx="6" fill="white" stroke="#8b5cf6" stroke-width="1"/>
  <text x="770" y="295" font-family="Arial" font-size="14" fill="#5b21b6" font-weight="bold">Component Repo</text>
  <text x="770" y="315" font-family="Arial" font-size="12" fill="#475569">GitHub: ui-components</text>
  <text x="770" y="335" font-family="Arial" font-size="12" fill="#5b21b6" font-style="italic">8 components linked</text>
  
  <!-- User Research -->
  <rect x="750" y="370" width="190" height="80" rx="6" fill="white" stroke="#8b5cf6" stroke-width="1"/>
  <text x="770" y="395" font-family="Arial" font-size="14" fill="#5b21b6" font-weight="bold">User Research</text>
  <text x="770" y="415" font-family="Arial" font-size="12" fill="#475569">Figma: User testing results</text>
  <text x="770" y="435" font-family="Arial" font-size="12" fill="#5b21b6" font-style="italic">3 findings connected</text>
  
  <!-- Project Management -->
  <rect x="750" y="470" width="190" height="80" rx="6" fill="white" stroke="#8b5cf6" stroke-width="1"/>
  <text x="770" y="495" font-family="Arial" font-size="14" fill="#5b21b6" font-weight="bold">Project Board</text>
  <text x="770" y="515" font-family="Arial" font-size="12" fill="#475569">Jira: UI redesign epic</text>
  <text x="770" y="535" font-family="Arial" font-size="12" fill="#5b21b6" font-style="italic">5 tasks connected</text>
  
  <!-- Source Controls -->
  <rect x="730" y="610" width="230" height="50" rx="8" fill="#f5f3ff"/>
  <text x="750" y="635" font-family="Arial" font-size="12" fill="#5b21b6" font-weight="bold">Sync Status:</text>
  <rect x="830" y="625" width="100" height="20" rx="10" fill="#8b5cf6"/>
  <text x="880" y="640" font-family="Arial" font-size="12" fill="white" text-anchor="middle">Auto-syncing</text>
  
  <!-- Modal Translation Tools -->
  <rect x="40" y="550" width="630" height="40" rx="8" fill="#eff6ff"/>
  <text x="60" y="575" font-family="Arial" font-size="14" fill="#1e40af" font-weight="bold">Cross-Modal Translation:</text>
  <rect x="250" y="557" width="120" height="25" rx="12.5" fill="#3b82f6"/>
  <text x="310" y="574" font-family="Arial" font-size="12" fill="white" text-anchor="middle">Code ↔ Visual</text>
  <rect x="380" y="557" width="120" height="25" rx="12.5" fill="#3b82f6"/>
  <text x="440" y="574" font-family="Arial" font-size="12" fill="white" text-anchor="middle">Spec ↔ Diagram</text>
  <rect x="510" y="557" width="120" height="25" rx="12.5" fill="#3b82f6"/>
  <text x="570" y="574" font-family="Arial" font-size="12" fill="white" text-anchor="middle">Generate Code</text>
</svg>