<svg xmlns="http://www.w3.org/2000/svg" viewBox="0 0 1000 700" width="1000" height="700">
  <!-- Background -->
  <rect width="1000" height="700" fill="#f8fafc"/>
  
  <!-- Header -->
  <rect x="0" y="0" width="1000" height="60" fill="#4f46e5"/>
  <text x="25" y="38" font-family="Arial" font-size="22" fill="white">AdaptiveContext</text>
  <text x="210" y="38" font-family="Arial" font-size="14" fill="#c7d2fe">Personalized Knowledge Adaptation</text>
  
  <!-- Navigation -->
  <rect x="600" y="15" width="100" height="30" rx="15" fill="#818cf8"/>
  <text x="650" y="35" font-family="Arial" font-size="14" fill="white" text-anchor="middle">Personal</text>
  
  <rect x="710" y="15" width="100" height="30" rx="15" fill="#4338ca" opacity="0.6"/>
  <text x="760" y="35" font-family="Arial" font-size="14" fill="white" text-anchor="middle">Team</text>
  
  <rect x="820" y="15" width="100" height="30" rx="15" fill="#4338ca" opacity="0.6"/>
  <text x="870" y="35" font-family="Arial" font-size="14" fill="white" text-anchor="middle">Settings</text>
  
  <circle cx="950" cy="30" r="20" fill="#a5b4fc"/>
  <text x="950" y="35" font-family="Arial" font-size="14" fill="#312e81" text-anchor="middle">RB</text>
  
  <!-- Left Panel - Personal Profile -->
  <rect x="20" y="80" width="280" height="600" rx="10" fill="white" stroke="#e2e8f0" stroke-width="1"/>
  
  <!-- Profile Header -->
  <rect x="20" y="80" width="280" height="50" rx="10 10 0 0" fill="#eff6ff"/>
  <text x="40" y="110" font-family="Arial" font-size="16" fill="#1e40af" font-weight="bold">User Profile</text>
  
  <!-- User Info -->
  <rect x="40" y="150" width="240" height="100" rx="8" fill="#f8fafc"/>
  <circle cx="80" cy="180" r="30" fill="#a5b4fc"/>
  <text x="80" y="185" font-family="Arial" font-size="18" fill="#312e81" text-anchor="middle">RB</text>
  
  <text x="130" y="170" font-family="Arial" font-size="16" fill="#1e3a8a" font-weight="bold">Ryan Becker</text>
  <text x="130" y="195" font-family="Arial" font-size="14" fill="#64748b">Data Scientist</text>
  <text x="130" y="220" font-family="Arial" font-size="14" fill="#64748b">Advanced User</text>
  
  <!-- Expertise Areas -->
  <rect x="40" y="270" width="240" height="160" rx="8" fill="#f8fafc"/>
  <text x="60" y="295" font-family="Arial" font-size="14" fill="#1e40af" font-weight="bold">Expertise Areas</text>
  
  <!-- Expertise 1 -->
  <rect x="60" y="315" width="200" height="25" rx="5" fill="#eff6ff"/>
  <text x="80" y="332" font-family="Arial" font-size="12" fill="#1e40af">Machine Learning</text>
  <rect x="180" y="320" width="70" height="15" rx="7.5" fill="#e2e8f0"/>
  <rect x="180" y="320" width="63" height="15" rx="7.5" fill="#818cf8"/>
  <text x="210" y="331" font-family="Arial" font-size="10" fill="white" text-anchor="middle">Expert</text>
  
  <!-- Expertise 2 -->
  <rect x="60" y="350" width="200" height="25" rx="5" fill="#eff6ff"/>
  <text x="80" y="367" font-family="Arial" font-size="12" fill="#1e40af">Data Visualization</text>
  <rect x="180" y="355" width="70" height="15" rx="7.5" fill="#e2e8f0"/>
  <rect x="180" y="355" width="56" height="15" rx="7.5" fill="#818cf8"/>
  <text x="210" y="366" font-family="Arial" font-size="10" fill="white" text-anchor="middle">Advanced</text>
  
  <!-- Expertise 3 -->
  <rect x="60" y="385" width="200" height="25" rx="5" fill="#eff6ff"/>
  <text x="80" y="402" font-family="Arial" font-size="12" fill="#1e40af">Statistical Analysis</text>
  <rect x="180" y="390" width="70" height="15" rx="7.5" fill="#e2e8f0"/>
  <rect x="180" y="390" width="49" height="15" rx="7.5" fill="#818cf8"/>
  <text x="210" y="401" font-family="Arial" font-size="10" fill="white" text-anchor="middle">Proficient</text>
  
  <!-- Interface Preferences -->
  <rect x="40" y="450" width="240" height="210" rx="8" fill="#f8fafc"/>
  <text x="60" y="475" font-family="Arial" font-size="14" fill="#1e40af" font-weight="bold">Interface Preferences</text>
  
  <!-- Preference 1 -->
  <text x="60" y="505" font-family="Arial" font-size="12" fill="#475569">View Mode:</text>
  <rect x="150" y="490" width="120" height="30" rx="15" fill="#e0e7ff"/>
  <circle cx="160" cy="505" r="10" fill="white" stroke="#4f46e5" stroke-width="1"/>
  <text x="195" y="505" font-family="Arial" font-size="12" fill="#4f46e5" text-anchor="middle">Graph</text>
  <circle cx="240" cy="505" r="10" fill="white"/>
  <text x="260" y="505" font-family="Arial" font-size="12" fill="#64748b">List</text>
  
  <!-- Preference 2 -->
  <text x="60" y="545" font-family="Arial" font-size="12" fill="#475569">Input Style:</text>
  <rect x="150" y="530" width="120" height="30" rx="15" fill="#e0e7ff"/>
  <circle cx="160" cy="545" r="10" fill="white" stroke="#4f46e5" stroke-width="1"/>
  <text x="195" y="545" font-family="Arial" font-size="12" fill="#4f46e5" text-anchor="middle">Keyboard</text>
  <circle cx="240" cy="545" r="10" fill="white"/>
  <text x="260" y="545" font-family="Arial" font-size="12" fill="#64748b">Voice</text>
  
  <!-- Preference 3 -->
  <text x="60" y="585" font-family="Arial" font-size="12" fill="#475569">Context Depth:</text>
  <rect x="150" y="575" width="100" height="8" rx="4" fill="#e2e8f0"/>
  <rect x="150" y="575" width="80" height="8" rx="4" fill="#818cf8"/>
  <circle cx="230" cy="579" r="8" fill="white" stroke="#4f46e5" stroke-width="2"/>
  <text x="250" y="585" font-family="Arial" font-size="12" fill="#475569">Deep</text>
  
  <!-- Preference 4 -->
  <text x="60" y="625" font-family="Arial" font-size="12" fill="#475569">Tech Level:</text>
  <rect x="150" y="615" width="100" height="8" rx="4" fill="#e2e8f0"/>
  <rect x="150" y="615" width="85" height="8" rx="4" fill="#818cf8"/>
  <circle cx="235" cy="619" r="8" fill="white" stroke="#4f46e5" stroke-width="2"/>
  <text x="250" y="625" font-family="Arial" font-size="12" fill="#475569">Advanced</text>
  
  <!-- Center Panel - Adaptive Interface -->
  <rect x="320" y="80" width="380" height="600" rx="10" fill="white" stroke="#e2e8f0" stroke-width="1"/>
  
  <!-- Interface Header -->
  <rect x="320" y="80" width="380" height="50" rx="10 10 0 0" fill="#eff6ff"/>
  <text x="340" y="110" font-family="Arial" font-size="16" fill="#1e40af" font-weight="bold">Adaptive Machine Learning Context</text>
  
  <!-- Adaptive Suggestions -->
  <rect x="340" y="150" width="340" height="100" rx="8" fill="#f1f5f9"/>
  <text x="360" y="175" font-family="Arial" font-size="14" fill="#1e40af" font-weight="bold">Suggested Knowledge Nodes</text>
  <text x="360" y="195" font-family="Arial" font-size="12" fill="#6b7280" font-style="italic">Based on your expertise and recent activities</text>
  
  <!-- Suggestion 1 -->
  <rect x="360" y="210" width="300" height="30" rx="5" fill="#e0e7ff"/>
  <text x="380" y="230" font-family="Arial" font-size="12" fill="#4338ca">Neural Network Optimization Techniques</text>
  <rect x="570" y="215" width="70" height="20" rx="10" fill="#818cf8"/>
  <text x="605" y="230" font-family="Arial" font-size="10" fill="white" text-anchor="middle">Add to Context</text>
  
  <!-- Context Map - Graph View (tailored to user preference) -->
  <rect x="340" y="270" width="340" height="220" rx="8" fill="#f1f5f9"/>
  <text x="360" y="295" font-family="Arial" font-size="14" fill="#1e40af" font-weight="bold">Current Context Map</text>
  
  <!-- Knowledge Graph - Showing Technical Context (adapted to user's technical level) -->
  <!-- Core Domain Node -->
  <circle cx="510" cy="380" r="35" fill="#818cf8"/>
  <text x="510" y="375" font-family="Arial" font-size="12" fill="white" text-anchor="middle">Neural</text>
  <text x="510" y="390" font-family="Arial" font-size="12" fill="white" text-anchor="middle">Networks</text>
  
  <!-- Related Nodes -->
  <circle cx="420" cy="340" r="25" fill="#a5b4fc"/>
  <text x="420" y="345" font-family="Arial" font-size="10" fill="#312e81" text-anchor="middle">Training</text>
  <line x1="438" y1="353" x2="485" y2="365" stroke="#c7d2fe" stroke-width="2"/>
  
  <circle cx="600" cy="340" r="25" fill="#a5b4fc"/>
  <text x="600" y="345" font-family="Arial" font-size="10" fill="#312e81" text-anchor="middle">Model</text>
  <text x="600" y="360" font-family="Arial" font-size="10" fill="#312e81" text-anchor="middle">Arch</text>
  <line x1="582" y1="353" x2="535" y2="365" stroke="#c7d2fe" stroke-width="2"/>
  
  <circle cx="440" cy="420" r="25" fill="#a5b4fc"/>
  <text x="440" y="425" font-family="Arial" font-size="10" fill="#312e81" text-anchor="middle">Hyper-</text>
  <text x="440" y="440" font-family="Arial" font-size="10" fill="#312e81" text-anchor="middle">params</text>
  <line x1="460" y1="407" x2="485" y2="390" stroke="#c7d2fe" stroke-width="2"/>
  
  <circle cx="580" cy="420" r="25" fill="#a5b4fc"/>
  <text x="580" y="425" font-family="Arial" font-size="10" fill="#312e81" text-anchor="middle">Loss</text>
  <text x="580" y="440" font-family="Arial" font-size="10" fill="#312e81" text-anchor="middle">Functions</text>
  <line x1="560" y1="407" x2="535" y2="390" stroke="#c7d2fe" stroke-width="2"/>
  
  <!-- Technical Depth Indicators (showing advanced technical content) -->
  <rect x="380" y="450" width="260" height="30" rx="5" fill="#e0e7ff"/>
  <text x="400" y="470" font-family="Arial" font-size="12" fill="#4338ca">Showing: Advanced Technical Details</text>
  <rect x="500" y="455" width="130" height="20" rx="10" fill="#818cf8"/>
  <text x="565" y="470" font-family="Arial" font-size="10" fill="white" text-anchor="middle">Adjust Complexity</text>
  
  <!-- Advanced Interaction Options (keyboard shortcuts shown due to user preference) -->
  <rect x="340" y="510" width="340" height="60" rx="8" fill="#eff6ff"/>
  <text x="360" y="535" font-family="Arial" font-size="12" fill="#1e40af" font-weight="bold">Keyboard Shortcuts</text>
  <text x="360" y="555" font-family="Arial" font-size="12" fill="#6b7280">Ctrl+S: Save Context • Ctrl+F: Focus Node • Alt+N: New Node</text>
  
  <!-- Conversation Interface with Advanced Options -->
  <rect x="340" y="590" width="340" height="70" rx="8" fill="#f1f5f9"/>
  <text x="360" y="610" font-family="Arial" font-size="12" fill="#1e40af">Advanced Data Visualization Query:</text>
  <rect x="360" y="620" width="300" height="30" rx="5" fill="white" stroke="#818cf8" stroke-width="1"/>
  <text x="380" y="640" font-family="Arial" font-size="12" fill="#6b7280">How would a t-SNE visualization help with feature selection?</text>
  
  <!-- Right Panel - Skill Discovery and Connections -->
  <rect x="720" y="80" width="260" height="600" rx="10" fill="white" stroke="#e2e8f0" stroke-width="1"/>
  
  <!-- Skill Discovery Header -->
  <rect x="720" y="80" width="260" height="50" rx="10 10 0 0" fill="#eff6ff"/>
  <text x="740" y="110" font-family="Arial" font-size="16" fill="#1e40af" font-weight="bold">Skill Network</text>
  
  <!-- Expert Connections -->
  <rect x="740" y="150" width="220" height="160" rx="8" fill="#f8fafc"/>
  <text x="760" y="175" font-family="Arial" font-size="14" fill="#1e40af" font-weight="bold">Expert Connections</text>
  <text x="760" y="195" font-family="Arial" font-size="12" fill="#6b7280" font-style="italic">These experts have knowledge in your areas</text>
  
  <!-- Expert 1 -->
  <rect x="760" y="215" width="180" height="40" rx="5" fill="#eff6ff"/>
  <circle cx="780" cy="235" r="15" fill="#c7d2fe"/>
  <text x="780" y="239" font-family="Arial" font-size="11" fill="#312e81" text-anchor="middle">SL</text>
  <text x="805" y="230" font-family="Arial" font-size="12" fill="#1e40af" font-weight="bold">Sarah Liu</text>
  <text x="805" y="248" font-family="Arial" font-size="10" fill="#6b7280">Neural Network Specialist</text>
  
  <!-- Expert 2 -->
  <rect x="760" y="265" width="180" height="40" rx="5" fill="#eff6ff"/>
  <circle cx="780" cy="285" r="15" fill="#c7d2fe"/>
  <text x="780" y="289" font-family="Arial" font-size="11" fill="#312e81" text-anchor="middle">JM</text>
  <text x="805" y="280" font-family="Arial" font-size="12" fill="#1e40af" font-weight="bold">James Moore</text>
  <text x="805" y="298" font-family="Arial" font-size="10" fill="#6b7280">ML Optimization Expert</text>
  
  <!-- Skill Discovery Insights -->
  <rect x="740" y="330" width="220" height="140" rx="8" fill="#f8fafc"/>
  <text x="760" y="355" font-family="Arial" font-size="14" fill="#1e40af" font-weight="bold">Skill Insights</text>
  
  <!-- Skill Overlap Chart -->
  <rect x="760" y="375" width="180" height="75" rx="5" fill="#eff6ff"/>
  
  <!-- Chart Elements -->
  <!-- Your Skills Circle -->
  <circle cx="795" cy="413" r="25" fill="#818cf8" opacity="0.6"/>
  <text x="795" y="418" font-family="Arial" font-size="10" fill="#312e81" text-anchor="middle">Your Skills</text>
  
  <!-- Team Skills Circle -->
  <circle cx="825" cy="413" r="35" fill="#a5b4fc" opacity="0.6"/>
  <text x="825" y="418" font-family="Arial" font-size="10" fill="#312e81" text-anchor="middle">Team Skills</text>
  
  <!-- Project Needs Circle -->
  <circle cx="865" cy="413" r="30" fill="#c7d2fe" opacity="0.6"/>
  <text x="865" y="418" font-family="Arial" font-size="10" fill="#312e81" text-anchor="middle">Project</text>
  
  <text x="760" y="465" font-family="Arial" font-size="10" fill="#6b7280">Your skills overlap 78% with project needs</text>
  
  <!-- Knowledge Growth Opportunities -->
  <rect x="740" y="490" width="220" height="170" rx="8" fill="#f8fafc"/>
  <text x="760" y="515" font-family="Arial" font-size="14" fill="#1e40af" font-weight="bold">Growth Opportunities</text>
  
  <!-- Opportunity 1 -->
  <rect x="760" y="535" width="180" height="30" rx="5" fill="#e0e7ff"/>
  <text x="780" y="555" font-family="Arial" font-size="12" fill="#4338ca">Advanced Model Deployment</text>
  <circle cx="930" cy="550" r="8" fill="#4f46e5"/>
  <text x="930" y="554" font-family="Arial" font-size="12" fill="white" text-anchor="middle">+</text>
  
  <!-- Opportunity 2 -->
  <rect x="760" y="575" width="180" height="30" rx="5" fill="#e0e7ff"/>
  <text x="780" y="595" font-family="Arial" font-size="12" fill="#4338ca">Distributed Training Systems</text>
  <circle cx="930" cy="590" r="8" fill="#4f46e5"/>
  <text x="930" y="594" font-family="Arial" font-size="12" fill="white" text-anchor="middle">+</text>
  
  <!-- Opportunity 3 -->
  <rect x="760" y="615" width="180" height="30" rx="5" fill="#e0e7ff"/>
  <text x="780" y="635" font-family="Arial" font-size="12" fill="#4338ca">MLOps Best Practices</text>
  <circle cx="930" cy="630" r="8" fill="#4f46e5"/>
  <text x="930" y="634" font-family="Arial" font-size="12" fill="white" text-anchor="middle">+</text>
</svg>