<svg xmlns="http://www.w3.org/2000/svg" viewBox="0 0 1200 800">
  <!-- Background -->
  <rect width="1200" height="800" fill="#f8fafc"/>
  
  <!-- Header -->
  <rect x="0" y="0" width="1200" height="60" fill="#1e293b"/>
  <text x="25" y="38" font-family="Arial" font-size="22" fill="white">ContextNexus</text>
  <text x="220" y="38" font-family="Arial" font-size="14" fill="#94a3b8">Knowledge Graph Explorer</text>
  
  <!-- View Controls -->
  <rect x="600" y="15" width="110" height="30" rx="15" fill="#0ea5e9"/>
  <text x="655" y="35" font-family="Arial" font-size="14" fill="white" text-anchor="middle">Graph View</text>
  
  <rect x="720" y="15" width="110" height="30" rx="15" fill="#334155"/>
  <text x="775" y="35" font-family="Arial" font-size="14" fill="#94a3b8" text-anchor="middle">Tree View</text>
  
  <rect x="840" y="15" width="110" height="30" rx="15" fill="#334155"/>
  <text x="895" y="35" font-family="Arial" font-size="14" fill="#94a3b8" text-anchor="middle">Matrix View</text>
  
  <rect x="960" y="15" width="110" height="30" rx="15" fill="#334155"/>
  <text x="1015" y="35" font-family="Arial" font-size="14" fill="#94a3b8" text-anchor="middle">Map View</text>
  
  <circle cx="1120" cy="30" r="20" fill="#38bdf8"/>
  <text x="1120" y="35" font-family="Arial" font-size="14" fill="white" text-anchor="middle">VP</text>
  
  <!-- Left Panel - Navigation Controls -->
  <rect x="0" y="60" width="250" height="740" fill="#f1f5f9"/>
  
  <!-- Knowledge Navigation Header -->
  <rect x="0" y="60" width="250" height="50" fill="#e2e8f0"/>
  <text x="20" y="90" font-family="Arial" font-size="16" fill="#334155" font-weight="bold">Knowledge Navigation</text>
  
  <!-- Focus Controls -->
  <rect x="20" y="130" width="210" height="140" rx="10" fill="white" stroke="#cbd5e0" stroke-width="1"/>
  <text x="40" y="155" font-family="Arial" font-size="14" fill="#0c4a6e" font-weight="bold">Focus Controls</text>
  
  <!-- Focus Slider -->
  <text x="40" y="185" font-family="Arial" font-size="12" fill="#475569">Depth:</text>
  <rect x="90" y="175" width="120" height="10" rx="5" fill="#e2e8f0"/>
  <rect x="90" y="175" width="84" height="10" rx="5" fill="#0ea5e9"/>
  <circle cx="174" cy="180" r="8" fill="white" stroke="#0ea5e9" stroke-width="2"/>
  <text x="220" y="185" font-family="Arial" font-size="12" fill="#475569">3</text>
  
  <!-- Density Slider -->
  <text x="40" y="215" font-family="Arial" font-size="12" fill="#475569">Density:</text>
  <rect x="90" y="205" width="120" height="10" rx="5" fill="#e2e8f0"/>
  <rect x="90" y="205" width="60" height="10" rx="5" fill="#0ea5e9"/>
  <circle cx="150" cy="210" r="8" fill="white" stroke="#0ea5e9" stroke-width="2"/>
  <text x="220" y="215" font-family="Arial" font-size="12" fill="#475569">Medium</text>
  
  <!-- Relevance Slider -->
  <text x="40" y="245" font-family="Arial" font-size="12" fill="#475569">Relevance:</text>
  <rect x="90" y="235" width="120" height="10" rx="5" fill="#e2e8f0"/>
  <rect x="90" y="235" width="96" height="10" rx="5" fill="#0ea5e9"/>
  <circle cx="186" cy="240" r="8" fill="white" stroke="#0ea5e9" stroke-width="2"/>
  <text x="220" y="245" font-family="Arial" font-size="12" fill="#475569">80%</text>
  
  <!-- Filter Controls -->
  <rect x="20" y="290" width="210" height="190" rx="10" fill="white" stroke="#cbd5e0" stroke-width="1"/>
  <text x="40" y="315" font-family="Arial" font-size="14" fill="#0c4a6e" font-weight="bold">Node Filters</text>
  
  <!-- Filter Options -->
  <rect x="40" y="335" width="170" height="30" rx="5" fill="#dbeafe"/>
  <circle cx="55" cy="350" r="8" fill="#0ea5e9"/>
  <text x="55" y="354" font-family="Arial" font-size="12" fill="white" text-anchor="middle">✓</text>
  <text x="75" y="355" font-family="Arial" font-size="14" fill="#0c4a6e">Machine Learning</text>
  
  <rect x="40" y="375" width="170" height="30" rx="5" fill="#dbeafe"/>
  <circle cx="55" cy="390" r="8" fill="#0ea5e9"/>
  <text x="55" y="394" font-family="Arial" font-size="12" fill="white" text-anchor="middle">✓</text>
  <text x="75" y="395" font-family="Arial" font-size="14" fill="#0c4a6e">Data Analysis</text>
  
  <rect x="40" y="415" width="170" height="30" rx="5" fill="#f1f5f9"/>
  <circle cx="55" cy="430" r="8" fill="white" stroke="#94a3b8" stroke-width="1"/>
  <text x="75" y="435" font-family="Arial" font-size="14" fill="#64748b">User Requirements</text>
  
  <rect x="40" y="455" width="170" height="30" rx="5" fill="#f1f5f9"/>
  <circle cx="55" cy="470" r="8" fill="white" stroke="#94a3b8" stroke-width="1"/>
  <text x="75" y="475" font-family="Arial" font-size="14" fill="#64748b">Implementation</text>
  
  <!-- History Controls -->
  <rect x="20" y="500" width="210" height="130" rx="10" fill="white" stroke="#cbd5e0" stroke-width="1"/>
  <text x="40" y="525" font-family="Arial" font-size="14" fill="#0c4a6e" font-weight="bold">Navigation History</text>
  
  <!-- History Entries -->
  <rect x="40" y="545" width="170" height="25" rx="5" fill="#f1f5f9"/>
  <text x="50" y="562" font-family="Arial" font-size="12" fill="#64748b">ML Techniques Overview</text>
  
  <rect x="40" y="575" width="170" height="25" rx="5" fill="#dbeafe"/>
  <text x="50" y="592" font-family="Arial" font-size="12" fill="#0c4a6e">Customer Analysis Focus</text>
  
  <rect x="40" y="605" width="170" height="25" rx="5" fill="#f1f5f9"/>
  <text x="50" y="622" font-family="Arial" font-size="12" fill="#64748b">Initial Conversation</text>
  
  <!-- Bookmarks -->
  <rect x="20" y="650" width="210" height="130" rx="10" fill="white" stroke="#cbd5e0" stroke-width="1"/>
  <text x="40" y="675" font-family="Arial" font-size="14" fill="#0c4a6e" font-weight="bold">Saved Views</text>
  
  <!-- Saved Views -->
  <rect x="40" y="695" width="170" height="25" rx="5" fill="#bae6fd"/>
  <text x="50" y="712" font-family="Arial" font-size="12" fill="#0c4a6e">ML Algorithm Comparison</text>
  
  <rect x="40" y="725" width="170" height="25" rx="5" fill="#bae6fd"/>
  <text x="50" y="742" font-family="Arial" font-size="12" fill="#0c4a6e">Customer Segmentation</text>
  
  <rect x="40" y="755" width="170" height="25" rx="5" fill="#bae6fd"/>
  <text x="50" y="772" font-family="Arial" font-size="12" fill="#0c4a6e">+ Create New View</text>
  
  <!-- Main Graph Visualization Area -->
  <rect x="250" y="60" width="950" height="740" fill="white"/>
  
  <!-- Graph Controls -->
  <rect x="250" y="60" width="950" height="50" fill="#f8fafc"/>
  
  <!-- Zoom Controls -->
  <rect x="270" y="70" width="40" height="30" rx="5" fill="#e2e8f0"/>
  <text x="290" y="90" font-family="Arial" font-size="18" fill="#475569" text-anchor="middle">−</text>
  
  <rect x="320" y="70" width="40" height="30" rx="5" fill="#e2e8f0"/>
  <text x="340" y="90" font-family="Arial" font-size="18" fill="#475569" text-anchor="middle">+</text>
  
  <rect x="370" y="70" width="80" height="30" rx="5" fill="#e2e8f0"/>
  <text x="410" y="90" font-family="Arial" font-size="14" fill="#475569" text-anchor="middle">Reset</text>
  
  <!-- Search Bar -->
  <rect x="650" y="70" width="250" height="30" rx="15" fill="white" stroke="#cbd5e0" stroke-width="1"/>
  <text x="670" y="90" font-family="Arial" font-size="14" fill="#94a3b8">Search knowledge nodes...</text>
  
  <!-- Action Buttons -->
  <rect x="920" y="70" width="120" height="30" rx="15" fill="#0ea5e9"/>
  <text x="980" y="90" font-family="Arial" font-size="14" fill="white" text-anchor="middle">Branch View</text>
  
  <rect x="1050" y="70" width="130" height="30" rx="15" fill="#e2e8f0"/>
  <text x="1115" y="90" font-family="Arial" font-size="14" fill="#475569" text-anchor="middle">Export Graph</text>
  
  <!-- Central Graph Visualization -->
  <!-- Main nodes and connections representing knowledge structure -->
  
  <!-- Central Node: Customer Analysis -->
  <circle cx="650" cy="390" r="60" fill="#0ea5e9" opacity="0.9"/>
  <text x="650" y="380" font-family="Arial" font-size="16" fill="white" text-anchor="middle">Customer</text>
  <text x="650" y="400" font-family="Arial" font-size="16" fill="white" text-anchor="middle">Analysis</text>
  <text x="650" y="420" font-family="Arial" font-size="12" fill="white" text-anchor="middle">Core Topic</text>
  
  <!-- Primary Connected Nodes -->
  <!-- Node: Machine Learning -->
  <circle cx="500" cy="240" r="50" fill="#3b82f6" opacity="0.9"/>
  <text x="500" y="235" font-family="Arial" font-size="14" fill="white" text-anchor="middle">Machine</text>
  <text x="500" y="255" font-family="Arial" font-size="14" fill="white" text-anchor="middle">Learning</text>
  <line x1="530" y1="280" x2="620" y2="345" stroke="#94a3b8" stroke-width="3"/>
  
  <!-- Node: Data Preprocessing -->
  <circle cx="350" cy="390" r="45" fill="#60a5fa" opacity="0.9"/>
  <text x="350" y="385" font-family="Arial" font-size="14" fill="white" text-anchor="middle">Data</text>
  <text x="350" y="405" font-family="Arial" font-size="14" fill="white" text-anchor="middle">Preprocessing</text>
  <line x1="395" y1="390" x2="590" y2="390" stroke="#94a3b8" stroke-width="3"/>
  
  <!-- Node: Visualization -->
  <circle cx="500" cy="540" r="45" fill="#93c5fd" opacity="0.9"/>
  <text x="500" y="540" font-family="Arial" font-size="14" fill="white" text-anchor="middle">Visualization</text>
  <line x1="530" y1="505" x2="620" y2="435" stroke="#94a3b8" stroke-width="3"/>
  
  <!-- Node: Predictive Models -->
  <circle cx="800" cy="240" r="50" fill="#3b82f6" opacity="0.9"/>
  <text x="800" y="235" font-family="Arial" font-size="14" fill="white" text-anchor="middle">Predictive</text>
  <text x="800" y="255" font-family="Arial" font-size="14" fill="white" text-anchor="middle">Models</text>
  <line x1="770" y1="280" x2="680" y2="345" stroke="#94a3b8" stroke-width="3"/>
  
  <!-- Node: Customer Segments -->
  <circle cx="950" cy="390" r="45" fill="#60a5fa" opacity="0.9"/>
  <text x="950" y="385" font-family="Arial" font-size="14" fill="white" text-anchor="middle">Customer</text>
  <text x="950" y="405" font-family="Arial" font-size="14" fill="white" text-anchor="middle">Segments</text>
  <line x1="905" y1="390" x2="710" y2="390" stroke="#94a3b8" stroke-width="3"/>
  
  <!-- Node: Business Insights -->
  <circle cx="800" cy="540" r="45" fill="#93c5fd" opacity="0.9"/>
  <text x="800" y="535" font-family="Arial" font-size="14" fill="white" text-anchor="middle">Business</text>
  <text x="800" y="555" font-family="Arial" font-size="14" fill="white" text-anchor="middle">Insights</text>
  <line x1="770" y1="505" x2="680" y2="435" stroke="#94a3b8" stroke-width="3"/>
  
  <!-- Secondary Nodes (smaller, connected to primary nodes) -->
  <!-- Connected to Machine Learning -->
  <circle cx="400" cy="170" r="35" fill="#bae6fd" opacity="0.9"/>
  <text x="400" y="170" font-family="Arial" font-size="12" fill="#0c4a6e" text-anchor="middle">Algorithms</text>
  <line x1="430" y1="195" x2="470" y2="215" stroke="#94a3b8" stroke-width="2"/>
  
  <circle cx="515" cy="150" r="30" fill="#bae6fd" opacity="0.8"/>
  <text x="515" y="150" font-family="Arial" font-size="12" fill="#0c4a6e" text-anchor="middle">Clustering</text>
  <line x1="511" y1="180" x2="505" y2="210" stroke="#94a3b8" stroke-width="2"/>
  
  <!-- Connected to Data Preprocessing -->
  <circle cx="260" cy="350" r="30" fill="#bae6fd" opacity="0.8"/>
  <text x="260" y="350" font-family="Arial" font-size="11" fill="#0c4a6e" text-anchor="middle">Cleaning</text>
  <line x1="290" y1="360" x2="315" y2="375" stroke="#94a3b8" stroke-width="2"/>
  
  <circle cx="260" cy="450" r="30" fill="#bae6fd" opacity="0.8"/>
  <text x="260" y="450" font-family="Arial" font-size="11" fill="#0c4a6e" text-anchor="middle">Features</text>
  <line x1="285" y1="435" x2="320" y2="410" stroke="#94a3b8" stroke-width="2"/>
  
  <!-- Connected to Predictive Models -->
  <circle cx="800" cy="150" r="30" fill="#bae6fd" opacity="0.9"/>
  <text x="800" y="150" font-family="Arial" font-size="12" fill="#0c4a6e" text-anchor="middle">XGBoost</text>
  <line x1="800" y1="180" x2="800" y2="210" stroke="#94a3b8" stroke-width="2"/>
  
  <circle cx="700" cy="170" r="30" fill="#bae6fd" opacity="0.8"/>
  <text x="700" y="170" font-family="Arial" font-size="12" fill="#0c4a6e" text-anchor="middle">Neural Nets</text>
  <line x1="725" y1="190" x2="770" y2="220" stroke="#94a3b8" stroke-width="2"/>
  
  <!-- Connected to Customer Segments -->
  <circle cx="1030" cy="330" r="30" fill="#bae6fd" opacity="0.8"/>
  <text x="1030" y="330" font-family="Arial" font-size="11" fill="#0c4a6e" text-anchor="middle">Loyalty</text>
  <line x1="1005" y1="350" x2="975" y2="370" stroke="#94a3b8" stroke-width="2"/>
  
  <circle cx="1050" cy="390" r="30" fill="#bae6fd" opacity="0.8"/>
  <text x="1050" y="390" font-family="Arial" font-size="11" fill="#0c4a6e" text-anchor="middle">RFM</text>
  <line x1="1020" y1="390" x2="995" y2="390" stroke="#94a3b8" stroke-width="2"/>
  
  <circle cx="1030" cy="450" r="30" fill="#bae6fd" opacity="0.8"/>
  <text x="1030" y="450" font-family="Arial" font-size="11" fill="#0c4a6e" text-anchor="middle">Churn</text>
  <line x1="1005" y1="430" x2="975" y2="410" stroke="#94a3b8" stroke-width="2"/>
  
  <!-- Connected to Visualization -->
  <circle cx="420" cy="590" r="30" fill="#bae6fd" opacity="0.8"/>
  <text x="420" cy="590" font-family="Arial" font-size="11" fill="#0c4a6e" text-anchor="middle">Dashboards</text>
  <line x1="445" y1="570" x2="480" y2="550" stroke="#94a3b8" stroke-width="2"/>
  
  <circle cx="510" cy="630" r="25" fill="#bae6fd" opacity="0.7"/>
  <text x="510" y="630" font-family="Arial" font-size="10" fill="#0c4a6e" text-anchor="middle">Charts</text>
  <line x1="510" y1="605" x2="505" y2="565" stroke="#94a3b8" stroke-width="2"/>
  
  <!-- Connected to Business Insights -->
  <circle cx="870" cy="590" r="30" fill="#bae6fd" opacity="0.8"/>
  <text x="870" cy="590" font-family="Arial" font-size="11" fill="#0c4a6e" text-anchor="middle">ROI</text>
  <line x1="850" y1="570" x2="815" y2="550" stroke="#94a3b8" stroke-width="2"/>
  
  <circle cx="770" cy="630" r="25" fill="#bae6fd" opacity="0.7"/>
  <text x="770" cy="630" font-family="Arial" font-size="10" fill="#0c4a6e" text-anchor="middle">Strategy</text>
  <line x1="775" y1="605" x2="790" y2="565" stroke="#94a3b8" stroke-width="2"/>
  
  <!-- Active Node Selection (highlighting the currently selected node) with orange highlight -->
  <circle cx="500" cy="240" r="55" fill="none" stroke="#f97316" stroke-width="3" stroke-dasharray="5,3"/>
  
  <!-- Context Panel (floating information about selected node) with orange styling -->
  <rect x="850" y="120" width="300" height="120" rx="10" fill="white" stroke="#f97316" stroke-width="2" filter="drop-shadow(0 4px 3px rgb(0 0 0 / 0.07))"/>
  <text x="870" y="145" font-family="Arial" font-size="16" fill="#f97316" font-weight="bold">Machine Learning</text>
  <text x="870" y="170" font-family="Arial" font-size="13" fill="#334155">Applied techniques for pattern discovery</text>
  <text x="870" y="190" font-family="Arial" font-size="13" fill="#334155">Connected to 5 other nodes</text>
  <text x="870" y="210" font-family="Arial" font-size="13" fill="#334155">3 messages in conversation, 1,240 tokens</text>
  
  <rect x="555" y="175" width="80" height="30" rx="15" fill="#f97316"/>
  <text x="595" y="195" font-family="Arial" font-size="12" fill="white" text-anchor="middle">Focus</text>
  
  <!-- Node Manipulation Tools (appears on hover/selection) -->
  <rect x="400" y="270" width="200" height="40" rx="20" fill="#f1f5f9" filter="drop-shadow(0 4px 3px rgb(0 0 0 / 0.07))"/>
  <rect x="415" y="280" width="20" height="20" rx="3" fill="#dbeafe"/>
  <text x="425" y="296" font-family="Arial" font-size="18" fill="#0ea5e9" font-weight="bold" text-anchor="middle">✓</text>
  <text x="455" y="296" font-family="Arial" font-size="13" fill="#0c4a6e">Add to Context</text>
  
  <text x="570" y="296" font-family="Arial" font-size="13" fill="#0c4a6e">▼</text>
  
  <!-- Advanced Context Controls (Bottom of Screen) -->
  <rect x="250" y="740" width="950" height="60" fill="#f8fafc"/>
  
  <!-- Context Summary -->
  <text x="270" y="775" font-family="Arial" font-size="14" fill="#334155">Current Focus: Customer Analysis with ML Techniques • 3 primary nodes • 8 related nodes • 3,240 tokens</text>
  
  <!-- Action Buttons -->
  <rect x="800" y="755" width="120" height="30" rx="15" fill="#0ea5e9"/>
  <text x="860" y="775" font-family="Arial" font-size="14" fill="white" text-anchor="middle">Apply Context</text>
  
  <rect x="930" y="755" width="120" height="30" rx="15" fill="#e2e8f0"/>
  <text x="990" y="775" font-family="Arial" font-size="14" fill="#475569" text-anchor="middle">Save View</text>
  
  <rect x="1060" y="755" width="120" height="30" rx="15" fill="#e2e8f0"/>
  <text x="1120" y="775" font-family="Arial" font-size="14" fill="#475569" text-anchor="middle">Share Graph</text>
  
  <!-- Minimap (bottom right) -->
  <rect x="1050" y="630" width="120" height="100" rx="10" fill="#f1f5f9" stroke="#cbd5e0" stroke-width="1"/>
  <circle cx="1080" cy="655" r="3" fill="#0ea5e9"/>
  <circle cx="1100" cy="680" r="3" fill="#0ea5e9"/>
  <circle cx="1120" cy="650" r="3" fill="#0ea5e9"/>
  <circle cx="1130" cy="700" r="3" fill="#0ea5e9"/>
  <circle cx="1090" cy="710" r="3" fill="#0ea5e9"/>
  <circle cx="1070" cy="690" r="3" fill="#0ea5e9"/>
  <rect x="1070" cy="645" width="40" height="30" rx="5" fill="#0ea5e9" opacity="0.3" stroke="#0ea5e9" stroke-width="1"/>
</svg>