<svg xmlns="http://www.w3.org/2000/svg" viewBox="0 0 1200 800">
  <!-- Background -->
  <rect width="1200" height="800" fill="#f8fafc"/>
  
  <!-- Header -->
  <rect x="0" y="0" width="1200" height="50" fill="#1e293b"/>
  <text x="20" y="32" font-family="Arial" font-size="20" fill="white">ContextNexus</text>
  
  <!-- Mode Selector -->
  <rect x="200" y="10" width="100" height="30" rx="15" fill="#334155"/>
  <text x="250" y="30" font-family="Arial" font-size="14" fill="white" text-anchor="middle">Select</text>
  
  <rect x="310" y="10" width="100" height="30" rx="15" fill="#1e293b"/>
  <text x="360" y="30" font-family="Arial" font-size="14" fill="#94a3b8" text-anchor="middle">Organize</text>
  
  <rect x="420" y="10" width="100" height="30" rx="15" fill="#1e293b"/>
  <text x="470" y="30" font-family="Arial" font-size="14" fill="#94a3b8" text-anchor="middle">Preview</text>
  
  <!-- Context Status -->
  <rect x="800" y="10" width="200" height="30" rx="15" fill="#334155"/>
  <rect x="810" y="20" width="120" height="10" rx="5" fill="#475569"/>
  <rect x="810" y="20" width="72" height="10" rx="5" fill="#38bdf8"/>
  <text x="940" y="30" font-family="Arial" font-size="12" fill="white">60% • 6,024 tokens</text>
  
  <rect x="1010" y="10" width="70" height="30" rx="15" fill="#0ea5e9"/>
  <text x="1045" y="30" font-family="Arial" font-size="14" fill="white" text-anchor="middle">Apply</text>
  
  <circle cx="1120" cy="25" r="15" fill="#38bdf8"/>
  <text x="1120" y="30" font-family="Arial" font-size="14" fill="white" text-anchor="middle">VP</text>
  
  <!-- Main Content Area -->
  <rect x="0" y="50" width="900" height="750" fill="#f1f5f9"/>
  
  <!-- Content Navigation Bar -->
  <rect x="0" y="50" width="900" height="40" fill="#e2e8f0"/>
  
  <!-- Content Type Filters -->
  <rect x="20" y="55" width="90" height="30" rx="15" fill="#0ea5e9"/>
  <text x="65" y="75" font-family="Arial" font-size="14" fill="white" text-anchor="middle">All</text>
  
  <rect x="120" y="55" width="90" height="30" rx="15" fill="#e2e8f0"/>
  <text x="165" y="75" font-family="Arial" font-size="14" fill="#475569" text-anchor="middle">User</text>
  
  <rect x="220" y="55" width="90" height="30" rx="15" fill="#e2e8f0"/>
  <text x="265" y="75" font-family="Arial" font-size="14" fill="#475569" text-anchor="middle">AI</text>
  
  <rect x="320" y="55" width="90" height="30" rx="15" fill="#e2e8f0"/>
  <text x="365" y="75" font-family="Arial" font-size="14" fill="#475569" text-anchor="middle">Code</text>
  
  <rect x="420" y="55" width="90" height="30" rx="15" fill="#e2e8f0"/>
  <text x="465" y="75" font-family="Arial" font-size="14" fill="#475569" text-anchor="middle">Images</text>
  
  <!-- Search -->
  <rect x="600" y="55" width="280" height="30" rx="15" fill="white"/>
  <text x="620" y="75" font-family="Arial" font-size="14" fill="#94a3b8">Search conversation...</text>
  
  <!-- Conversation Area -->
  <!-- User Message 1 -->
  <rect x="20" y="110" width="860" height="120" rx="10" fill="white" stroke="#e2e8f0" stroke-width="1"/>
  
  <!-- Selection controls that appear on hover -->
  <rect x="20" y="110" width="30" height="120" rx="5 0 0 5" fill="#f1f5f9" opacity="0.9"/>
  <rect x="25" y="120" width="20" height="20" rx="3" stroke="#475569" stroke-width="1" fill="white"/>
  <text x="35" y="155" font-family="Arial" font-size="12" fill="#475569" text-anchor="middle">↑</text>
  <text x="35" y="185" font-family="Arial" font-size="12" fill="#475569" text-anchor="middle">↓</text>
  
  <!-- Message Header -->
  <text x="60" y="130" font-family="Arial" font-size="14" font-weight="bold" fill="#475569">You</text>
  <text x="100" y="130" font-family="Arial" font-size="12" fill="#94a3b8">10:15 AM</text>
  <text x="820" y="130" font-family="Arial" font-size="12" fill="#94a3b8">Ctrl+1</text>
  
  <!-- Message Content -->
  <text x="60" y="160" font-family="Arial" font-size="14" fill="#1e293b">I'm working on a machine learning project with a dataset of customer transactions. Can you help me design</text>
  <text x="60" y="185" font-family="Arial" font-size="14" fill="#1e293b">a pipeline for preprocessing this data and training a model to predict customer churn?</text>
  
  <!-- Paragraph selection indicators -->
  <circle cx="50" cy="170" r="4" fill="#64748b" opacity="0"/>
  
  <!-- AI Message -->
  <rect x="20" y="250" width="860" height="300" rx="10" fill="white" stroke="#e2e8f0" stroke-width="1"/>
  
  <!-- Selection controls -->
  <rect x="20" y="250" width="30" height="300" rx="5 0 0 5" fill="#f1f5f9" opacity="0.9"/>
  <rect x="25" y="260" width="20" height="20" rx="3" stroke="#475569" stroke-width="1" fill="white"/>
  <text x="35" y="335" font-family="Arial" font-size="12" fill="#475569" text-anchor="middle">↑</text>
  <text x="35" y="365" font-family="Arial" font-size="12" fill="#475569" text-anchor="middle">↓</text>
  
  <!-- Message Header -->
  <text x="60" y="270" font-family="Arial" font-size="14" font-weight="bold" fill="#475569">AI Assistant</text>
  <text x="150" y="270" font-family="Arial" font-size="12" fill="#94a3b8">10:16 AM</text>
  <text x="820" y="270" font-family="Arial" font-size="12" fill="#94a3b8">Ctrl+2</text>
  
  <!-- Message Content - with paragraph selection indicators -->
  <!-- Paragraph 1 - already selected -->
  <rect x="60" y="290" width="800" height="50" rx="5" fill="#dbeafe" opacity="0.5"/>
  <text x="60" y="310" font-family="Arial" font-size="14" fill="#1e293b">I'd be happy to help you design a preprocessing pipeline and model for customer churn prediction. Let's break</text>
  <text x="60" y="335" font-family="Arial" font-size="14" fill="#1e293b">this down into steps that create an effective workflow.</text>
  <circle cx="50" cy="310" r="4" fill="#0ea5e9"/>
  
  <!-- Paragraph 2 - with hover selection indicator -->
  <text x="60" y="375" font-family="Arial" font-size="14" font-weight="bold" fill="#1e293b">1. Data Preprocessing Steps:</text>
  <text x="60" y="400" font-family="Arial" font-size="14" fill="#1e293b">- Handle missing values through imputation or removal</text>
  <text x="60" y="425" font-family="Arial" font-size="14" fill="#1e293b">- Normalize numerical features (scaling to 0-1 range or standardizing)</text>
  <text x="60" y="450" font-family="Arial" font-size="14" fill="#1e293b">- Encode categorical features (one-hot encoding or target encoding)</text>
  <text x="60" y="475" font-family="Arial" font-size="14" fill="#1e293b">- Feature selection to identify the most predictive attributes</text>
  <circle cx="50" cy="425" r="4" fill="#64748b"/>
  
  <!-- Paragraph 3 -->
  <text x="60" y="515" font-family="Arial" font-size="14" font-weight="bold" fill="#1e293b">2. Model Selection:</text>
  <text x="60" y="540" font-family="Arial" font-size="14" fill="#1e293b">For churn prediction, I recommend starting with gradient boosting algorithms like XGBoost or LightGBM as they</text>
  <circle cx="50" cy="525" r="4" fill="#64748b"/>
  
  <!-- Code Block Example -->
  <rect x="20" y="570" width="860" height="170" rx="10" fill="white" stroke="#e2e8f0" stroke-width="1"/>
  
  <!-- Selection controls -->
  <rect x="20" y="570" width="30" height="170" rx="5 0 0 5" fill="#f1f5f9" opacity="0.9"/>
  <rect x="25" y="580" width="20" height="20" rx="3" stroke="#475569" stroke-width="1" fill="white"/>
  
  <!-- Code Block Header -->
  <text x="60" y="590" font-family="Arial" font-size="14" font-weight="bold" fill="#475569">Code: Python Preprocessing</text>
  <text x="820" y="590" font-family="Arial" font-size="12" fill="#94a3b8">Ctrl+3</text>
  
  <!-- Code Content -->
  <rect x="60" y="605" width="800" height="120" rx="5" fill="#f8fafc"/>
  <text x="70" y="625" font-family="Consolas, monospace" font-size="14" fill="#334155">import pandas as pd</text>
  <text x="70" y="650" font-family="Consolas, monospace" font-size="14" fill="#334155">from sklearn.preprocessing import StandardScaler</text>
  <text x="70" y="675" font-family="Consolas, monospace" font-size="14" fill="#334155">from sklearn.model_selection import train_test_split</text>
  <text x="70" y="700" font-family="Consolas, monospace" font-size="14" fill="#334155"></text>
  <text x="70" y="725" font-family="Consolas, monospace" font-size="14" fill="#334155"># Code for data preprocessing would go here</text>
  <circle cx="50" cy="665" r="4" fill="#64748b"/>
  
  <!-- Right Sidebar - Context Preview -->
  <rect x="900" y="50" width="300" height="750" fill="white"/>
  
  <!-- Context Preview Header -->
  <rect x="900" y="50" width="300" height="40" fill="#e2e8f0"/>
  <text x="920" y="75" font-family="Arial" font-size="16" fill="#334155" font-weight="bold">Selected Content</text>
  
  <!-- Selection Stats -->
  <rect x="900" y="90" width="300" height="60" fill="white"/>
  <text x="920" y="115" font-family="Arial" font-size="14" fill="#475569">1 paragraph selected</text>
  <text x="920" y="140" font-family="Arial" font-size="14" fill="#475569">~320 tokens (3% of context)</text>
  
  <!-- Quick Actions -->
  <rect x="920" y="160" width="130" height="35" rx="5" fill="#0ea5e9"/>
  <text x="985" y="182" font-family="Arial" font-size="14" fill="white" text-anchor="middle">Add to Context</text>
  
  <rect x="1060" y="160" width="120" height="35" rx="5" fill="#e2e8f0"/>
  <text x="1120" y="182" font-family="Arial" font-size="14" fill="#475569" text-anchor="middle">Discard</text>
  
  <!-- Selection Preview -->
  <rect x="920" y="210" width="260" height="90" rx="5" fill="#dbeafe"/>
  <text x="930" y="230" font-family="Arial" font-size="14" fill="#1e293b">I'd be happy to help you design a preprocessing pipeline and model for customer churn prediction. Let's break</text>
  <text x="930" y="255" font-family="Arial" font-size="14" fill="#1e293b">this down into steps that create an effective workflow.</text>
  
  <rect x="920" y="210" width="5" height="90" rx="2.5" fill="#0ea5e9"/>
  
  <!-- Keyboard Shortcuts Section -->
  <rect x="900" y="510" width="300" height="290" fill="white"/>
  <text x="920" y="535" font-family="Arial" font-size="16" fill="#334155" font-weight="bold">Keyboard Shortcuts</text>
  
  <text x="920" y="565" font-family="Arial" font-size="14" fill="#475569">Space</text>
  <text x="1020" y="565" font-family="Arial" font-size="14" fill="#1e293b">Select paragraph</text>
  
  <text x="920" y="595" font-family="Arial" font-size="14" fill="#475569">Shift+Space</text>
  <text x="1020" y="595" font-family="Arial" font-size="14" fill="#1e293b">Select message</text>
  
  <text x="920" y="625" font-family="Arial" font-size="14" fill="#475569">Alt+↑/↓</text>
  <text x="1020" y="625" font-family="Arial" font-size="14" fill="#1e293b">Navigate items</text>
  
  <text x="920" y="655" font-family="Arial" font-size="14" fill="#475569">Ctrl+A</text>
  <text x="1020" y="655" font-family="Arial" font-size="14" fill="#1e293b">Select all</text>
  
  <text x="920" y="685" font-family="Arial" font-size="14" fill="#475569">Ctrl+C</text>
  <text x="1020" y="685" font-family="Arial" font-size="14" fill="#1e293b">Add to context</text>
  
  <text x="920" y="715" font-family="Arial" font-size="14" fill="#475569">Ctrl+1,2,3...</text>
  <text x="1020" y="715" font-family="Arial" font-size="14" fill="#1e293b">Jump to message</text>
  
  <text x="920" y="745" font-family="Arial" font-size="14" fill="#475569">Ctrl+S</text>
  <text x="1020" y="745" font-family="Arial" font-size="14" fill="#1e293b">Save selection</text>
  
  <text x="920" y="775" font-family="Arial" font-size="14" fill="#475569">Ctrl+/</text>
  <text x="1020" y="775" font-family="Arial" font-size="14" fill="#1e293b">Show all shortcuts</text>
  
  <!-- Mini-map in scrollbar -->
  <rect x="880" y="50" width="12" height="750" fill="#e2e8f0" rx="6"/>
  
  <!-- Current view indicator -->
  <rect x="880" y="110" width="12" height="270" fill="#94a3b8" rx="6"/>
  
  <!-- Heat indicators for relevant content -->
  <rect x="880" y="290" width="12" height="30" fill="#0ea5e9" rx="0"/>
  <rect x="880" y="420" width="12" height="80" fill="#0ea5e9" opacity="0.5" rx="0"/>
  <rect x="880" y="605" width="12" height="50" fill="#0ea5e9" opacity="0.7" rx="0"/>
  
  <!-- Selection Options for Paragraphs - Appearing on hover -->
  <rect x="780" y="290" width="80" height="30" rx="15" fill="#0ea5e9" opacity="0.9"/>
  <text x="820" y="310" font-family="Arial" font-size="12" fill="white" text-anchor="middle">Selected</text>
</svg>