<svg xmlns="http://www.w3.org/2000/svg" viewBox="0 0 1200 800">
  <!-- Background -->
  <rect width="1200" height="800" fill="#f8fafc"/>
  
  <!-- Header -->
  <rect x="0" y="0" width="1200" height="50" fill="#1e293b"/>
  <text x="20" y="32" font-family="Arial" font-size="20" fill="white">ContextNexus</text>
  
  <!-- Context Status -->
  <rect x="250" y="10" width="70" height="30" rx="15" fill="#334155"/>
  <circle cx="270" cy="25" r="8" fill="#0ea5e9"/>
  <text x="290" y="30" font-family="Arial" font-size="14" fill="white">Fast</text>
  
  <rect x="330" y="10" width="150" height="30" rx="15" fill="#334155"/>
  <rect x="340" y="20" width="100" height="10" rx="5" fill="#475569"/>
  <rect x="340" y="20" width="43" height="10" rx="5" fill="#0ea5e9"/>
  <text x="450" y="30" font-family="Arial" font-size="12" fill="white">43% selected</text>
  
  <rect x="1010" y="10" width="70" height="30" rx="15" fill="#0ea5e9"/>
  <text x="1045" y="30" font-family="Arial" font-size="14" fill="white" text-anchor="middle">Apply</text>
  
  <rect x="1090" y="10" width="90" height="30" rx="15" fill="#334155"/>
  <text x="1135" y="30" font-family="Arial" font-size="14" fill="white" text-anchor="middle">Exit Mode</text>
  
  <!-- Main Chat Area -->
  <rect x="0" y="50" width="1200" height="750" fill="#f1f5f9"/>
  
  <!-- Selection Mode Indicator -->
  <rect x="0" y="50" width="1200" height="40" fill="rgba(14, 165, 233, 0.1)"/>
  <text x="20" y="75" font-family="Arial" font-size="16" fill="#0c4a6e" font-weight="bold">Quick Selection Mode</text>
  <text x="200" y="75" font-family="Arial" font-size="14" fill="#0369a1">Click or drag to select text • Space to toggle paragraph • Esc to exit</text>
  
  <!-- Main Message Area with Rapid Selection UI -->
  <rect x="20" y="110" width="1160" height="650" rx="10" fill="white"/>
  
  <!-- User Message with Conversation View -->
  <rect x="40" y="130" width="1120" height="80" rx="5" fill="#f1f5f9"/>
  <circle cx="60" cy="150" r="15" fill="#38bdf8"/>
  <text x="60" y="155" font-family="Arial" font-size="14" fill="white" text-anchor="middle">VP</text>
  <text x="85" y="150" font-family="Arial" font-size="14" font-weight="bold" fill="#334155">You</text>
  <text x="115" y="150" font-family="Arial" font-size="12" fill="#64748b">10:15 AM</text>
  <text x="85" y="180" font-family="Arial" font-size="14" fill="#475569">Could you analyze this dataset of customer transactions and help me identify patterns of customer churn?</text>
  <rect x="40" y="130" width="5" height="80" rx="2.5" fill="#94a3b8"/>
  
  <!-- AI Message with Selection UI -->
  <rect x="40" y="230" width="1120" height="510" rx="5" fill="white" stroke="#e2e8f0" stroke-width="1"/>
  <circle cx="60" cy="250" r="15" fill="#0e7490"/>
  <text x="60" y="255" font-family="Arial" font-size="14" fill="white" text-anchor="middle">AI</text>
  <text x="85" y="250" font-family="Arial" font-size="14" font-weight="bold" fill="#334155">Assistant</text>
  <text x="155" y="250" font-family="Arial" font-size="12" fill="#64748b">10:16 AM</text>
  
  <!-- Paragraph 1 - Hovered with Selection UI -->
  <rect x="85" y="280" width="1075" height="60" rx="3" fill="#dbeafe" opacity="0.3"/>
  <text x="85" y="300" font-family="Arial" font-size="14" fill="#334155">I'll analyze your customer transaction dataset to identify churn patterns. First, let's understand what typically</text>
  <text x="85" y="325" font-family="Arial" font-size="14" fill="#334155">causes customers to leave and what signals might indicate potential churn.</text>
  
  <!-- Selection UI (appears on hover) -->
  <rect x="40" y="280" width="35" height="60" rx="3" fill="#f1f5f9"/>
  <circle cx="57.5" cy="310" r="10" fill="white" stroke="#0ea5e9" stroke-width="1.5"/>
  <text x="57.5" y="315" font-family="Arial" font-size="14" fill="#0ea5e9" text-anchor="middle">⬚</text>
  
  <rect x="1040" y="280" width="120" height="30" rx="15" fill="#0ea5e9" opacity="0.9"/>
  <text x="1100" y="300" font-family="Arial" font-size="12" fill="white" text-anchor="middle">Add to Context</text>
  
  <!-- Paragraph 2 - Selected -->
  <rect x="85" y="350" width="1075" height="100" rx="3" fill="#dbeafe"/>
  <text x="85" y="370" font-family="Arial" font-size="14" fill="#334155">Key indicators of potential churn include:</text>
  <text x="85" y="395" font-family="Arial" font-size="14" fill="#334155">• Decreased transaction frequency over time</text>
  <text x="85" y="420" font-family="Arial" font-size="14" fill="#334155">• Reduction in average purchase value</text>
  <text x="85" y="445" font-family="Arial" font-size="14" fill="#334155">• Increased support ticket submissions or complaints</text>
  
  <!-- Selection UI -->
  <rect x="40" y="350" width="35" height="100" rx="3" fill="#f1f5f9"/>
  <circle cx="57.5" cy="400" r="10" fill="#0ea5e9" stroke="#0ea5e9" stroke-width="1.5"/>
  <text x="57.5" y="405" font-family="Arial" font-size="14" fill="white" text-anchor="middle">✓</text>
  
  <rect x="1040" y="350" width="120" height="30" rx="15" fill="#f97316" opacity="0.9"/>
  <text x="1100" y="370" font-family="Arial" font-size="12" fill="white" text-anchor="middle">Remove</text>
  
  <rect x="1000" y="390" width="160" height="20" rx="10" fill="#0c4a6e" opacity="0.1"/>
  <text x="1080" y="405" font-family="Arial" font-size="12" fill="#0c4a6e" text-anchor="middle">~140 tokens</text>
  
  <!-- Paragraph 3 - Not selected -->
  <rect x="85" y="460" width="1075" height="80" rx="3" fill="white"/>
  <text x="85" y="480" font-family="Arial" font-size="14" fill="#334155">For analyzing your dataset, I recommend a multi-step approach:</text>
  <text x="85" y="505" font-family="Arial" font-size="14" fill="#334155">1. Data cleaning and preparation to handle missing values</text>
  <text x="85" y="530" font-family="Arial" font-size="14" fill="#334155">2. Feature engineering to identify meaningful signals</text>
  
  <!-- Selection UI (appears on hover) -->
  <rect x="40" y="460" width="35" height="80" rx="3" fill="#f1f5f9"/>
  <circle cx="57.5" cy="500" r="10" fill="white" stroke="#0ea5e9" stroke-width="1.5"/>
  <text x="57.5" y="505" font-family="Arial" font-size="14" fill="#0ea5e9" text-anchor="middle">⬚</text>
  
  <!-- Code Block - Text selection in progress -->
  <rect x="85" y="550" width="1075" height="150" rx="5" fill="#f8fafc"/>
  
  <!-- Cursor show text selection in progress -->
  <rect x="165" y="580" width="180" height="20" fill="#bae6fd" opacity="0.7"/>
  <rect x="85" y="600" width="90" height="20" fill="#bae6fd" opacity="0.7"/>
  
  <text x="85" y="570" font-family="Arial" font-size="14" font-weight="bold" fill="#334155">Example Analysis Code:</text>
  <text x="85" y="600" font-family="Consolas, monospace" font-size="14" fill="#334155">import pandas as pd</text>
  <text x="85" y="625" font-family="Consolas, monospace" font-size="14" fill="#334155">from sklearn.ensemble import RandomForestClassifier</text>
  <text x="85" y="650" font-family="Consolas, monospace" font-size="14" fill="#334155">from sklearn.model_selection import train_test_split</text>
  <text x="85" y="675" font-family="Consolas, monospace" font-size="14" fill="#334155"></text>
  <text x="85" y="700" font-family="Consolas, monospace" font-size="14" fill="#334155"># Load and prepare data</text>
  
  <!-- Selection UI -->
  <rect x="40" y="550" width="35" height="150" rx="3" fill="#f1f5f9"/>
  <circle cx="57.5" cy="625" r="10" fill="white" stroke="#0ea5e9" stroke-width="1.5"/>
  <text x="57.5" y="630" font-family="Arial" font-size="14" fill="#0ea5e9" text-anchor="middle">⬚</text>
  
  <!-- Floating Selection Tools (appears during text selection) -->
  <rect x="345" y="580" width="140" height="40" rx="20" fill="#0c4a6e" filter="drop-shadow(0 4px 3px rgb(0 0 0 / 0.07))"/>
  <text x="380" y="605" font-family="Arial" font-size="14" fill="white">Select Code</text>
  <text x="470" y="605" font-family="Arial" font-size="14" fill="white">|</text>
  <text x="485" y="605" font-family="Arial" font-size="14" fill="white">All</text>
  
  <!-- Bottom Control Bar -->
  <rect x="0" y="770" width="1200" height="30" fill="#e2e8f0"/>
  
  <!-- Selection Stats -->
  <text x="20" y="790" font-family="Arial" font-size="14" fill="#334155">1 paragraph selected • 140 tokens • Space to toggle • Tab to next • Shift+Tab to previous</text>
  
  <!-- Dynamic Context Preview -->
  <rect x="600" y="770" width="580" height="30" fill="#dbeafe"/>
  <text x="620" y="790" font-family="Arial" font-size="14" fill="#0c4a6e">Context Preview: "Key indicators... complaints"</text>
  <text x="1140" y="790" font-family="Arial" font-size="14" fill="#0c4a6e" text-anchor="end">+</text>
</svg>