<svg xmlns="http://www.w3.org/2000/svg" viewBox="0 0 1200 800">
  <!-- Background -->
  <rect width="1200" height="800" fill="#f8fafc"/>
  
  <!-- Title -->
  <text x="600" y="50" font-family="Arial" font-size="24" fill="#0f172a" font-weight="bold" text-anchor="middle">Context Workflow: From Conversation to Structured Knowledge</text>
  
  <!-- Step 1: Conversation -->
  <rect x="50" y="100" width="240" height="600" rx="10" fill="#f1f5f9" stroke="#cbd5e0" stroke-width="2"/>
  <text x="170" y="130" font-family="Arial" font-size="20" fill="#0f172a" font-weight="bold" text-anchor="middle">Raw Conversation</text>
  
  <!-- Conversation Messages -->
  <rect x="70" y="150" width="200" height="80" rx="10" fill="white" stroke="#e2e8f0" stroke-width="2"/>
  <text x="85" y="175" font-family="Arial" font-size="14" fill="#64748b">You</text>
  <text x="85" y="200" font-family="Arial" font-size="12" fill="#334155">Machine learning question...</text>
  
  <rect x="70" y="240" width="200" height="120" rx="10" fill="white" stroke="#e2e8f0" stroke-width="2"/>
  <text x="85" y="265" font-family="Arial" font-size="14" fill="#64748b">AI</text>
  <text x="85" y="290" font-family="Arial" font-size="12" fill="#334155">I can help with machine...</text>
  <text x="85" y="310" font-family="Arial" font-size="12" fill="#334155">Here are key steps...</text>
  <text x="85" y="330" font-family="Arial" font-size="12" fill="#334155">First, we need to...</text>
  
  <rect x="70" y="370" width="200" height="80" rx="10" fill="white" stroke="#e2e8f0" stroke-width="2"/>
  <text x="85" y="395" font-family="Arial" font-size="14" fill="#64748b">You</text>
  <text x="85" y="420" font-family="Arial" font-size="12" fill="#334155">What about handling...</text>
  
  <rect x="70" y="460" width="200" height="120" rx="10" fill="white" stroke="#e2e8f0" stroke-width="2"/>
  <text x="85" y="485" font-family="Arial" font-size="14" fill="#64748b">AI</text>
  <text x="85" y="510" font-family="Arial" font-size="12" fill="#334155">Great question. For...</text>
  <text x="85" y="530" font-family="Arial" font-size="12" fill="#334155">Consider using these...</text>
  <text x="85" y="550" font-family="Arial" font-size="12" fill="#334155">Here's example code...</text>
  
  <rect x="70" y="590" width="200" height="80" rx="10" fill="white" stroke="#e2e8f0" stroke-width="2"/>
  <text x="85" y="615" font-family="Arial" font-size="14" fill="#64748b">You</text>
  <text x="85" y="640" font-family="Arial" font-size="12" fill="#334155">Can we optimize for...</text>
  
  <!-- Problems with Raw Conversation -->
  <rect x="50" y="710" width="240" height="80" rx="10" fill="#fee2e2" stroke="#fecaca" stroke-width="2"/>
  <text x="170" y="735" font-family="Arial" font-size="16" fill="#b91c1c" font-weight="bold" text-anchor="middle">Problems</text>
  <text x="170" y="760" font-family="Arial" font-size="12" fill="#b91c1c" text-anchor="middle">Token limits • Poor organization</text>
  <text x="170" y="780" font-family="Arial" font-size="12" fill="#b91c1c" text-anchor="middle">Off-topic content • Repetition</text>
  
  <!-- Step 2: Rapid Selection -->
  <rect x="340" y="100" width="240" height="600" rx="10" fill="#dbeafe" stroke="#93c5fd" stroke-width="2"/>
  <text x="460" y="130" font-family="Arial" font-size="20" fill="#1e40af" font-weight="bold" text-anchor="middle">Rapid Selection</text>
  
  <!-- Selection Interface -->
  <rect x="360" y="150" width="200" height="220" rx="10" fill="white" stroke="#93c5fd" stroke-width="2"/>
  
  <!-- Selection Header -->
  <rect x="360" y="150" width="200" height="30" rx="10 10 0 0" fill="#bfdbfe"/>
  <text x="460" y="170" font-family="Arial" font-size="14" fill="#1e40af" text-anchor="middle">Select Mode</text>
  
  <!-- Selection Content -->
  <rect x="370" y="190" width="180" height="20" rx="5" fill="#eff6ff"/>
  <circle cx="380" cy="200" r="5" fill="white" stroke="#3b82f6" stroke-width="1"/>
  <text x="400" y="202" font-family="Arial" font-size="11" fill="#334155">Message from you</text>
  
  <rect x="370" y="220" width="180" height="20" rx="5" fill="#dbeafe"/>
  <circle cx="380" cy="230" r="5" fill="#3b82f6"/>
  <text x="400" y="232" font-family="Arial" font-size="11" fill="#334155">Key steps paragraph</text>
  
  <rect x="370" y="250" width="180" height="20" rx="5" fill="#dbeafe"/>
  <circle cx="380" cy="260" r="5" fill="#3b82f6"/>
  <text x="400" y="262" font-family="Arial" font-size="11" fill="#334155">Example code block</text>
  
  <rect x="370" y="280" width="180" height="20" rx="5" fill="#eff6ff"/>
  <circle cx="380" cy="290" r="5" fill="white" stroke="#3b82f6" stroke-width="1"/>
  <text x="400" y="292" font-family="Arial" font-size="11" fill="#334155">Your follow-up</text>
  
  <rect x="370" y="310" width="180" height="20" rx="5" fill="#dbeafe"/>
  <circle cx="380" cy="320" r="5" fill="#3b82f6"/>
  <text x="400" y="322" font-family="Arial" font-size="11" fill="#334155">Optimization methods</text>
  
  <!-- Selection Methods -->
  <rect x="360" y="380" width="200" height="160" rx="10" fill="white" stroke="#93c5fd" stroke-width="2"/>
  <text x="460" y="400" font-family="Arial" font-size="14" fill="#1e40af" text-anchor="middle">Selection Methods</text>
  
  <rect x="370" y="420" width="180" height="25" rx="12.5" fill="#eff6ff"/>
  <text x="460" y="437" font-family="Arial" font-size="12" fill="#1e40af" text-anchor="middle">One-Click Paragraph</text>
  
  <rect x="370" y="455" width="180" height="25" rx="12.5" fill="#eff6ff"/>
  <text x="460" y="472" font-family="Arial" font-size="12" fill="#1e40af" text-anchor="middle">Drag Selection</text>
  
  <rect x="370" y="490" width="180" height="25" rx="12.5" fill="#eff6ff"/>
  <text x="460" y="507" font-family="Arial" font-size="12" fill="#1e40af" text-anchor="middle">Content Type Filters</text>
  
  <!-- Selection Stats -->
  <rect x="360" y="550" width="200" height="120" rx="10" fill="white" stroke="#93c5fd" stroke-width="2"/>
  <text x="460" y="575" font-family="Arial" font-size="14" fill="#1e40af" text-anchor="middle">Selection Stats</text>
  
  <text x="370" y="605" font-family="Arial" font-size="12" fill="#334155">3 paragraphs selected</text>
  <text x="370" y="630" font-family="Arial" font-size="12" fill="#334155">2 code blocks selected</text>
  <text x="370" y="655" font-family="Arial" font-size="12" fill="#334155">1,852 tokens (18.5%)</text>
  
  <!-- Key Benefits -->
  <rect x="340" y="710" width="240" height="80" rx="10" fill="#dbeafe" stroke="#93c5fd" stroke-width="2"/>
  <text x="460" y="735" font-family="Arial" font-size="16" fill="#1e40af" font-weight="bold" text-anchor="middle">Value Add</text>
  <text x="460" y="760" font-family="Arial" font-size="12" fill="#1e40af" text-anchor="middle">Speed (1-click selection)</text>
  <text x="460" y="780" font-family="Arial" font-size="12" fill="#1e40af" text-anchor="middle">Precision (only what matters)</text>
  
  <!-- Step 3: Organization -->
  <rect x="630" y="100" width="240" height="600" rx="10" fill="#d8b4fe" stroke="#c4b5fd" stroke-width="2"/>
  <text x="750" y="130" font-family="Arial" font-size="20" fill="#6b21a8" font-weight="bold" text-anchor="middle">Organization</text>
  
  <!-- Organization Interface -->
  <rect x="650" y="150" width="200" height="280" rx="10" fill="white" stroke="#c4b5fd" stroke-width="2"/>
  
  <!-- Organization Header -->
  <rect x="650" y="150" width="200" height="30" rx="10 10 0 0" fill="#e9d5ff"/>
  <text x="750" y="170" font-family="Arial" font-size="14" fill="#6b21a8" text-anchor="middle">Structure View</text>
  
  <!-- Topic 1 -->
  <rect x="660" y="190" width="180" height="60" rx="5" fill="#f3e8ff"/>
  <text x="670" y="210" font-family="Arial" font-size="12" fill="#6b21a8" font-weight="bold">Topic: ML Pipeline</text>
  <text x="680" y="230" font-family="Arial" font-size="11" fill="#7c3aed">• Key steps paragraph</text>
  <text x="680" y="245" font-family="Arial" font-size="11" fill="#7c3aed">• 40% relevance</text>
  
  <!-- Topic 2 -->
  <rect x="660" y="260" width="180" height="60" rx="5" fill="#f3e8ff"/>
  <text x="670" y="280" font-family="Arial" font-size="12" fill="#6b21a8" font-weight="bold">Topic: Implementation</text>
  <text x="680" y="300" font-family="Arial" font-size="11" fill="#7c3aed">• Example code block</text>
  <text x="680" y="315" font-family="Arial" font-size="11" fill="#7c3aed">• 80% relevance</text>
  
  <!-- Topic 3 -->
  <rect x="660" y="330" width="180" height="60" rx="5" fill="#f3e8ff"/>
  <text x="670" y="350" font-family="Arial" font-size="12" fill="#6b21a8" font-weight="bold">Topic: Optimization</text>
  <text x="680" y="370" font-family="Arial" font-size="11" fill="#7c3aed">• Optimization methods</text>
  <text x="680" y="385" font-family="Arial" font-size="11" fill="#7c3aed">• 60% relevance</text>
  
  <!-- Organization Controls -->
  <rect x="650" y="440" width="200" height="160" rx="10" fill="white" stroke="#c4b5fd" stroke-width="2"/>
  <text x="750" y="465" font-family="Arial" font-size="14" fill="#6b21a8" text-anchor="middle">Organization Controls</text>
  
  <rect x="670" y="485" width="160" height="30" rx="15" fill="#f3e8ff"/>
  <text x="750" y="505" font-family="Arial" font-size="12" fill="#6b21a8" text-anchor="middle">Auto-Categorize</text>
  
  <rect x="670" y="525" width="160" height="30" rx="15" fill="#f3e8ff"/>
  <text x="750" y="545" font-family="Arial" font-size="12" fill="#6b21a8" text-anchor="middle">Adjust Relevance</text>
  
  <rect x="670" y="565" width="160" height="30" rx="15" fill="#f3e8ff"/>
  <text x="750" y="585" font-family="Arial" font-size="12" fill="#6b21a8" text-anchor="middle">Reorder Topics</text>
  
  <!-- Key Benefits -->
  <rect x="630" y="710" width="240" height="80" rx="10" fill="#e9d5ff" stroke="#c4b5fd" stroke-width="2"/>
  <text x="750" y="735" font-family="Arial" font-size="16" fill="#6b21a8" font-weight="bold" text-anchor="middle">Value Add</text>
  <text x="750" y="760" font-family="Arial" font-size="12" fill="#6b21a8" text-anchor="middle">Structured knowledge</text>
  <text x="750" y="780" font-family="Arial" font-size="12" fill="#6b21a8" text-anchor="middle">Prioritization by relevance</text>
  
  <!-- Step 4: Application -->
  <rect x="920" y="100" width="240" height="600" rx="10" fill="#bbf7d0" stroke="#86efac" stroke-width="2"/>
  <text x="1040" y="130" font-family="Arial" font-size="20" fill="#166534" font-weight="bold" text-anchor="middle">Application</text>
  
  <!-- Context Application Interface -->
  <rect x="940" y="150" width="200" height="220" rx="10" fill="white" stroke="#86efac" stroke-width="2"/>
  
  <!-- Application Header -->
  <rect x="940" y="150" width="200" height="30" rx="10 10 0 0" fill="#dcfce7"/>
  <text x="1040" y="170" font-family="Arial" font-size="14" fill="#166534" text-anchor="middle">Active Context</text>
  
  <!-- Context Visualization -->
  <rect x="960" y="190" width="160" height="160" rx="5" fill="#f0fdf4"/>
  
  <!-- Core Circle (high relevance) -->
  <circle cx="1040" cy="270" r="60" fill="#dcfce7" stroke="#166534" stroke-width="1"/>
  <text x="1040" y="260" font-family="Arial" font-size="12" fill="#166534" text-anchor="middle">Implementation</text>
  <text x="1040" y="280" font-family="Arial" font-size="12" fill="#166534" text-anchor="middle">80%</text>
  
  <!-- Mid Circle (medium relevance) -->
  <circle cx="1040" cy="270" r="90" fill="#f0fdf4" stroke="#166534" stroke-width="1"/>
  <text x="1040" y="205" font-family="Arial" font-size="12" fill="#166534" text-anchor="middle">Optimization</text>
  <text x="1040" y="220" font-family="Arial" font-size="12" fill="#166534" text-anchor="middle">60%</text>
  
  <!-- Outer Circle (low relevance) -->
  <circle cx="1040" cy="270" r="120" fill="#f0fdf4" stroke="#166534" stroke-width="1" stroke-dasharray="5,5"/>
  <text x="1040" y="320" font-family="Arial" font-size="12" fill="#166534" text-anchor="middle">ML Pipeline</text>
  <text x="1040" y="335" font-family="Arial" font-size="12" fill="#166534" text-anchor="middle">40%</text>
  
  <!-- Token Usage Visualization -->
  <rect x="940" y="380" width="200" height="160" rx="10" fill="white" stroke="#86efac" stroke-width="2"/>
  <text x="1040" y="405" font-family="Arial" font-size="14" fill="#166534" text-anchor="middle">Token Optimization</text>
  
  <!-- Before Optimization Bar -->
  <text x="960" y="435" font-family="Arial" font-size="12" fill="#334155">Before:</text>
  <rect x="1010" y="425" width="120" height="20" rx="10" fill="#f1f5f9"/>
  <rect x="1010" y="425" width="120" height="20" rx="10" fill="#94a3b8"/>
  <text x="1140" y="438" font-family="Arial" font-size="10" fill="#f1f5f9" text-anchor="end">10,000</text>
  
  <!-- After Optimization Bar -->
  <text x="960" y="465" font-family="Arial" font-size="12" fill="#334155">After:</text>
  <rect x="1010" y="455" width="120" height="20" rx="10" fill="#f1f5f9"/>
  <rect x="1010" y="455" width="24" height="20" rx="10" fill="#4ade80"/>
  <text x="1040" y="468" font-family="Arial" font-size="10" fill="#f1f5f9">1,852</text>
  <text x="1140" y="468" font-family="Arial" font-size="10" fill="#334155" text-anchor="end">10,000</text>
  
  <!-- Token Savings -->
  <text x="960" y="495" font-family="Arial" font-size="12" fill="#334155">Token Savings:</text>
  <text x="1060" y="495" font-family="Arial" font-size="12" fill="#16a34a">81.5%</text>
  
  <text x="960" y="520" font-family="Arial" font-size="12" fill="#334155">Relevance Focus:</text>
  <rect x="1050" y="510" width="60" height="10" rx="5" fill="#e2e8f0"/>
  <rect x="1050" y="510" width="48" height="10" rx="5" fill="#4ade80"/>
  <text x="1120" y="520" font-family="Arial" font-size="12" fill="#16a34a">80%</text>
  
  <!-- Conversation Application -->
  <rect x="940" y="550" width="200" height="120" rx="10" fill="white" stroke="#86efac" stroke-width="2"/>
  <text x="1040" y="575" font-family="Arial" font-size="14" fill="#166534" text-anchor="middle">Conversation Impact</text>
  
  <text x="960" y="605" font-family="Arial" font-size="12" fill="#334155">• More relevant responses</text>
  <text x="960" y="630" font-family="Arial" font-size="12" fill="#334155">• Longer effective history</text>
  <text x="960" y="655" font-family="Arial" font-size="12" fill="#334155">• Reduced hallucinations</text>
  
  <!-- Key Benefits -->
  <rect x="920" y="710" width="240" height="80" rx="10" fill="#dcfce7" stroke="#86efac" stroke-width="2"/>
  <text x="1040" y="735" font-family="Arial" font-size="16" fill="#166534" font-weight="bold" text-anchor="middle">Value Add</text>
  <text x="1040" y="760" font-family="Arial" font-size="12" fill="#166534" text-anchor="middle">Token efficiency (81.5% savings)</text>
  <text x="1040" y="780" font-family="Arial" font-size="12" fill="#166534" text-anchor="middle">Relevance-weighted responses</text>
  
  <!-- Workflow Arrows -->
  <!-- Arrow 1 -->
  <polygon points="300,350 330,350 330,330 350,360 330,390 330,370 300,370" fill="#64748b"/>
  <polygon points="340,550 310,550 310,530 290,560 310,590 310,570 340,570" fill="#64748b"/>
  <!-- Arrow 2 -->
  <polygon points="590,350 620,350 620,330 640,360 620,390 620,370 590,370" fill="#64748b"/>
  <polygon points="640,550 610,550 610,530 590,560 610,590 610,570 640,570" fill="#64748b"/>
  
  <!-- Arrow 3 -->
  <polygon points="880,350 910,350 910,330 930,360 910,390 910,370 880,370" fill="#64748b"/>
</svg>